<?xml version="1.0" encoding="utf-8"?>
<svg id="master-artboard" viewBox="0 0 335.99 235.19" xmlns="http://www.w3.org/2000/svg" width="335.989990234375px" height="235.19000244140625px"><title>D_21</title><g id="items" transform="matrix(1, 0, 0, 1, 0, -11)" style="isolation: isolate;"><path d="M 19.67 209.880005 H 315.67 V 219.210005 H 19.67 V 209.880005 Z" id="table" class="cls-3" style="fill: rgb(42, 66, 81);"/><g id="folder-3" data-name="folder" transform="matrix(1, 0, 0, 1, 0, -18)"><path d="M 63.919998 58.939999 H 80.419998 V 115.549999 H 63.919998 V 58.939999 Z" class="cls-4" style="fill: rgb(42, 66, 81);"/><path d="M 67.220001 63.439999 H 77.130001 V 95.689999 H 67.220001 V 63.439999 Z" class="cls-7" style="fill: rgb(255, 255, 255);"/><path d="M 77.14 106.230003 A 4.96 4.96 0 0 1 72.18 111.190003 A 4.96 4.96 0 0 1 67.22 106.230003 A 4.96 4.96 0 0 1 72.18 101.270003 A 4.96 4.96 0 0 1 77.14 106.230003 Z" class="cls-6" style="fill: rgb(214, 214, 214);"/><path class="cls-7" d="M72.18,103.28a3,3,0,1,1-3,3,3,3,0,0,1,3-3m0-2a5,5,0,1,0,5,5,5,5,0,0,0-5-5h0Z" style="fill: rgb(255, 255, 255);"/><path d="M 68.93 66.360001 H 75.68 V 66.940001 H 68.93 V 66.360001 Z" class="cls-2" style="fill: rgb(221, 221, 221);"/><path d="M 68.93 68.360001 H 75.68 V 68.940001 H 68.93 V 68.360001 Z" class="cls-2" style="fill: rgb(221, 221, 221);"/><path d="M 68.93 70.360001 H 75.68 V 70.940001 H 68.93 V 70.360001 Z" class="cls-2" style="fill: rgb(221, 221, 221);"/><path d="M 68.93 72.360001 H 75.68 V 72.940001 H 68.93 V 72.360001 Z" class="cls-2" style="fill: rgb(221, 221, 221);"/><path d="M 68.93 74.360001 H 75.68 V 74.940001 H 68.93 V 74.360001 Z" class="cls-2" style="fill: rgb(221, 221, 221);"/><path d="M 68.93 76.360001 H 75.68 V 76.940001 H 68.93 V 76.360001 Z" class="cls-2" style="fill: rgb(221, 221, 221);"/><path d="M 68.93 78.360001 H 75.68 V 78.940001 H 68.93 V 78.360001 Z" class="cls-2" style="fill: rgb(221, 221, 221);"/><path d="M 68.93 80.360001 H 75.68 V 80.940001 H 68.93 V 80.360001 Z" class="cls-2" style="fill: rgb(221, 221, 221);"/></g><path d="M 19.67 115.830002 H 85.000002 V 125.150002 H 19.67 V 115.830002 Z" id="shelf" class="cls-3" style="fill: rgb(89, 99, 116);" transform="matrix(1, 0, 0, 1, 0, -18)"/><g id="computer"><path class="cls-4" d="M233.38,87.83H102.6a5.54,5.54,0,0,0-5.45,5.61V171.9H238.83V93.44a5.55,5.55,0,0,0-5.45-5.61h0Z" style="fill: rgb(43, 90, 95);"/><path d="M 233.3800048828125 93.44000244140625 L 233.3800048828125 166.3000030517578 L 102.5999984741211 166.3000030517578 L 102.5999984741211 93.44000244140625 L 233.3800048828125 93.44000244140625 L 233.3800048828125 93.44000244140625 Z" class="cls-5" style="fill: rgb(179, 218, 216);"/><path class="cls-6" d="M97.15,171.9v11.72c0,2.15,2.45,3.91,5.45,3.91H233.38c3,0,5.45-1.76,5.45-3.91V171.9H97.15Z" style="fill: rgb(214, 214, 214); stroke: rgb(255, 255, 255);"/><path d="M 181.72000122070312 187.52999877929688 L 154.6300048828125 187.52999877929688 L 151.72000122070312 204.97999572753906 L 140.75 204.97999572753906 L 140.75 209.3800048828125 L 195.24000549316406 209.3800048828125 L 195.24000549316406 204.97999572753906 L 184.6300048828125 204.97999572753906 L 181.72000122070312 187.52999877929688 Z" class="cls-7" style="fill: rgb(214, 214, 214); stroke: rgb(255, 255, 255);"/><path d="M 120.81999969482422 102.30999755859375 L 120.81999969482422 108.55000305175781 L 120.81999969482422 162 L 219.52000427246094 162 L 219.52000427246094 108.55000305175781 L 219.52000427246094 102.30999755859375 L 120.81999969482422 102.30999755859375 Z" class="cls-2" style="fill: rgb(214, 214, 214);"/><path d="M 117.699997 105.43 H 216.409996 V 158.880001 H 117.699997 V 105.43 Z" class="cls-7" style="fill: rgb(255, 255, 255);"/><path d="M 201.320007 113.860001 H 208.290007 V 151.959999 H 201.320007 V 113.860001 Z" class="cls-8" style="fill: rgb(16, 155, 248);"/><path d="M 194.350006 120.5 H 201.320006 V 151.959999 H 194.350006 V 120.5 Z" class="cls-9" style="fill: rgb(255, 210, 46);"/><path d="M 187.380005 130.910004 H 194.350005 V 151.960003 H 187.380005 V 130.910004 Z" class="cls-10" style="fill: rgb(244, 100, 95);"/><path d="M 180.410004 130.880005 H 187.380003 V 151.960005 H 180.410004 V 130.880005 Z" class="cls-8" style="fill: rgb(16, 155, 248);"/><path d="M 173.440002 137.669998 H 180.410002 V 151.959998 H 173.440002 V 137.669998 Z" class="cls-9" style="fill: rgb(255, 210, 46);"/><path d="M 166.470001 120.5 H 173.440001 V 151.959999 H 166.470001 V 120.5 Z" class="cls-10" style="fill: rgb(244, 100, 95);"/><path d="M 159.5 133.479996 H 166.47 V 151.959995 H 159.5 V 133.479996 Z" class="cls-8" style="fill: rgb(16, 155, 248);"/><path d="M 152.529999 137.669998 H 159.509999 V 151.959998 H 152.529999 V 137.669998 Z" class="cls-9" style="fill: rgb(255, 210, 46);"/><path d="M 145.559998 125.970001 H 152.529997 V 151.960001 H 145.559998 V 125.970001 Z" class="cls-10" style="fill: rgb(244, 100, 95);"/><path d="M 138.589996 117.610001 H 145.559996 V 151.959999 H 138.589996 V 117.610001 Z" class="cls-8" style="fill: rgb(16, 155, 248);"/><path d="M 131.619995 113.860001 H 138.589995 V 151.959999 H 131.619995 V 113.860001 Z" class="cls-9" style="fill: rgb(255, 210, 46);"/><path d="M 124.639999 120.5 H 131.609999 V 151.959999 H 124.639999 V 120.5 Z" class="cls-10" style="fill: rgb(244, 100, 95);"/><path d="M 117.699997 99.190002 H 216.409996 V 105.430002 H 117.699997 V 99.190002 Z" class="cls-11" style="fill: rgb(53, 63, 73);"/><path d="M 135.199997 101.559998 H 208.289993 V 103.259998 H 135.199997 V 101.559998 Z" class="cls-7" style="fill: rgb(164, 243, 234);"/><path d="M 121.730001 102.309998 A 1.01 1.01 0 0 1 120.720001 103.319998 A 1.01 1.01 0 0 1 119.710001 102.309998 A 1.01 1.01 0 0 1 120.720001 101.299998 A 1.01 1.01 0 0 1 121.730001 102.309998 Z" class="cls-7" style="fill: rgb(164, 243, 234);"/><path d="M 125.539999 102.309998 A 1.01 1.01 0 0 1 124.529999 103.319998 A 1.01 1.01 0 0 1 123.519999 102.309998 A 1.01 1.01 0 0 1 124.529999 101.299998 A 1.01 1.01 0 0 1 125.539999 102.309998 Z" class="cls-7" style="fill: rgb(164, 243, 234);"/><path d="M 129.349996 102.309998 A 1.01 1.01 0 0 1 128.339996 103.319998 A 1.01 1.01 0 0 1 127.329996 102.309998 A 1.01 1.01 0 0 1 128.339996 101.299998 A 1.01 1.01 0 0 1 129.349996 102.309998 Z" class="cls-7" style="fill: rgb(164, 243, 234);"/><path d="M 134.58203125 182.99508666992188" style="fill: rgb(214, 214, 214); fill-opacity: 1; stroke: rgb(255, 255, 255); stroke-opacity: 1; stroke-width: 1; paint-order: fill;"/><path d="M 88.71703338623047 165.15869140625" style="fill: rgb(214, 214, 214); fill-opacity: 1; stroke: rgb(255, 255, 255); stroke-opacity: 1; stroke-width: 1; paint-order: fill;"/><path d="M 44.12606430053711 145.1989288330078 L 44.12606430053711 145.1989288330078" style="fill: rgb(143, 213, 251); fill-opacity: 1; stroke: rgb(0, 0, 0); stroke-opacity: 1; stroke-width: 0; paint-order: fill;"/><path d="M 163.0353240966797 141.80152893066406" style="fill: rgb(16, 155, 248); fill-opacity: 1; stroke: rgb(0, 0, 0); stroke-opacity: 1; stroke-width: 0; paint-order: fill;"/><path d="M 204.2288818359375 132.45864868164062 L 204.2288818359375 132.45864868164062" style="fill: rgb(16, 155, 248); fill-opacity: 1; stroke: rgb(0, 0, 0); stroke-opacity: 1; stroke-width: 0; paint-order: fill;"/></g><path d="M 210.539993 179.720001 H 232.469994 V 201.650002 H 210.539993 V 179.720001 Z" id="post_it" data-name="post it" class="cls-10" style="fill: rgb(244, 100, 95);"/><g id="post_it-2" data-name="post it"><path d="M 102.599998 179.720001 H 124.529999 V 201.650002 H 102.599998 V 179.720001 Z" class="cls-9" style="fill: rgb(255, 210, 46);"/><path d="M 105.330002 182.550003 H 121.500002 V 184.050003 H 105.330002 V 182.550003 Z" class="cls-3" style="fill: rgb(214, 214, 214);"/><path d="M 105.330002 186.779999 H 121.500002 V 188.279999 H 105.330002 V 186.779999 Z" class="cls-3" style="fill: rgb(214, 214, 214);"/><path d="M 105.330002 191.020004 H 113.560001 V 192.520004 H 105.330002 V 191.020004 Z" class="cls-3" style="fill: rgb(214, 214, 214);"/></g><g id="mug"><path class="cls-7" d="M74.53,182.34a4.8,4.8,0,0,0-3.42-1.42H67.22v-7.85H38.91V199.9a7.76,7.76,0,0,0,1.52,4.73,4.67,4.67,0,0,0,3.67,2H62a4.67,4.67,0,0,0,3.68-2,7.55,7.55,0,0,0,1.46-4h3.95a4.83,4.83,0,0,0,4.83-4.84V185.76A4.81,4.81,0,0,0,74.53,182.34Zm-1.34,13.5a2.09,2.09,0,0,1-.61,1.47,2.06,2.06,0,0,1-1.47.61H67.22V183.68h3.89a2.07,2.07,0,0,1,2.07,2.07v10.08Z" style="fill: rgb(255, 255, 255); stroke: rgb(214, 214, 214);"/><path d="M 38.91 177.960007 H 67.209999 V 180.920007 H 38.91 V 177.960007 Z" class="cls-9" style="fill: rgb(255, 201, 65); stroke: rgb(214, 214, 214);"/><path class="cls-9" d="M38.54,209.93h29a3.34,3.34,0,0,0,3.54-3.17v-0.19H35A3.4,3.4,0,0,0,38.54,209.93Z" style="fill: rgb(255, 201, 65); stroke: rgb(214, 214, 214); stroke-opacity: 0; stroke-width: 0;"/></g><g id="folder" transform="matrix(1, 0, 0, 1, 0, -18)"><path d="M 24.24 58.939999 H 40.74 V 115.549999 H 24.24 V 58.939999 Z" class="cls-9" style="fill: rgb(255, 210, 46);"/><path d="M 27.540001 63.439999 H 37.450001 V 95.689999 H 27.540001 V 63.439999 Z" class="cls-7" style="fill: rgb(255, 255, 255);"/><path d="M 37.450002 106.230003 A 4.96 4.96 0 0 1 32.490002 111.190003 A 4.96 4.96 0 0 1 27.530002 106.230003 A 4.96 4.96 0 0 1 32.490002 101.270003 A 4.96 4.96 0 0 1 37.450002 106.230003 Z" class="cls-6" style="fill: rgb(214, 214, 214);"/><path class="cls-7" d="M32.49,103.28a3,3,0,1,1-3,3,3,3,0,0,1,3-3m0-2a5,5,0,1,0,5,5,5,5,0,0,0-5-5h0Z" style="fill: rgb(255, 255, 255);"/><path d="M 29.25 66.360001 H 36 V 66.940001 H 29.25 V 66.360001 Z" class="cls-2" style="fill: rgb(221, 221, 221);"/><path d="M 29.25 68.360001 H 36 V 68.940001 H 29.25 V 68.360001 Z" class="cls-2" style="fill: rgb(221, 221, 221);"/><path d="M 29.25 70.360001 H 36 V 70.940001 H 29.25 V 70.360001 Z" class="cls-2" style="fill: rgb(221, 221, 221);"/><path d="M 29.25 72.360001 H 36 V 72.940001 H 29.25 V 72.360001 Z" class="cls-2" style="fill: rgb(221, 221, 221);"/><path d="M 29.25 74.360001 H 36 V 74.940001 H 29.25 V 74.360001 Z" class="cls-2" style="fill: rgb(221, 221, 221);"/><path d="M 29.25 76.360001 H 36 V 76.940001 H 29.25 V 76.360001 Z" class="cls-2" style="fill: rgb(221, 221, 221);"/><path d="M 29.25 78.360001 H 36 V 78.940001 H 29.25 V 78.360001 Z" class="cls-2" style="fill: rgb(221, 221, 221);"/><path d="M 29.25 80.360001 H 36 V 80.940001 H 29.25 V 80.360001 Z" class="cls-2" style="fill: rgb(221, 221, 221);"/><path d="M 89.5663833618164 202.10549926757812" style="fill: rgb(255, 210, 46); fill-opacity: 1; stroke: rgb(0, 0, 0); stroke-opacity: 1; stroke-width: 0; paint-order: fill;"/></g><g id="calendar" transform="matrix(1, 0, 0, 1, 0, -20)"><path d="M 251.570007 71.989998 H 315.660004 V 124.179996 H 251.570007 V 71.989998 Z" class="cls-7" style="fill: rgb(255, 255, 255); stroke: rgb(214, 214, 214);"/><path d="M 251.570007 58.939999 H 315.660004 V 71.989999 H 251.570007 V 58.939999 Z" class="cls-10" style="fill: rgb(244, 100, 95);"/><path class="cls-6" d="M284.11,97.65H257.48v20.14h52.63V97.65h-26Zm25.33,6.48h-5.81v-5.8h5.81v5.8Zm-25.27.68H290v5.81h-5.81v-5.81Zm6.49,0h5.81v5.81h-5.81v-5.81Zm5.81-.68h-5.81v-5.8h5.81v5.8Zm0.68-5.8h5.81v5.8h-5.81v-5.8Zm-0.68,13v5.81h-5.81v-5.81h5.81Zm0.68,0h5.81v5.81h-5.81v-5.81Zm0-.68v-5.81h5.81v5.81h-5.81Zm6.49-5.81h5.81v5.81h-5.81v-5.81ZM290,98.33v5.8h-5.81v-5.8H290Zm-25.33,6.48h5.81v5.81h-5.81v-5.81ZM264,110.63h-5.81v-5.81H264v5.81Zm6.48-6.49h-5.81v-5.8h5.81v5.8Zm0.68-5.8h5.81v5.8h-5.81v-5.8Zm-0.68,13v5.81h-5.81v-5.81h5.81Zm0.68,0h5.81v5.81h-5.81v-5.81Zm0-.68v-5.81h5.81v5.81h-5.81Zm6.49-5.81h5.81v5.81h-5.81v-5.81Zm5.81-.68h-5.81v-5.8h5.81v5.8ZM264,98.33v5.8h-5.81v-5.8H264Zm-5.81,13H264v5.81h-5.81v-5.81Zm19.46,5.81v-5.81h5.81v5.81h-5.81Zm6.54-5.81H290v5.81h-5.81v-5.81Zm19.46,5.81v-5.81h5.81v5.81h-5.81Z" style="fill: rgb(214, 214, 214);"/><path d="M 257.480011 79.489998 H 310.110012 V 84.359998 H 257.480011 V 79.489998 Z" class="cls-3" style="fill: rgb(42, 66, 81);"/><path d="M 257.480011 87.599998 H 310.110012 V 92.469998 H 257.480011 V 87.599998 Z" class="cls-2" style="fill: rgb(214, 214, 214);"/><path d="M 261.49999 65.449997 A 2.01 2.01 0 0 1 259.48999 67.459997 A 2.01 2.01 0 0 1 257.47999 65.449997 A 2.01 2.01 0 0 1 259.48999 63.439997 A 2.01 2.01 0 0 1 261.49999 65.449997 Z" class="cls-2" style="fill: rgb(255, 255, 255);"/><path d="M 310.119985 65.449997 A 2.01 2.01 0 0 1 308.109985 67.459997 A 2.01 2.01 0 0 1 306.099985 65.449997 A 2.01 2.01 0 0 1 308.109985 63.439997 A 2.01 2.01 0 0 1 310.119985 65.449997 Z" class="cls-2" style="fill: rgb(255, 255, 255);"/><path d="M 325.2615051269531 143.07554626464844" style="fill: rgb(214, 214, 214); fill-opacity: 1; stroke: rgb(0, 0, 0); stroke-opacity: 1; stroke-width: 0; paint-order: fill;"/></g><g id="cactus"><path d="M 266.339996 177.130005 H 300.319996 V 183.100005 H 266.339996 V 177.130005 Z" class="cls-3" style="fill: rgb(42, 66, 81);"/><path d="M 268.3999938964844 183.10000610351562 L 272.7300109863281 209.6699981689453 L 294.760009765625 209.6699981689453 L 298.05999755859375 183.10000610351562 L 268.3999938964844 183.10000610351562 Z" class="cls-10" style="fill: rgb(244, 100, 95);"/><path class="cls-12" d="M272.71,156.67a7.44,7.44,0,0,0-14.12,3.28c0,0.22,0,.44,0,0.66h0l0,0.17v0.07c0,0.15.05,0.36,0.11,0.64l0,0.23c0.5,2.18,2.4,7.46,9.37,14.36a11.39,11.39,0,0,0,1.09,1.07h8.46S276,161.93,272.71,156.67Z" style="fill: rgb(95, 195, 159);"/><path class="cls-12" d="M294.89,156.67A7.44,7.44,0,0,1,309,159.94c0,0.22,0,.44,0,0.66h0l0,0.17v0.07c0,0.15-.05.36-0.11,0.64l0,0.23c-0.5,2.18-2.4,7.46-9.37,14.36a11.39,11.39,0,0,1-1.09,1.07h-8.45S291.64,161.93,294.89,156.67Z" style="fill: rgb(95, 195, 159);"/><path class="cls-12" d="M283.9,177.13h2.53c7.81-21.88,7.69-34.47,7.69-34.7a10.22,10.22,0,0,0-20.43,0s-1.68,8.75,7.58,34.7h2.53" style="fill: rgb(95, 195, 159);"/></g><path id="mouse" class="cls-6" d="M250.88,201.5a13.5,13.5,0,0,0-12.53,8.5h25.06A13.5,13.5,0,0,0,250.88,201.5Z" style="fill: rgb(214, 214, 214);"/><g id="post_it-3" data-name="post it" transform="matrix(1, 0, 0, 1, 0, -11)"><path d="M 57.45000076293945 167.85000610351562 L 36.77000045776367 167.88999938964844 L 36.689998626708984 132.83999633789062 L 69.5199966430664 132.75999450683594 L 69.62999725341797 157.11000061035156 L 57.45000076293945 167.85000610351562 Z" class="cls-12" style="fill: rgb(16, 155, 248);"/><path d="M 57.45000076293945 167.85000610351562 L 69.62999725341797 157.11000061035156 L 57.43000030517578 157.13999938964844 L 57.45000076293945 167.85000610351562 Z" class="cls-13" style="fill: rgb(221, 221, 221); mix-blend-mode: multiply;"/></g></g><g id="g-1" transform="matrix(1, 0, 0, 1, 19.704898834228516, -28.72018814086914)"><path d="M 24.24 58.939999 H 40.74 V 115.549999 H 24.24 V 58.939999 Z" class="cls-9" style="fill: rgb(244, 100, 95);"/><path d="M 27.540001 63.439999 H 37.450001 V 95.689999 H 27.540001 V 63.439999 Z" class="cls-7" style="fill: rgb(255, 255, 255);"/><path d="M 37.450002 106.230003 A 4.96 4.96 0 0 1 32.490002 111.190003 A 4.96 4.96 0 0 1 27.530002 106.230003 A 4.96 4.96 0 0 1 32.490002 101.270003 A 4.96 4.96 0 0 1 37.450002 106.230003 Z" class="cls-6" style="fill: rgb(214, 214, 214);"/><path class="cls-7" d="M32.49,103.28a3,3,0,1,1-3,3,3,3,0,0,1,3-3m0-2a5,5,0,1,0,5,5,5,5,0,0,0-5-5h0Z" style="fill: rgb(255, 255, 255);"/><path d="M 29.25 66.360001 H 36 V 66.940001 H 29.25 V 66.360001 Z" class="cls-2" style="fill: rgb(221, 221, 221);"/><path d="M 29.25 68.360001 H 36 V 68.940001 H 29.25 V 68.360001 Z" class="cls-2" style="fill: rgb(221, 221, 221);"/><path d="M 29.25 70.360001 H 36 V 70.940001 H 29.25 V 70.360001 Z" class="cls-2" style="fill: rgb(221, 221, 221);"/><path d="M 29.25 72.360001 H 36 V 72.940001 H 29.25 V 72.360001 Z" class="cls-2" style="fill: rgb(221, 221, 221);"/><path d="M 29.25 74.360001 H 36 V 74.940001 H 29.25 V 74.360001 Z" class="cls-2" style="fill: rgb(221, 221, 221);"/><path d="M 29.25 76.360001 H 36 V 76.940001 H 29.25 V 76.360001 Z" class="cls-2" style="fill: rgb(221, 221, 221);"/><path d="M 29.25 78.360001 H 36 V 78.940001 H 29.25 V 78.360001 Z" class="cls-2" style="fill: rgb(221, 221, 221);"/><path d="M 29.25 80.360001 H 36 V 80.940001 H 29.25 V 80.360001 Z" class="cls-2" style="fill: rgb(221, 221, 221);"/><path d="M 52.44977569580078 107.12296295166016 L 52.44977569580078 107.12296295166016" style="fill: rgb(214, 214, 214); fill-opacity: 1; stroke: rgb(0, 0, 0); stroke-opacity: 1; stroke-width: 0; paint-order: fill;"/></g></svg>