<?xml version="1.0" encoding="utf-8"?>
<svg id="master-artboard" viewBox="0 0 335.986 235.19" version="1.1" xmlns="http://www.w3.org/2000/svg" x="0px" y="0px" width="335.9859924316406px" height="235.19000244140625px" enable-background="new 0 0 335.986 235.19" xmlns:xlink="http://www.w3.org/1999/xlink">

<path fill="#514766" d="M278.345,79.148c0.125-1.238,0.189-2.459,0.189-3.642c0-1.184-0.064-2.405-0.189-3.642l6.586-3.659&#10;&#9;&#9;l1.193-0.663l-0.285-1.336c-0.318-1.501-0.718-2.992-1.182-4.431l-0.423-1.301l-1.364,0.025l-7.53,0.123&#10;&#9;&#9;c-0.995-2.211-2.217-4.323-3.649-6.307l3.871-6.455l0.701-1.174l-0.916-1.016c-1.023-1.133-2.118-2.223-3.246-3.241l-1.015-0.917&#10;&#9;&#9;l-1.172,0.703l-6.452,3.869c-1.979-1.427-4.095-2.652-6.309-3.649l0.125-7.529l0.021-1.368l-1.298-0.421&#10;&#9;&#9;c-1.43-0.46-2.919-0.857-4.431-1.181l-1.336-0.284l-0.665,1.192l-3.659,6.586c-1.232-0.129-2.452-0.191-3.641-0.191&#10;&#9;&#9;c-1.188,0-2.407,0.062-3.641,0.191l-3.658-6.586l-0.662-1.192l-1.334,0.284c-1.486,0.313-2.979,0.713-4.434,1.184l-1.3,0.422&#10;&#9;&#9;l0.023,1.364l0.124,7.528c-2.214,0.998-4.33,2.221-6.311,3.65l-6.451-3.869l-1.174-0.703l-1.017,0.917&#10;&#9;&#9;c-1.132,1.021-2.22,2.111-3.243,3.241l-0.914,1.016l0.702,1.174l3.87,6.455c-1.431,1.979-2.653,4.093-3.653,6.307l-7.526-0.123&#10;&#9;&#9;l-1.367-0.025l-0.42,1.301c-0.467,1.443-0.867,2.933-1.184,4.434l-0.279,1.336l1.189,0.66l6.584,3.659&#10;&#9;&#9;c-0.125,1.229-0.189,2.449-0.189,3.642s0.064,2.413,0.189,3.642l-6.586,3.659l-1.195,0.664l0.287,1.338&#10;&#9;&#9;c0.321,1.502,0.718,2.99,1.182,4.427l0.422,1.3l1.367-0.023l7.526-0.124c1.003,2.214,2.224,4.328,3.653,6.308l-3.873,6.452&#10;&#9;&#9;l-0.701,1.175l0.916,1.016c1.031,1.142,2.123,2.233,3.245,3.242l1.017,0.916l1.172-0.701l6.451-3.87&#10;&#9;&#9;c1.978,1.429,4.094,2.648,6.311,3.65l-0.124,7.529l-0.023,1.369l1.3,0.418c1.441,0.469,2.934,0.867,4.434,1.184l1.334,0.281&#10;&#9;&#9;l0.662-1.192l3.658-6.584c1.237,0.123,2.457,0.189,3.641,0.189c1.188,0,2.408-0.064,3.641-0.192l3.659,6.587l0.662,1.194&#10;&#9;&#9;l1.337-0.283c1.498-0.317,2.986-0.715,4.433-1.18l1.298-0.422l-0.021-1.369l-0.125-7.529c2.217-1.002,4.329-2.222,6.309-3.65&#10;&#9;&#9;l6.452,3.87l1.172,0.701l1.015-0.916c1.133-1.021,2.225-2.111,3.246-3.245l0.916-1.017l-0.701-1.171l-3.871-6.452&#10;&#9;&#9;c1.426-1.978,2.649-4.092,3.649-6.308l7.53,0.124l1.367,0.023l0.422-1.3c0.462-1.432,0.861-2.922,1.18-4.433l0.285-1.334&#10;&#9;&#9;l-1.193-0.664L278.345,79.148z M242.271,86.267c-5.934,0-10.76-4.825-10.76-10.759c0-5.935,4.826-10.762,10.76-10.762&#10;&#9;&#9;c5.937,0,10.762,4.827,10.762,10.762C253.032,81.441,248.207,86.267,242.271,86.267z" transform="matrix(1, 0, 0, 1, 5.132668096100957, -7.10677200288702)" style="fill: rgb(16, 155, 248);"/>

<path fill="#514766" d="M149.496,111.649c0.2-1.989,0.304-3.949,0.304-5.848c0-1.9-0.104-3.863-0.304-5.849l10.575-5.875&#10;&#9;&#9;l1.916-1.064l-0.457-2.146c-0.512-2.41-1.152-4.806-1.897-7.115l-0.679-2.088l-2.191,0.04l-12.092,0.198&#10;&#9;&#9;c-1.599-3.551-3.56-6.942-5.861-10.128l6.217-10.365l1.126-1.885l-1.47-1.631c-1.645-1.818-3.402-3.568-5.213-5.204l-1.629-1.473&#10;&#9;&#9;l-1.882,1.129l-10.361,6.213c-3.179-2.291-6.576-4.26-10.13-5.859l0.2-12.091l0.034-2.197l-2.084-0.676&#10;&#9;&#9;c-2.295-0.738-4.687-1.377-7.114-1.896l-2.146-0.456l-1.067,1.915l-5.876,10.575c-1.979-0.207-3.938-0.308-5.846-0.308&#10;&#9;&#9;s-3.866,0.101-5.846,0.308L79.85,37.299l-1.064-1.915l-2.143,0.456c-2.386,0.503-4.784,1.146-7.119,1.901l-2.087,0.678l0.037,2.19&#10;&#9;&#9;l0.199,12.089C64.118,54.3,60.72,56.265,57.54,58.56l-10.359-6.213l-1.884-1.129l-1.634,1.473c-1.817,1.639-3.564,3.39-5.207,5.204&#10;&#9;&#9;l-1.468,1.631l1.128,1.885l6.214,10.365c-2.298,3.177-4.261,6.572-5.866,10.128l-12.086-0.198l-2.195-0.04l-0.674,2.088&#10;&#9;&#9;c-0.749,2.318-1.394,4.709-1.9,7.12l-0.449,2.145l1.91,1.061l10.572,5.875c-0.2,1.976-0.304,3.934-0.304,5.849&#10;&#9;&#9;c0,1.914,0.104,3.875,0.304,5.848l-10.576,5.875l-1.919,1.066l0.462,2.149c0.516,2.412,1.152,4.801,1.896,7.107l0.678,2.088&#10;&#9;&#9;l2.195-0.037l12.086-0.199c1.61,3.555,3.57,6.951,5.866,10.129l-6.22,10.359l-1.126,1.889l1.472,1.629&#10;&#9;&#9;c1.656,1.834,3.409,3.588,5.211,5.207l1.632,1.471l1.882-1.125l10.359-6.215c3.176,2.293,6.573,4.252,10.133,5.861l-0.199,12.09&#10;&#9;&#9;l-0.037,2.197l2.087,0.67c2.315,0.754,4.711,1.395,7.119,1.902l2.143,0.451l1.064-1.912l5.874-10.574&#10;&#9;&#9;c1.986,0.197,3.945,0.305,5.846,0.305c1.907,0,3.866-0.104,5.846-0.309l5.876,10.578l1.062,1.916l2.147-0.455&#10;&#9;&#9;c2.406-0.508,4.795-1.148,7.117-1.895l2.084-0.678l-0.034-2.197l-0.2-12.09c3.56-1.609,6.951-3.568,10.13-5.861l10.361,6.215&#10;&#9;&#9;l1.882,1.125l1.629-1.471c1.819-1.641,3.572-3.391,5.213-5.211l1.47-1.633l-1.126-1.881l-6.217-10.359&#10;&#9;&#9;c2.291-3.176,4.256-6.572,5.861-10.129l12.092,0.199l2.195,0.037l0.678-2.088c0.742-2.297,1.383-4.691,1.895-7.117l0.457-2.143&#10;&#9;&#9;l-1.916-1.064L149.496,111.649z M91.569,123.08c-9.527,0-17.278-7.749-17.278-17.277c0-9.529,7.751-17.28,17.278-17.28&#10;&#9;&#9;c9.533,0,17.279,7.751,17.279,17.28C108.849,115.331,101.103,123.08,91.569,123.08z" transform="matrix(1, 0, 0, 1, 9.870511168859991, -10.660157385023815)" style="fill: rgb(16, 155, 248);"/><g transform="matrix(1, 0, 0, 1, 0, 0)">
		<path fill-rule="evenodd" clip-rule="evenodd" fill="#3D3D3D" d="M98.134,168.594V81.332c0-4.464,3.616-8.083,8.078-8.083h126.043&#10;&#9;&#9;&#9;c4.461,0,8.08,3.619,8.08,8.083v87.262c0,4.459-3.619,8.078-8.08,8.078H106.212C101.75,176.672,98.134,173.053,98.134,168.594z"/>
	</g><path fill-rule="evenodd" clip-rule="evenodd" fill="#E8E9E8" d="M105.325,131.225c0-0.49,0.395-0.893,0.887-0.893&#10;&#9;&#9;&#9;c0.489,0,0.889,0.402,0.889,0.893c0,0.492-0.399,0.889-0.889,0.889C105.72,132.113,105.325,131.717,105.325,131.225z" transform="matrix(1, 0, 0, 1, 0, 0)"/><path fill-rule="evenodd" clip-rule="evenodd" fill="#E8E9E8" d="M105.325,126.779v-8.885c0-0.494,0.395-0.895,0.887-0.895&#10;&#9;&#9;&#9;c0.489,0,0.889,0.4,0.889,0.895v8.885c0,0.492-0.399,0.891-0.889,0.891C105.72,127.67,105.325,127.271,105.325,126.779z" transform="matrix(1, 0, 0, 1, 0, 0)"/><path fill-rule="evenodd" clip-rule="evenodd" fill="#E8E9E8" d="M229.359,124.963c0-2.037,1.648-3.686,3.683-3.686&#10;&#9;&#9;&#9;c2.035,0,3.686,1.648,3.686,3.686c0,2.031-1.65,3.684-3.686,3.684C231.008,128.646,229.359,126.994,229.359,124.963z" transform="matrix(1, 0, 0, 1, 0, 0)"/><path fill-rule="evenodd" clip-rule="evenodd" fill="#86C7E2" d="M112.675,171.652V78.271H225.79v93.381H112.675z" transform="matrix(1, 0, 0, 1, 0, 0)"/>
<path fill-rule="evenodd" clip-rule="evenodd" fill="#3D3D3D" d="M98.134,168.594V81.332c0-4.464,3.616-8.083,8.078-8.083h126.043&#10;&#9;&#9;c4.461,0,8.08,3.619,8.08,8.083v87.262c0,4.459-3.619,8.078-8.08,8.078H106.212C101.75,176.672,98.134,173.053,98.134,168.594z" transform="matrix(1, 0, 0, 1, 0, 0)" style="fill: rgb(43, 90, 95);"/>
<path fill-rule="evenodd" clip-rule="evenodd" fill="#E8E9E8" d="M105.325,131.225c0-0.49,0.395-0.893,0.887-0.893&#10;&#9;&#9;c0.489,0,0.889,0.402,0.889,0.893c0,0.492-0.399,0.889-0.889,0.889C105.72,132.113,105.325,131.717,105.325,131.225z" transform="matrix(1, 0, 0, 1, 0, 0)" style="fill: rgb(255, 255, 255);"/>
<path fill-rule="evenodd" clip-rule="evenodd" fill="#E8E9E8" d="M105.325,126.779v-8.885c0-0.494,0.395-0.895,0.887-0.895&#10;&#9;&#9;c0.489,0,0.889,0.4,0.889,0.895v8.885c0,0.492-0.399,0.891-0.889,0.891C105.72,127.67,105.325,127.271,105.325,126.779z" transform="matrix(1, 0, 0, 1, 0, 0)" style="fill: rgb(255, 255, 255);"/>
<path fill-rule="evenodd" clip-rule="evenodd" fill="#E8E9E8" d="M229.359,124.963c0-2.037,1.648-3.686,3.683-3.686&#10;&#9;&#9;c2.035,0,3.686,1.648,3.686,3.686c0,2.031-1.65,3.684-3.686,3.684C231.008,128.646,229.359,126.994,229.359,124.963z" transform="matrix(1, 0, 0, 1, 0, 0)" style="fill: rgb(255, 255, 255);"/>
<path fill-rule="evenodd" clip-rule="evenodd" fill="#86C7E2" d="M112.675,171.652V78.271H225.79v93.381H112.675z" transform="matrix(1, 0, 0, 1, 0, 0)" style="fill: rgb(183, 232, 243);"/>
<path fill-rule="evenodd" clip-rule="evenodd" fill="#FFFFFF" d="M225.79,171.652H112.675V78.271" transform="matrix(1, 0, 0, 1, 0, 0)"/>
<path fill="#FFFFFF" d="M289.628,20.431c-2.009,0-4.019,0-6.028,0" transform="matrix(1, 0, 0, 1, 0, 0)"/><path fill="#FFFFFF" d="M289.628,20.931H283.6c-0.276,0-0.5-0.224-0.5-0.5s0.224-0.5,0.5-0.5h6.028c0.276,0,0.5,0.224,0.5,0.5&#10;&#9;&#9;S289.904,20.931,289.628,20.931z" transform="matrix(1, 0, 0, 1, 0, 0)" style="fill: rgb(16, 155, 248);"/>
<path fill="#FFFFFF" d="M308.476,20.431c-4.376,0-8.752,0-13.128,0" transform="matrix(1, 0, 0, 1, 0, 0)"/><path fill="#FFFFFF" d="M308.476,20.931h-13.128c-0.276,0-0.5-0.224-0.5-0.5s0.224-0.5,0.5-0.5h13.128c0.276,0,0.5,0.224,0.5,0.5&#10;&#9;&#9;S308.752,20.931,308.476,20.931z" transform="matrix(1, 0, 0, 1, 0, 0)" style="fill: rgb(16, 155, 248);"/>
<path fill="#FFFFFF" d="M312.084,28.991c-12.305,0-24.61,0-36.914,0" transform="matrix(1, 0, 0, 1, 0, 0)"/><path fill="#FFFFFF" d="M312.084,29.491H275.17c-0.276,0-0.5-0.224-0.5-0.5s0.224-0.5,0.5-0.5h36.914c0.276,0,0.5,0.224,0.5,0.5&#10;&#9;&#9;S312.36,29.491,312.084,29.491z" transform="matrix(1, 0, 0, 1, 0, 0)" style="fill: rgb(16, 155, 248);"/>
<path fill="#FFFFFF" d="M50.892,217.057c2.009,0,4.019,0,6.028,0" transform="matrix(1, 0, 0, 1, 0, 0)"/><path fill="#FFFFFF" d="M56.92,217.557h-6.028c-0.276,0-0.5-0.224-0.5-0.5s0.224-0.5,0.5-0.5h6.028c0.276,0,0.5,0.224,0.5,0.5&#10;&#9;&#9;S57.196,217.557,56.92,217.557z" transform="matrix(1, 0, 0, 1, 0, 0)" style="fill: rgb(16, 155, 248);"/>
<path fill="#FFFFFF" d="M32.044,217.057c4.376,0,8.752,0,13.128,0" transform="matrix(1, 0, 0, 1, 0, 0)"/><path fill="#FFFFFF" d="M45.172,217.557H32.044c-0.276,0-0.5-0.224-0.5-0.5s0.224-0.5,0.5-0.5h13.128c0.276,0,0.5,0.224,0.5,0.5&#10;&#9;&#9;S45.448,217.557,45.172,217.557z" transform="matrix(1, 0, 0, 1, 0, 0)" style="fill: rgb(16, 155, 248);"/>
<path fill="#FFFFFF" d="M17.534,208.496c10.612,0,21.227,0,31.838,0" transform="matrix(1, 0, 0, 1, 0, 0)"/><path fill="#FFFFFF" d="M49.372,208.996H17.534c-0.276,0-0.5-0.224-0.5-0.5s0.224-0.5,0.5-0.5h31.838c0.276,0,0.5,0.224,0.5,0.5&#10;&#9;&#9;S49.648,208.996,49.372,208.996z" transform="matrix(1, 0, 0, 1, 0, 0)" style="fill: rgb(16, 155, 248);"/>
<path fill="#FFFFFF" d="M214.147,13.682h-24.439c-0.276,0-0.5-0.224-0.5-0.5s0.224-0.5,0.5-0.5h24.439c0.276,0,0.5,0.224,0.5,0.5&#10;&#9;&#9;S214.424,13.682,214.147,13.682z" transform="matrix(1, 0, 0, 1, 0, 0)" style="fill: rgb(16, 155, 248);"/><path d="M 214.147003 13.182 L 189.707993 13.182" fill="#FFFFFF" transform="matrix(1, 0, 0, 1, 0, 0)"/>
<path fill="#FFFFFF" d="M174.884,220.084c-2.009,0-4.019,0-6.028,0" transform="matrix(1, 0, 0, 1, 0, 0)"/><path fill="#FFFFFF" d="M174.884,220.584h-6.028c-0.276,0-0.5-0.224-0.5-0.5s0.224-0.5,0.5-0.5h6.028c0.276,0,0.5,0.224,0.5,0.5&#10;&#9;&#9;S175.16,220.584,174.884,220.584z" transform="matrix(1, 0, 0, 1, 0, 0)" style="fill: rgb(16, 155, 248);"/>
<path fill="#FFFFFF" d="M193.731,220.084c-4.376,0-8.752,0-13.128,0" transform="matrix(1, 0, 0, 1, 0, 0)"/><path fill="#FFFFFF" d="M193.731,220.584h-13.128c-0.276,0-0.5-0.224-0.5-0.5s0.224-0.5,0.5-0.5h13.128c0.276,0,0.5,0.224,0.5,0.5&#10;&#9;&#9;S194.008,220.584,193.731,220.584z" transform="matrix(1, 0, 0, 1, 0, 0)" style="fill: rgb(16, 155, 248);"/>
<path fill="#FFFFFF" d="M193.731,206.965c-4.376,0-8.752,0-13.128,0" transform="matrix(1, 0, 0, 1, 0, 0)"/><path fill="#FFFFFF" d="M193.731,207.465h-13.128c-0.276,0-0.5-0.224-0.5-0.5s0.224-0.5,0.5-0.5h13.128c0.276,0,0.5,0.224,0.5,0.5&#10;&#9;&#9;S194.008,207.465,193.731,207.465z" transform="matrix(1, 0, 0, 1, 0, 0)" style="fill: rgb(16, 155, 248);"/>
<path d="M 181.076004 214.75 L 156.636993 214.75" fill="#FFFFFF" transform="matrix(1, 0, 0, 1, 0, 0)"/><path fill="#FFFFFF" d="M181.076,215.25h-24.439c-0.276,0-0.5-0.224-0.5-0.5s0.224-0.5,0.5-0.5h24.439c0.276,0,0.5,0.224,0.5,0.5&#10;&#9;&#9;S181.353,215.25,181.076,215.25z" transform="matrix(1, 0, 0, 1, 0, 0)" style="fill: rgb(16, 155, 248);"/>
<path fill="#FFFFFF" d="M49.072,28.25c-2.009,0-4.019,0-6.028,0" transform="matrix(1, 0, 0, 1, 0, 0)"/><path fill="#FFFFFF" d="M49.072,28.75h-6.028c-0.276,0-0.5-0.224-0.5-0.5s0.224-0.5,0.5-0.5h6.028c0.276,0,0.5,0.224,0.5,0.5&#10;&#9;&#9;S49.349,28.75,49.072,28.75z" transform="matrix(1, 0, 0, 1, 0, 0)" style="fill: rgb(16, 155, 248);"/>
<path fill="#FFFFFF" d="M67.92,28.25c-4.376,0-8.752,0-13.128,0" transform="matrix(1, 0, 0, 1, 0, 0)"/><path fill="#FFFFFF" d="M67.92,28.75H54.792c-0.276,0-0.5-0.224-0.5-0.5s0.224-0.5,0.5-0.5H67.92c0.276,0,0.5,0.224,0.5,0.5&#10;&#9;&#9;S68.196,28.75,67.92,28.75z" transform="matrix(1, 0, 0, 1, 0, 0)" style="fill: rgb(16, 155, 248);"/>
<path d="M 55.264999 22.915001 L 30.825001 22.915001" fill="#FFFFFF" transform="matrix(1, 0, 0, 1, 0, 0)"/><path fill="#FFFFFF" d="M55.265,23.415H30.825c-0.276,0-0.5-0.224-0.5-0.5s0.224-0.5,0.5-0.5h24.439c0.276,0,0.5,0.224,0.5,0.5&#10;&#9;&#9;S55.541,23.415,55.265,23.415z" transform="matrix(1, 0, 0, 1, 0, 0)" style="fill: rgb(16, 155, 248);"/>
<path fill="#FFFFFF" d="M318.969,208.312c-4.376,0-8.752,0-13.128,0" transform="matrix(1, 0, 0, 1, 0, 0)"/><path fill="#FFFFFF" d="M318.969,208.812h-13.128c-0.276,0-0.5-0.224-0.5-0.5s0.224-0.5,0.5-0.5h13.128c0.276,0,0.5,0.224,0.5,0.5&#10;&#9;&#9;S319.245,208.812,318.969,208.812z" transform="matrix(1, 0, 0, 1, 0, 0)" style="fill: rgb(16, 155, 248);"/>
<path fill="#FFFFFF" d="M321.951,215.891c-3.794,0-7.588,0-11.382,0" transform="matrix(1, 0, 0, 1, 0, 0)"/><path fill="#FFFFFF" d="M321.951,216.391h-11.382c-0.276,0-0.5-0.224-0.5-0.5s0.224-0.5,0.5-0.5h11.382c0.276,0,0.5,0.224,0.5,0.5&#10;&#9;&#9;S322.228,216.391,321.951,216.391z" transform="matrix(1, 0, 0, 1, 0, 0)" style="fill: rgb(16, 155, 248);"/>
<path d="M 306.312012 216.095993 L 289.627991 216.095993" fill="#FFFFFF" transform="matrix(1, 0, 0, 1, 0, 0)"/><path fill="#FFFFFF" d="M306.312,216.596h-16.685c-0.276,0-0.5-0.224-0.5-0.5s0.224-0.5,0.5-0.5h16.685c0.276,0,0.5,0.224,0.5,0.5&#10;&#9;&#9;S306.589,216.596,306.312,216.596z" transform="matrix(1, 0, 0, 1, 0, 0)" style="fill: rgb(16, 155, 248);"/>


<path d="M 261.315002 50.768002 H 317.941002 V 123.186001 H 261.315002 V 50.768002 Z" fill="#FFFFFF" transform="matrix(1, 0, 0, 1, 0, 0)" style="stroke: rgb(214, 214, 214);"/>
<path d="M 261.315002 50.768002 H 317.941002 V 59.366001 H 261.315002 V 50.768002 Z" fill="#08D0DB" transform="matrix(1, 0, 0, 1, 0, 0)" style="fill: rgb(43, 90, 95);"/>
<path d="M 271.16001 54.862 A 1.956 1.956 0 0 1 269.20401 56.817999 A 1.956 1.956 0 0 1 267.24801 54.862 A 1.956 1.956 0 0 1 269.20401 52.906 A 1.956 1.956 0 0 1 271.16001 54.862 Z" fill="#ADFDF4" transform="matrix(1, 0, 0, 1, 0, 0)"/>
<path d="M 278.202009 54.862 A 1.955 1.955 0 0 1 276.247009 56.817 A 1.955 1.955 0 0 1 274.292009 54.862 A 1.955 1.955 0 0 1 276.247009 52.906999 A 1.955 1.955 0 0 1 278.202009 54.862 Z" fill="#ADFDF4" transform="matrix(1, 0, 0, 1, 0, 0)"/>
<path d="M 285.246009 54.862 A 1.956 1.956 0 0 1 283.290009 56.817999 A 1.956 1.956 0 0 1 281.334009 54.862 A 1.956 1.956 0 0 1 283.290009 52.906 A 1.956 1.956 0 0 1 285.246009 54.862 Z" fill="#ADFDF4" transform="matrix(1, 0, 0, 1, 0, 0)"/>
<path d="M 312.290991 54.862 A 1.956 1.956 0 0 1 310.334991 56.817999 A 1.956 1.956 0 0 1 308.378991 54.862 A 1.956 1.956 0 0 1 310.334991 52.906 A 1.956 1.956 0 0 1 312.290991 54.862 Z" fill="#ADFDF4" transform="matrix(1, 0, 0, 1, 0, 0)"/>
<path d="M 261.315002 136.593994 H 317.941002 V 190.495995 H 261.315002 V 136.593994 Z" fill="#FFFFFF" transform="matrix(1, 0, 0, 1, 0, 0)" style="stroke: rgb(214, 214, 214);"/>
<path d="M 261.315002 136.593994 H 317.941002 V 145.191994 H 261.315002 V 136.593994 Z" fill="#08D0DB" transform="matrix(1, 0, 0, 1, 0, 0)" style="fill: rgb(43, 90, 95);"/>
<path d="M 271.16001 140.688004 A 1.956 1.956 0 0 1 269.20401 142.644004 A 1.956 1.956 0 0 1 267.24801 140.688004 A 1.956 1.956 0 0 1 269.20401 138.732004 A 1.956 1.956 0 0 1 271.16001 140.688004 Z" fill="#ADFDF4" transform="matrix(1, 0, 0, 1, 0, 0)"/>
<path d="M 278.202009 140.688004 A 1.955 1.955 0 0 1 276.247009 142.643004 A 1.955 1.955 0 0 1 274.292009 140.688004 A 1.955 1.955 0 0 1 276.247009 138.733003 A 1.955 1.955 0 0 1 278.202009 140.688004 Z" fill="#ADFDF4" transform="matrix(1, 0, 0, 1, 0, 0)"/>
<path d="M 285.246009 140.688004 A 1.956 1.956 0 0 1 283.290009 142.644004 A 1.956 1.956 0 0 1 281.334009 140.688004 A 1.956 1.956 0 0 1 283.290009 138.732004 A 1.956 1.956 0 0 1 285.246009 140.688004 Z" fill="#ADFDF4" transform="matrix(1, 0, 0, 1, 0, 0)"/>
<path d="M 312.290991 140.688004 A 1.956 1.956 0 0 1 310.334991 142.644004 A 1.956 1.956 0 0 1 308.378991 140.688004 A 1.956 1.956 0 0 1 310.334991 138.732004 A 1.956 1.956 0 0 1 312.290991 140.688004 Z" fill="#ADFDF4" transform="matrix(1, 0, 0, 1, 0, 0)"/>
<path d="M 21.059999 136.593994 H 77.685999 V 190.495995 H 21.059999 V 136.593994 Z" fill="#FFFFFF" transform="matrix(1, 0, 0, 1, 0, 0)" style="stroke: rgb(214, 214, 214);"/>
<path d="M 21.059999 136.593994 H 77.685999 V 145.191994 H 21.059999 V 136.593994 Z" fill="#08D0DB" transform="matrix(1, 0, 0, 1, 0, 0)" style="fill: rgb(43, 90, 95);"/>
<path d="M 30.904 140.688004 A 1.956 1.956 0 0 1 28.948 142.644004 A 1.956 1.956 0 0 1 26.992 140.688004 A 1.956 1.956 0 0 1 28.948 138.732004 A 1.956 1.956 0 0 1 30.904 140.688004 Z" fill="#ADFDF4" transform="matrix(1, 0, 0, 1, 0, 0)"/>
<path d="M 37.946001 140.688004 A 1.955 1.955 0 0 1 35.991001 142.643004 A 1.955 1.955 0 0 1 34.036001 140.688004 A 1.955 1.955 0 0 1 35.991001 138.733003 A 1.955 1.955 0 0 1 37.946001 140.688004 Z" fill="#ADFDF4" transform="matrix(1, 0, 0, 1, 0, 0)"/>
<path d="M 44.99 140.688004 A 1.956 1.956 0 0 1 43.034 142.644004 A 1.956 1.956 0 0 1 41.078 140.688004 A 1.956 1.956 0 0 1 43.034 138.732004 A 1.956 1.956 0 0 1 44.99 140.688004 Z" fill="#ADFDF4" transform="matrix(1, 0, 0, 1, 0, 0)"/>
<path d="M 72.036002 140.688004 A 1.956 1.956 0 0 1 70.080002 142.644004 A 1.956 1.956 0 0 1 68.124002 140.688004 A 1.956 1.956 0 0 1 70.080002 138.732004 A 1.956 1.956 0 0 1 72.036002 140.688004 Z" fill="#ADFDF4" transform="matrix(1, 0, 0, 1, 0, 0)"/>
<path d="M 269.20401 68.736 H 310.335011 V 71.998 H 269.20401 V 68.736 Z" fill="#C6E8ED" transform="matrix(1, 0, 0, 1, 0, 0)" style="fill: rgb(179, 218, 216);"/>
<path d="M 269.20401 99.476997 H 310.335011 V 102.738997 H 269.20401 V 99.476997 Z" fill="#C6E8ED" transform="matrix(1, 0, 0, 1, 0, 0)" style="fill: rgb(179, 218, 216);"/>
<path d="M 269.20401 107.595001 H 310.335011 V 116.206001 H 269.20401 V 107.595001 Z" fill="#C6E8ED" transform="matrix(1, 0, 0, 1, 0, 0)" style="fill: rgb(179, 218, 216);"/>
<path d="M 269.20401 75.505997 H 295.348009 V 84.522997 H 269.20401 V 75.505997 Z" fill="#209292" transform="matrix(1, 0, 0, 1, 0, 0)"/>
<path d="M 292.588013 75.505997 H 310.335012 V 84.522997 H 292.588013 V 75.505997 Z" fill="#209292" transform="matrix(1, 0, 0, 1, 0, 0)"/>
<path d="M 20.919001 51.354 H 77.545 V 123.771999 H 20.919001 V 51.354 Z" fill="#FFFFFF" transform="matrix(1, 0, 0, 1, 0, 0)" style="stroke: rgb(214, 214, 214);"/>
<path d="M 20.919001 51.354 H 77.545 V 59.95 H 20.919001 V 51.354 Z" fill="#08D0DB" transform="matrix(1, 0, 0, 1, 0, 0)" style="fill: rgb(43, 90, 95);"/>
<path d="M 30.764001 55.449001 A 1.956 1.956 0 0 1 28.808001 57.405001 A 1.956 1.956 0 0 1 26.852001 55.449001 A 1.956 1.956 0 0 1 28.808001 53.493001 A 1.956 1.956 0 0 1 30.764001 55.449001 Z" fill="#ADFDF4" transform="matrix(1, 0, 0, 1, 0, 0)"/>
<path d="M 37.804999 55.449001 A 1.955 1.955 0 0 1 35.849998 57.404001 A 1.955 1.955 0 0 1 33.894998 55.449001 A 1.955 1.955 0 0 1 35.849998 53.494001 A 1.955 1.955 0 0 1 37.804999 55.449001 Z" fill="#ADFDF4" transform="matrix(1, 0, 0, 1, 0, 0)"/>
<path d="M 44.850001 55.449001 A 1.956 1.956 0 0 1 42.894001 57.405001 A 1.956 1.956 0 0 1 40.938001 55.449001 A 1.956 1.956 0 0 1 42.894001 53.493001 A 1.956 1.956 0 0 1 44.850001 55.449001 Z" fill="#ADFDF4" transform="matrix(1, 0, 0, 1, 0, 0)"/>
<path d="M 71.895003 55.449001 A 1.956 1.956 0 0 1 69.939003 57.405001 A 1.956 1.956 0 0 1 67.983003 55.449001 A 1.956 1.956 0 0 1 69.939003 53.493001 A 1.956 1.956 0 0 1 71.895003 55.449001 Z" fill="#ADFDF4" transform="matrix(1, 0, 0, 1, 0, 0)"/>
<path d="M 29.521 93.725998 H 56.566999 V 98.413998 H 29.521 V 93.725998 Z" fill="#C6E8ED" transform="matrix(1, 0, 0, 1, 0, 0)" style="fill: rgb(179, 218, 216);"/>
<path d="M 42.893002 104.121002 H 69.939001 V 108.808002 H 42.893002 V 104.121002 Z" fill="#C6E8ED" transform="matrix(1, 0, 0, 1, 0, 0)" style="fill: rgb(179, 218, 216);"/>
<path d="M 61.645 93.725998 H 70.080001 V 98.413998 H 61.645 V 93.725998 Z" fill="#209292" transform="matrix(1, 0, 0, 1, 0, 0)"/>
<path d="M 269.492004 90.168999 H 286.614004 V 94.856999 H 269.492004 V 90.168999 Z" fill="#209292" transform="matrix(1, 0, 0, 1, 0, 0)"/>
<path d="M 293.351013 90.168999 H 310.473013 V 94.856999 H 293.351013 V 90.168999 Z" fill="#209292" transform="matrix(1, 0, 0, 1, 0, 0)"/>
<path d="M 29.370001 104.121002 H 37.805001 V 108.808002 H 29.370001 V 104.121002 Z" fill="#209292" transform="matrix(1, 0, 0, 1, 0, 0)"/>
<path d="M 28.808001 68.710999 H 69.939001 V 71.972999 H 28.808001 V 68.710999 Z" fill="#C6E8ED" transform="matrix(1, 0, 0, 1, 0, 0)" style="fill: rgb(179, 218, 216);"/>
<path d="M 28.808001 113.737999 H 69.939001 V 116.998999 H 28.808001 V 113.737999 Z" fill="#C6E8ED" transform="matrix(1, 0, 0, 1, 0, 0)" style="fill: rgb(179, 218, 216);"/>
<path d="M 28.808001 76.362 H 69.939001 V 88.681 H 28.808001 V 76.362 Z" fill="#209292" transform="matrix(1, 0, 0, 1, 0, 0)"/>
<path d="M 306.312988 166.867004 A 16.542999 16.542999 0 0 1 289.769989 183.410004 A 16.542999 16.542999 0 0 1 273.22699 166.867004 A 16.542999 16.542999 0 0 1 289.769989 150.324005 A 16.542999 16.542999 0 0 1 306.312988 166.867004 Z" fill="#2A4251" transform="matrix(1, 0, 0, 1, 0, 0)"/>
<g transform="matrix(1, 0, 0, 1, 0, 0)">
		<g>
			<g>
				<path fill="#FFFFFF" d="M281.478,163.629v3.846c4.245,0,7.686,3.439,7.686,7.686h3.843&#10;&#9;&#9;&#9;&#9;&#9;C293.006,168.795,287.846,163.629,281.478,163.629z"/>
			</g>
		</g>
		<g>
			<g>
				<path fill="#FFFFFF" d="M281.478,155.943v3.846c8.489,0,15.374,6.883,15.374,15.371h3.842&#10;&#9;&#9;&#9;&#9;&#9;C300.693,164.547,292.092,155.943,281.478,155.943z"/>
			</g>
		</g>
		<g>
			<g>
				<path fill="#FFFFFF" d="M283.397,171.316c-1.061,0-1.92,0.859-1.92,1.924c0,1.061,0.859,1.92,1.92,1.92&#10;&#9;&#9;&#9;&#9;&#9;c1.064,0,1.923-0.859,1.923-1.92C285.32,172.176,284.462,171.316,283.397,171.316z"/>
			</g>
		</g>
	</g>
<g transform="matrix(1, 0, 0, 1, 0, 0)">
		<g>
			<path d="M 167.597 85.740997 H 218.415001 V 90.168997 H 167.597 V 85.740997 Z" fill="#F4655F"/>
		</g>
		<g>
			<path d="M 154.988998 95.563004 H 218.414997 V 99.986003 H 154.988998 V 95.563004 Z" fill="#FFFFFF"/>
		</g>
		<g>
			<path d="M 190.272003 105.382004 H 218.420004 V 109.808004 H 190.272003 V 105.382004 Z" fill="#FFFFFF"/>
		</g>
		<g>
			<path d="M 122.234001 85.740997 H 150.247002 V 90.168997 H 122.234001 V 85.740997 Z" fill="#FFFFFF"/>
		</g>
		<g>
			<path d="M 122.234001 95.563004 H 142.667002 V 99.986003 H 122.234001 V 95.563004 Z" fill="#F4655F"/>
		</g>
		<g>
			<path d="M 122.226997 105.382004 H 178.272999 V 109.808004 H 122.226997 V 105.382004 Z" fill="#F4655F"/>
		</g>
		<g>
			<path d="M 154.311996 157.875 H 218.415993 V 162.301 H 154.311996 V 157.875 Z" fill="#FFFFFF"/>
		</g>
		<g>
			<path d="M 121.552002 157.875 H 141.988003 V 162.301 H 121.552002 V 157.875 Z" fill="#F4655F"/>
		</g>
		<g>
			<path d="M 121.555 147.272995 H 185.661003 V 151.698995 H 121.555 V 147.272995 Z" fill="#FFFFFF"/>
		</g>
		<g>
			<path d="M 197.985001 147.272995 H 218.421001 V 151.698995 H 197.985001 V 147.272995 Z" fill="#F4655F"/>
		</g>
		<g>
			<path d="M 120.872002 137.261993 H 218.415001 V 141.687994 H 120.872002 V 137.261993 Z" fill="#FFFFFF"/>
		</g>
		<g>
			<path d="M 120.872002 116.206001 H 218.415001 V 132.924002 H 120.872002 V 116.206001 Z" fill="#FFFFFF"/>
		</g>
	</g>
<path fill="#FFFFFF" d="M193.731,124.566c0,12.955-10.503,23.457-23.459,23.457c-12.955,0-23.458-10.502-23.458-23.457&#10;&#9;&#9;c0-12.958,10.503-23.459,23.458-23.459C183.229,101.107,193.731,111.608,193.731,124.566z" transform="matrix(1, 0, 0, 1, 0, 0)"/>
<g transform="matrix(1, 0, 0, 1, 0, 0)">
		<path fill="#FAE0B9" d="M205.304,163.885c1.233,2.299,0.576,5.057-1.474,6.158l0,0c-2.049,1.1-4.712,0.125-5.946-2.172&#10;&#9;&#9;&#9;l-11.857-22.08c-1.233-2.299-0.575-5.057,1.475-6.158l0,0c2.049-1.1,4.712-0.125,5.945,2.172L205.304,163.885z"/>
	</g><path fill="#FAE0B9" d="M216.074,162.883l-5.686-10.588c-1.234-2.299-3.896-3.271-5.945-2.17&#10;&#9;&#9;&#9;c-2.049,1.102-2.709,3.857-1.475,6.154l5.687,10.588L216.074,162.883z" transform="matrix(1, 0, 0, 1, 0, 0)"/><path fill="#FAE0B9" d="M226.262,160.791l-5.688-10.588c-1.233-2.299-3.895-3.27-5.944-2.168c-2.048,1.1-2.709,3.855-1.474,6.154&#10;&#9;&#9;&#9;l5.686,10.586L226.262,160.791z" transform="matrix(1, 0, 0, 1, 0, 0)"/><path fill="#FAE0B9" d="M235.93,158.168l-5.687-10.588c-1.236-2.303-3.897-3.271-5.947-2.172&#10;&#9;&#9;&#9;c-2.049,1.102-2.708,3.854-1.473,6.156l5.687,10.588L235.93,158.168z" transform="matrix(1, 0, 0, 1, 0, 0)"/><path fill="#FAE0B9" d="M212.316,155.883c0,0,0.949,0.627,1.357-0.729l2.565,0.488l-5.199,3.098" transform="matrix(1, 0, 0, 1, 0, 0)"/><path fill="#FAE0B9" d="M203.206,159.688c0,0,0.948,0.627,1.356-0.729l2.565,0.488l-5.2,3.1" transform="matrix(1, 0, 0, 1, 0, 0)"/><path fill="#FAE0B9" d="M221.626,152.314c0,0,0.95,0.627,1.358-0.729l2.565,0.488l-5.2,3.1" transform="matrix(1, 0, 0, 1, 0, 0)"/><path fill="#FAE0B9" d="M235.522,157.41l5.202,9.688c0,0,2.864,9.188,0.791,16.07l-25.588,13.74l-11.719-7.053&#10;&#9;&#9;&#9;c0,0-15.406-9.803-17.727-11.082c-2.316-1.277,1.131-2.482,4.547-3.91c2.191-0.91,6.592,1.309,6.592,1.309l6.881,4.021&#10;&#9;&#9;&#9;l-8.585-15.986l32.765-14.219" transform="matrix(1, 0, 0, 1, 0, 0)"/><path fill="#FAE0B9" d="M212.704,156.605c1.233,2.301,0.575,5.057-1.476,6.158l0,0c-2.048,1.1-4.709,0.125-5.944-2.172&#10;&#9;&#9;&#9;l-11.857-22.08c-1.234-2.299-0.576-5.055,1.472-6.156l0,0c2.051-1.102,4.714-0.127,5.947,2.172L212.704,156.605z" transform="matrix(1, 0, 0, 1, 0, 0)"/><path fill="#FAE0B9" d="M222.859,154.457c1.234,2.299,0.574,5.057-1.475,6.158l0,0c-2.049,1.1-4.713,0.125-5.946-2.172&#10;&#9;&#9;&#9;l-11.858-22.08c-1.233-2.299-0.574-5.057,1.475-6.156l0,0c2.048-1.1,4.713-0.127,5.947,2.172L222.859,154.457z" transform="matrix(1, 0, 0, 1, 0, 0)"/><path fill="#FAE0B9" d="M233.288,153.25c1.236,2.301,0.575,5.055-1.476,6.156l0,0c-2.048,1.1-4.708,0.131-5.944-2.172&#10;&#9;&#9;&#9;l-11.856-22.078c-1.234-2.301-0.576-5.055,1.474-6.154l0,0c2.05-1.102,4.711-0.131,5.945,2.168L233.288,153.25z" transform="matrix(1, 0, 0, 1, 0, 0)"/><path fill="#FAECD7" d="M192.304,141.844c-0.813-1.516-2.726-2.064-4.286-1.246c-1.543,0.848-2.143,2.746-1.33,4.262&#10;&#9;&#9;&#9;c0.352,0.652,0.838,1.656,1.362,2.027l2.597-1.395l2.596-1.395C193.222,143.457,192.654,142.496,192.304,141.844z" transform="matrix(1, 0, 0, 1, 0, 0)"/><path fill="#FAECD7" d="M199.653,134.469c-0.814-1.516-2.728-2.064-4.288-1.246c-1.544,0.848-2.142,2.746-1.327,4.262&#10;&#9;&#9;&#9;c0.351,0.652,0.835,1.652,1.361,2.027l2.595-1.393l2.598-1.395C200.569,136.078,200.004,135.121,199.653,134.469z" transform="matrix(1, 0, 0, 1, 0, 0)"/><path fill="#FAECD7" d="M209.985,132.658c-0.885-1.646-2.854-2.307-4.414-1.488c-1.544,0.85-2.083,2.854-1.197,4.502&#10;&#9;&#9;&#9;c0.38,0.707,0.91,1.795,1.459,2.215l2.598-1.395l2.597-1.395C210.982,134.408,210.366,133.367,209.985,132.658z" transform="matrix(1, 0, 0, 1, 0, 0)"/><path fill="#FAECD7" d="M220.675,131.928c-1.004-1.869-3.07-2.707-4.634-1.891c-1.541,0.852-1.984,3.037-0.98,4.904&#10;&#9;&#9;&#9;c0.433,0.809,1.043,2.043,1.632,2.533l2.595-1.393l2.597-1.396C221.801,133.926,221.108,132.734,220.675,131.928z" transform="matrix(1, 0, 0, 1, 0, 0)"/><path d="M 213.522995 189.438995 H 247.312996 V 194.065995 H 213.522995 V 189.438995 Z" transform="matrix(0.8809999823570251, -0.4731000065803528, 0.4731000065803528, 0.8809999823570251, -63.30030059814453, 131.8289031982422)" fill="#FFF2EA"/><path d="M 276.38501 235.190994 L 248.253998 184.800995 L 214.774002 202.781006 L 232.384995 235.190994" fill="#F4927C" transform="matrix(1, 0, 0, 1, 0, 0)"/><path d="M 227.035007 207.895004 A 2.465 2.465 0 0 1 224.570007 210.360004 A 2.465 2.465 0 0 1 222.105007 207.895004 A 2.465 2.465 0 0 1 224.570007 205.430004 A 2.465 2.465 0 0 1 227.035007 207.895004 Z" fill="#5E5955" transform="matrix(1, 0, 0, 1, 0, 0)"/>
<g transform="matrix(1, 0, 0, 1, 0, 0)">
		<path fill="#FAE0B9" d="M131.854,189.129c-1.233,2.299-0.576,5.057,1.474,6.158l0,0c2.05,1.1,4.712,0.125,5.946-2.172&#10;&#9;&#9;&#9;l11.857-22.08c1.234-2.299,0.576-5.057-1.475-6.158l0,0c-2.049-1.1-4.711-0.125-5.945,2.172L131.854,189.129z"/>
	</g><path fill="#FAE0B9" d="M121.084,188.127l5.687-10.588c1.234-2.299,3.895-3.271,5.945-2.17c2.048,1.102,2.709,3.857,1.475,6.154&#10;&#9;&#9;&#9;l-5.688,10.588L121.084,188.127z" transform="matrix(1, 0, 0, 1, 0, 0)"/><path fill="#FAE0B9" d="M110.897,186.035l5.687-10.588c1.233-2.299,3.895-3.27,5.944-2.168c2.049,1.1,2.709,3.855,1.475,6.154&#10;&#9;&#9;&#9;l-5.686,10.586L110.897,186.035z" transform="matrix(1, 0, 0, 1, 0, 0)"/><path fill="#FAE0B9" d="M101.229,183.412l5.687-10.588c1.236-2.303,3.898-3.271,5.947-2.172c2.049,1.102,2.709,3.854,1.473,6.156&#10;&#9;&#9;&#9;l-5.687,10.588L101.229,183.412z" transform="matrix(1, 0, 0, 1, 0, 0)"/><path fill="#FAE0B9" d="M124.843,181.127c0,0-0.949,0.627-1.358-0.729l-2.565,0.488l5.199,3.098" transform="matrix(1, 0, 0, 1, 0, 0)"/><path fill="#FAE0B9" d="M133.952,184.932c0,0-0.947,0.627-1.355-0.729l-2.566,0.488l5.201,3.1" transform="matrix(1, 0, 0, 1, 0, 0)"/><path fill="#FAE0B9" d="M115.532,177.559c0,0-0.949,0.627-1.357-0.729l-2.566,0.488l5.2,3.1" transform="matrix(1, 0, 0, 1, 0, 0)"/><path fill="#FAE0B9" d="M101.636,182.654l-5.202,9.688c0,0-2.864,9.188-0.79,16.07l25.588,13.74l11.718-7.053&#10;&#9;&#9;&#9;c0,0,15.407-9.803,17.727-11.082c2.317-1.277-1.13-2.482-4.547-3.91c-2.19-0.91-6.592,1.309-6.592,1.309l-6.881,4.021&#10;&#9;&#9;&#9;l8.585-15.986l-32.764-14.219" transform="matrix(1, 0, 0, 1, 0, 0)"/><path fill="#FAE0B9" d="M124.454,181.85c-1.233,2.301-0.574,5.057,1.477,6.158l0,0c2.047,1.1,4.709,0.125,5.943-2.172&#10;&#9;&#9;&#9;l11.857-22.08c1.234-2.299,0.576-5.055-1.471-6.156l0,0c-2.051-1.102-4.715-0.127-5.947,2.172L124.454,181.85z" transform="matrix(1, 0, 0, 1, 0, 0)"/><path fill="#FAE0B9" d="M114.3,179.701c-1.234,2.299-0.574,5.057,1.475,6.158l0,0c2.049,1.1,4.712,0.125,5.945-2.172l11.859-22.08&#10;&#9;&#9;&#9;c1.232-2.299,0.574-5.057-1.475-6.156l0,0c-2.049-1.1-4.714-0.127-5.947,2.172L114.3,179.701z" transform="matrix(1, 0, 0, 1, 0, 0)"/><path fill="#FAE0B9" d="M103.87,178.494c-1.236,2.301-0.574,5.055,1.477,6.156l0,0c2.047,1.1,4.707,0.131,5.943-2.172&#10;&#9;&#9;&#9;l11.857-22.078c1.234-2.301,0.575-5.055-1.475-6.154l0,0c-2.05-1.102-4.711-0.131-5.945,2.168L103.87,178.494z" transform="matrix(1, 0, 0, 1, 0, 0)"/><path fill="#FAECD7" d="M144.854,167.088c0.814-1.516,2.727-2.064,4.287-1.246c1.543,0.848,2.143,2.746,1.329,4.262&#10;&#9;&#9;&#9;c-0.352,0.652-0.837,1.656-1.362,2.027l-2.596-1.395l-2.596-1.395C143.937,168.701,144.504,167.74,144.854,167.088z" transform="matrix(1, 0, 0, 1, 0, 0)"/><path fill="#FAECD7" d="M137.505,159.713c0.814-1.516,2.729-2.064,4.289-1.246c1.543,0.848,2.141,2.746,1.326,4.262&#10;&#9;&#9;&#9;c-0.35,0.652-0.834,1.652-1.361,2.027l-2.595-1.393l-2.597-1.395C136.589,161.322,137.155,160.365,137.505,159.713z" transform="matrix(1, 0, 0, 1, 0, 0)"/><path fill="#FAECD7" d="M127.173,157.902c0.885-1.646,2.854-2.307,4.414-1.488c1.545,0.85,2.084,2.854,1.197,4.502&#10;&#9;&#9;&#9;c-0.379,0.707-0.91,1.795-1.459,2.215l-2.598-1.395l-2.596-1.395C126.177,159.652,126.792,158.611,127.173,157.902z" transform="matrix(1, 0, 0, 1, 0, 0)"/><path fill="#FAECD7" d="M116.483,157.172c1.004-1.869,3.07-2.707,4.635-1.891c1.541,0.852,1.984,3.037,0.98,4.904&#10;&#9;&#9;&#9;c-0.434,0.809-1.044,2.043-1.633,2.533l-2.595-1.393l-2.597-1.396C115.358,159.17,116.05,157.979,116.483,157.172z" transform="matrix(1, 0, 0, 1, 0, 0)"/><path d="M 89.845001 214.682999 H 123.635002 V 219.309999 H 89.845001 V 214.682999 Z" transform="matrix(-0.8809999823570251, -0.4731000065803528, 0.4731000065803528, -0.8809999823570251, 98.11759948730469, 458.6702880859375)" fill="#FFF2EA"/><path d="M 118.552001953125 235.16200256347656 L 122.38400268554688 228.02499389648438 L 88.90499877929688 210.0449981689453 L 75.41699981689453 235.16200256347656 Z" fill="#F4927C" transform="matrix(1, 0, 0, 1, 0, 0)"/><path fill="#5E5955" d="M111.205,235.162h2.773c0.314-0.215,0.589-0.498,0.782-0.857c0.643-1.197,0.194-2.695-1.004-3.338&#10;&#9;&#9;&#9;c-1.199-0.645-2.696-0.191-3.34,1.006C109.815,233.092,110.179,234.459,111.205,235.162z" transform="matrix(1, 0, 0, 1, 0, 0)"/>
<defs>
		<path d="M 189.543995 124.564003 A 19.271 19.271 0 0 1 170.272995 143.835003 A 19.271 19.271 0 0 1 151.001995 124.564003 A 19.271 19.271 0 0 1 170.272995 105.293003 A 19.271 19.271 0 0 1 189.543995 124.564003 Z" id="SVGID_1_"/>
	</defs><use overflow="visible" fill="#D6EAF5" transform="matrix(1, 0, 0, 1, 0, 0)" style="fill: rgb(179, 218, 216);" xlink:href="#SVGID_1_"/><clipPath id="SVGID_2_">
		<use overflow="visible" xlink:href="#SVGID_1_"/>
	</clipPath><g transform="matrix(1, 0, 0, 1, 0, 0)">
			<path fill="#62BFBE" d="M170.222,130.738c-4.909,0-8.904-3.994-8.904-8.906c0-4.905,3.995-8.901,8.904-8.901&#10;&#9;&#9;&#9;&#9;c4.91,0,8.902,3.997,8.902,8.901C179.124,126.744,175.132,130.738,170.222,130.738z" style="fill: rgb(32, 146, 146);"/>
		</g><path fill="#62BFBE" d="M185.736,144.639h-30.925c-0.646,0-1.172-0.525-1.172-1.172c0-6.158,5.009-11.17,11.166-11.17h10.936&#10;&#9;&#9;&#9;&#9;c6.157,0,11.167,5.012,11.167,11.17C186.908,144.113,186.382,144.639,185.736,144.639z" transform="matrix(1, 0, 0, 1, 0, 0)" style="fill: rgb(32, 146, 146);"/>
<path fill="#2A4251" d="M50.628,165.58c0.039-0.379,0.059-0.754,0.059-1.117s-0.02-0.736-0.059-1.115l2.019-1.121l0.366-0.203&#10;&#9;&#9;l-0.088-0.41c-0.098-0.461-0.219-0.918-0.361-1.357l-0.129-0.4l-0.419,0.01l-2.308,0.037c-0.307-0.68-0.68-1.326-1.12-1.934&#10;&#9;&#9;l1.187-1.979l0.215-0.359l-0.279-0.312c-0.314-0.346-0.65-0.682-0.995-0.992l-0.312-0.281l-0.359,0.215l-1.977,1.186&#10;&#9;&#9;c-0.607-0.438-1.257-0.812-1.936-1.117l0.039-2.309l0.006-0.42l-0.397-0.129c-0.438-0.141-0.895-0.262-1.358-0.361l-0.408-0.088&#10;&#9;&#9;l-0.205,0.365l-1.12,2.02c-0.379-0.039-0.752-0.059-1.116-0.059c-0.365,0-0.738,0.02-1.116,0.059l-1.122-2.02l-0.201-0.365&#10;&#9;&#9;l-0.41,0.088c-0.455,0.096-0.913,0.219-1.359,0.361l-0.398,0.131l0.008,0.418l0.039,2.309c-0.681,0.305-1.328,0.68-1.936,1.117&#10;&#9;&#9;l-1.978-1.186l-0.358-0.215l-0.312,0.281c-0.346,0.312-0.681,0.646-0.994,0.992l-0.281,0.312l0.216,0.359l1.187,1.979&#10;&#9;&#9;c-0.438,0.605-0.813,1.254-1.119,1.934l-2.308-0.037l-0.419-0.01l-0.129,0.4c-0.144,0.441-0.266,0.898-0.363,1.357l-0.085,0.41&#10;&#9;&#9;l0.364,0.203l2.019,1.121c-0.038,0.377-0.059,0.75-0.059,1.115s0.021,0.74,0.059,1.117l-2.019,1.121l-0.367,0.205l0.088,0.408&#10;&#9;&#9;c0.1,0.461,0.221,0.916,0.363,1.357l0.129,0.398l0.419-0.008l2.308-0.037c0.307,0.678,0.681,1.326,1.119,1.934l-1.187,1.977&#10;&#9;&#9;l-0.216,0.361l0.281,0.311c0.316,0.352,0.65,0.686,0.995,0.994l0.312,0.281l0.358-0.217l1.978-1.186&#10;&#9;&#9;c0.606,0.439,1.255,0.812,1.936,1.119l-0.039,2.309l-0.008,0.42l0.398,0.127c0.442,0.145,0.899,0.268,1.359,0.363l0.41,0.086&#10;&#9;&#9;l0.201-0.365l1.122-2.018c0.38,0.037,0.753,0.057,1.116,0.057c0.364,0,0.737-0.018,1.116-0.059l1.12,2.02l0.203,0.365l0.41-0.086&#10;&#9;&#9;c0.459-0.096,0.916-0.219,1.358-0.361l0.397-0.129l-0.006-0.42l-0.039-2.309c0.681-0.307,1.328-0.68,1.936-1.119l1.977,1.186&#10;&#9;&#9;l0.359,0.217l0.312-0.281c0.347-0.312,0.681-0.646,0.995-0.996l0.279-0.311l-0.215-0.359l-1.187-1.977&#10;&#9;&#9;c0.438-0.605,0.813-1.254,1.12-1.934l2.308,0.037l0.419,0.008l0.13-0.398c0.142-0.439,0.263-0.896,0.36-1.357l0.088-0.41&#10;&#9;&#9;l-0.366-0.203L50.628,165.58z M39.571,167.762c-1.819,0-3.299-1.479-3.299-3.297c0-1.82,1.479-3.299,3.299-3.299&#10;&#9;&#9;s3.299,1.479,3.299,3.299C42.87,166.283,41.391,167.762,39.571,167.762z" transform="matrix(1, 0, 0, 1, 0, 0)"/>
<g transform="matrix(1, 0, 0, 1, 0, 0)">
		<g>
			<path fill="#2A4251" d="M63.569,165.887c-0.434-0.006-0.873,0.016-1.315,0.08l-0.019-0.047l-0.941-1.762l-1.948,0.646&#10;&#9;&#9;&#9;&#9;l0.255,2.037c-0.394,0.211-0.771,0.445-1.12,0.709l-0.027-0.027l-1.674-1.088l-1.398,1.5l1.201,1.662&#10;&#9;&#9;&#9;&#9;c-0.243,0.369-0.46,0.756-0.642,1.162l-0.035-0.01l-1.99-0.15l-0.505,1.992l1.848,0.887c-0.033,0.438-0.085,0.682,0.009,1.346&#10;&#9;&#9;&#9;&#9;l-0.034,0.008l-1.778,0.787l0.517,1.986l2.016-0.115c0.241,0.535,0.521,1.041,0.86,1.502l-0.03,0.027l-1.12,1.656l1.479,1.422&#10;&#9;&#9;&#9;&#9;l1.681-1.176c0.552,0.373,1.147,0.686,1.774,0.914l-0.008,0.043l-0.021,1.998l2.019,0.373l0.76-1.916v-0.004&#10;&#9;&#9;&#9;&#9;c0.437,0.004,0.875-0.018,1.313-0.084l0.019,0.047l0.943,1.762l1.948-0.645l-0.257-2.045l-0.005-0.012&#10;&#9;&#9;&#9;&#9;c0.392-0.209,0.766-0.441,1.11-0.703l0.046,0.039l1.674,1.09l1.396-1.502l-1.209-1.668l-0.019-0.016&#10;&#9;&#9;&#9;&#9;c0.239-0.363,0.451-0.75,0.63-1.148l0.073,0.018l1.991,0.15l0.502-1.99l-1.86-0.881l-0.06-0.146&#10;&#9;&#9;&#9;&#9;c0.032-0.432,0.051-0.787-0.043-1.451l0.077-0.018l1.647-0.479l-0.514-1.988l-1.938,0.092l0.04-0.01&#10;&#9;&#9;&#9;&#9;c-0.239-0.529-0.495-1.031-0.83-1.488l0.067-0.057l1.123-1.656l-1.475-1.426l-1.688,1.182l-0.01,0.014&#10;&#9;&#9;&#9;&#9;c-0.549-0.373-1.138-0.682-1.76-0.912l0.013-0.064l0.019-1.996l-2.021-0.373l-0.757,1.916V165.887z M70.059,172.395&#10;&#9;&#9;&#9;&#9;c0.946,3.646-1.244,7.373-4.894,8.318c-3.647,0.947-7.37-1.244-8.316-4.891c-0.945-3.648,1.244-7.371,4.891-8.318&#10;&#9;&#9;&#9;&#9;C65.389,166.559,69.111,168.75,70.059,172.395z"/>
			<path fill="#2A4251" d="M62.529,184.741l-2.019-0.373l-0.409-0.496l0.018-1.699c-0.427-0.178-0.846-0.395-1.253-0.648&#10;&#9;&#9;&#9;&#9;l-1.404,0.983l-0.633-0.05l-1.479-1.422l-0.067-0.641l0.952-1.407c-0.198-0.299-0.382-0.623-0.557-0.979l-1.678,0.096&#10;&#9;&#9;&#9;&#9;l-0.512-0.373l-0.517-1.986l0.282-0.583l1.476-0.653c-0.024-0.303-0.015-0.517,0.002-0.729l-1.537-0.737l-0.269-0.574&#10;&#9;&#9;&#9;&#9;l0.505-1.992l0.522-0.376l1.687,0.128c0.103-0.205,0.216-0.409,0.339-0.612l-1.003-1.388l0.04-0.634l1.398-1.5l0.638-0.078&#10;&#9;&#9;&#9;&#9;l1.421,0.924c0.185-0.127,0.382-0.251,0.589-0.371l-0.213-1.702l0.339-0.537l1.948-0.646l0.599,0.239l0.805,1.506&#10;&#9;&#9;&#9;&#9;c0.222-0.022,0.45-0.036,0.687-0.041l0.635-1.606l0.556-0.308l2.021,0.373l0.409,0.496l-0.016,1.722&#10;&#9;&#9;&#9;&#9;c0.421,0.178,0.833,0.392,1.229,0.64l1.426-0.998l0.634,0.05l1.475,1.426l0.066,0.64l-0.985,1.452&#10;&#9;&#9;&#9;&#9;c0.208,0.325,0.38,0.653,0.526,0.961l1.559-0.073l0.507,0.374l0.514,1.988l-0.344,0.605l-1.318,0.383&#10;&#9;&#9;&#9;&#9;c0.031,0.35,0.027,0.618,0.011,0.893l1.62,0.767l0.271,0.574l-0.502,1.99l-0.522,0.377l-1.728-0.131&#10;&#9;&#9;&#9;&#9;c-0.1,0.2-0.208,0.396-0.322,0.587l1.026,1.416l-0.039,0.634l-1.396,1.502l-0.639,0.078l-1.439-0.938&#10;&#9;&#9;&#9;&#9;c-0.182,0.125-0.375,0.246-0.577,0.364l0.216,1.723l-0.339,0.537l-1.948,0.645l-0.598-0.238l-0.806-1.505&#10;&#9;&#9;&#9;&#9;c-0.22,0.022-0.447,0.036-0.687,0.042l-0.637,1.606L62.529,184.741z M61.106,183.462l1.201,0.222l0.608-1.534l0.107,0.043&#10;&#9;&#9;&#9;&#9;l0.362-0.362c0.004,0,0.008,0,0.012,0c0.505,0,0.875-0.025,1.222-0.078l0.54,0.311l0.74,1.385l1.158-0.383l-0.206-1.637&#10;&#9;&#9;&#9;&#9;l0.083-0.011l0.173-0.505c0.388-0.207,0.739-0.429,1.043-0.66l0.626,0.018l1.316,0.86l0.83-0.892l-0.968-1.336l0.06-0.043&#10;&#9;&#9;&#9;&#9;l-0.091-0.541c0.224-0.34,0.423-0.702,0.591-1.078l0.573-0.281l1.566,0.123l0.298-1.183l-1.489-0.705l-0.25-0.264l-0.06-0.146&#10;&#9;&#9;&#9;&#9;l-0.035-0.226c0.032-0.434,0.046-0.74-0.04-1.344l0.384-0.558l1.23-0.354l-0.29-1.124l-1.533,0.072l-0.068-0.471l-0.371,0.168&#10;&#9;&#9;&#9;&#9;c-0.197-0.436-0.443-0.942-0.778-1.398l0.082-0.679l0.862-1.264l-0.875-0.846l-1.35,0.944l-0.059-0.084l-0.519,0.102&#10;&#9;&#9;&#9;&#9;c-0.525-0.356-1.081-0.645-1.652-0.856l-0.317-0.565l0.018-1.549l-1.202-0.222l-0.606,1.533l-0.106-0.042l-0.365,0.364&#10;&#9;&#9;&#9;&#9;l-0.129-0.001c-0.396,0-0.758,0.024-1.107,0.076l-0.537-0.312l-0.738-1.385l-1.158,0.385l0.204,1.629l-0.26,0.503&#10;&#9;&#9;&#9;&#9;c-0.394,0.211-0.748,0.436-1.055,0.667l-0.655-0.045l-1.268-0.821l-0.833,0.893l0.96,1.329L57,169.873&#10;&#9;&#9;&#9;&#9;c-0.237,0.359-0.44,0.727-0.603,1.091l-0.59,0.277l-1.51-0.112l-0.301,1.189l1.479,0.709l0.282,0.489l-0.018,0.208&#10;&#9;&#9;&#9;&#9;c-0.027,0.309-0.047,0.531,0.023,1.029l-0.384,0.558l-1.333,0.593l0.307,1.179l1.606-0.092l0.484,0.294&#10;&#9;&#9;&#9;&#9;c0.247,0.547,0.511,1.009,0.807,1.41l-0.067,0.668l-0.836,1.243l0.879,0.846l1.344-0.94l0.567-0.004&#10;&#9;&#9;&#9;&#9;c0.535,0.361,1.096,0.65,1.666,0.858l0.32,0.56L61.106,183.462z M63.446,181.434c-3.331,0-6.244-2.256-7.082-5.485&#10;&#9;&#9;&#9;&#9;c-1.013-3.908,1.342-7.913,5.249-8.929c0.604-0.156,1.224-0.235,1.842-0.235c3.333,0,6.247,2.255,7.086,5.484&#10;&#9;&#9;&#9;&#9;c0.491,1.894,0.216,3.865-0.776,5.552s-2.582,2.886-4.476,3.377C64.686,181.354,64.065,181.434,63.446,181.434z M63.456,167.784&#10;&#9;&#9;&#9;&#9;c-0.534,0-1.069,0.068-1.591,0.204c-3.373,0.876-5.406,4.334-4.532,7.709c0.724,2.788,3.238,4.736,6.114,4.736&#10;&#9;&#9;&#9;&#9;c0.535,0,1.07-0.069,1.593-0.205c1.636-0.423,3.008-1.459,3.865-2.915c0.856-1.457,1.095-3.159,0.67-4.793&#10;&#9;&#9;&#9;&#9;C68.85,169.731,66.334,167.784,63.456,167.784z"/>
		</g>
	</g>
<path d="M 53.83146667480469 139.11273193359375" style="fill: rgb(43, 90, 95); fill-opacity: 1; stroke: rgb(0, 0, 0); stroke-opacity: 1; stroke-width: 0; paint-order: fill;"/><path d="M 296.2513732910156 56.595211029052734 L 296.2513732910156 56.595211029052734" style="fill: rgb(43, 90, 95); fill-opacity: 1; stroke: rgb(0, 0, 0); stroke-opacity: 1; stroke-width: 0; paint-order: fill;"/><path d="M 295.46173095703125 141.0868377685547" style="fill: rgb(43, 90, 95); fill-opacity: 1; stroke: rgb(0, 0, 0); stroke-opacity: 1; stroke-width: 0; paint-order: fill;"/><path d="M 106.34261322021484 123.71472930908203 L 106.34261322021484 123.71472930908203" style="fill: rgb(255, 255, 255); fill-opacity: 1; stroke: rgb(0, 0, 0); stroke-opacity: 1; stroke-width: 0; paint-order: fill;"/></svg>