<svg xmlns="http://www.w3.org/2000/svg" xmlns:xlink="http://www.w3.org/1999/xlink" viewBox="6861 1349 139 139">
  <defs>
    <style>
      .cls-1, .cls-2 {
        fill: #fff;
      }

      .cls-2 {
        stroke: #cfd8dc;
        stroke-linecap: round;
        stroke-linejoin: round;
      }

      .cls-2, .cls-4 {
        stroke-miterlimit: 10;
        stroke-width: 2px;
      }

      .cls-3 {
        fill: #cfd8dc;
      }

      .cls-4 {
        fill: #ffe69c;
        stroke: #ffc107;
      }

      .cls-5 {
        filter: url(#Path_169);
      }

      .cls-6 {
        filter: url(#Ellipse_23);
      }
    </style>
    <filter id="Ellipse_23" x="6861" y="1349" width="139" height="139" filterUnits="userSpaceOnUse">
      <feOffset dy="3" input="SourceAlpha"/>
      <feGaussianBlur stdDeviation="3" result="blur"/>
      <feFlood flood-opacity="0.161"/>
      <feComposite operator="in" in2="blur"/>
      <feComposite in="SourceGraphic"/>
    </filter>
    <filter id="Path_169" x="6896.224" y="1386.805" width="70.1" height="70.2" filterUnits="userSpaceOnUse">
      <feOffset dy="3" input="SourceAlpha"/>
      <feGaussianBlur stdDeviation="3" result="blur-2"/>
      <feFlood flood-opacity="0.161"/>
      <feComposite operator="in" in2="blur-2"/>
      <feComposite in="SourceGraphic"/>
    </filter>
  </defs>
  <g id="Group_372" data-name="Group 372" transform="translate(6197)">
    <g class="cls-6" transform="matrix(1, 0, 0, 1, -6197, 0)">
      <circle id="Ellipse_23-2" data-name="Ellipse 23" class="cls-1" cx="60.5" cy="60.5" r="60.5" transform="translate(6870 1355)"/>
    </g>
    <g id="Group_369" data-name="Group 369" transform="translate(707.023 1387.005)">
      <g class="cls-5" transform="matrix(1, 0, 0, 1, -6904.02, -1387.01)">
        <path id="Path_169-2" data-name="Path 169" class="cls-2" d="M48.6,6.8H5.9a3.691,3.691,0,0,0-3.7,3.7v7a3,3,0,0,1,0,6v5.2a3,3,0,0,1,0,6v5.2a3,3,0,0,1,0,6v7.4A3.691,3.691,0,0,0,5.9,57H48.6a3.691,3.691,0,0,0,3.7-3.7V10.5A3.757,3.757,0,0,0,48.6,6.8Z" transform="translate(6904.02 1387.01)"/>
      </g>
      <g id="Group_345" data-name="Group 345">
        <path id="Path_170" data-name="Path 170" class="cls-3" d="M43.3,21.5h-32a1,1,0,0,1,0-2h32a.945.945,0,0,1,1,1A1.075,1.075,0,0,1,43.3,21.5Z"/>
      </g>
      <g id="Group_346" data-name="Group 346">
        <path id="Path_171" data-name="Path 171" class="cls-3" d="M43.3,32.6h-32a1,1,0,1,1,0-2h32a.945.945,0,0,1,1,1A1,1,0,0,1,43.3,32.6Z"/>
      </g>
      <g id="Group_347" data-name="Group 347">
        <path id="Path_172" data-name="Path 172" class="cls-3" d="M43.3,43.8h-32a1,1,0,1,1,0-2h32a.945.945,0,0,1,1,1A1.075,1.075,0,0,1,43.3,43.8Z"/>
      </g>
      <path id="Path_173" data-name="Path 173" class="cls-4" d="M53,2.8a3.869,3.869,0,0,0-5.4-1.2h0L39,6.9,6.2,27.1l-5,6.4a1.006,1.006,0,0,0,1,1.6l8.1-1.4L43.1,13.5l8.5-5.2A4.063,4.063,0,0,0,53,2.8Z"/>
    </g>
  </g>
</svg>
