<svg xmlns="http://www.w3.org/2000/svg" xmlns:xlink="http://www.w3.org/1999/xlink" viewBox="6406 1349 139 139">
  <defs>
    <style>
      .cls-1 {
        fill: #fff;
      }

      .cls-2 {
        fill: #f57c00;
      }

      .cls-3 {
        opacity: 0.1;
      }

      .cls-4 {
        fill: #263238;
      }

      .cls-5 {
        filter: url(#Path_174);
      }

      .cls-6 {
        filter: url(#Ellipse_24);
      }
    </style>
    <filter id="Ellipse_24" x="6406" y="1349" width="139" height="139" filterUnits="userSpaceOnUse">
      <feOffset dy="3" input="SourceAlpha"/>
      <feGaussianBlur stdDeviation="3" result="blur"/>
      <feFlood flood-opacity="0.161"/>
      <feComposite operator="in" in2="blur"/>
      <feComposite in="SourceGraphic"/>
    </filter>
    <filter id="Path_174" x="6436" y="1376" width="82" height="82" filterUnits="userSpaceOnUse">
      <feOffset dy="3" input="SourceAlpha"/>
      <feGaussianBlur stdDeviation="3" result="blur-2"/>
      <feFlood flood-opacity="0.161"/>
      <feComposite operator="in" in2="blur-2"/>
      <feComposite in="SourceGraphic"/>
    </filter>
  </defs>
  <g id="Group_373" data-name="Group 373" transform="translate(6197)">
    <g class="cls-6" transform="matrix(1, 0, 0, 1, -6197, 0)">
      <circle id="Ellipse_24-2" data-name="Ellipse 24" class="cls-1" cx="60.5" cy="60.5" r="60.5" transform="translate(6415 1355)"/>
    </g>
    <g id="Group_343" data-name="Group 343" transform="translate(248 1382)">
      <g class="cls-5" transform="matrix(1, 0, 0, 1, -6445, -1382)">
        <path id="Path_174-2" data-name="Path 174" class="cls-2" d="M56,53.1A31.552,31.552,0,0,0,64,32a32.076,32.076,0,0,0-7.8-20.9c-.1-.2-.3-.4-.4-.6-.1-.1-.1-.1-.2-.1a31.968,31.968,0,0,0-47.1-.1c-.1,0-.1.1-.2.1a2.092,2.092,0,0,0-.4.6A31.982,31.982,0,0,0,55.7,53.5h0A1.38,1.38,0,0,0,56,53.1ZM4.1,34h11a54.8,54.8,0,0,0,1.2,10.2A33.051,33.051,0,0,0,9.8,49,27.351,27.351,0,0,1,4.1,34ZM9.8,15a30.35,30.35,0,0,0,6.5,4.8A54.668,54.668,0,0,0,15,30H4A28.243,28.243,0,0,1,9.8,15ZM59.9,30H49a54.8,54.8,0,0,0-1.2-10.2A33.051,33.051,0,0,0,54.3,15,28.029,28.029,0,0,1,59.9,30ZM34.1,4.4c3.8,1.4,7.1,6.4,9,13.3a28.274,28.274,0,0,1-9,2.2Zm-4,15.5a28.81,28.81,0,0,1-9.2-2.2c2-7,5.3-12.1,9.2-13.4V19.9Zm0,4V30H19a56.842,56.842,0,0,1,.9-8.4A32.834,32.834,0,0,0,30.1,23.9Zm0,10.1v6.1A31.611,31.611,0,0,0,20,42.4a54.056,54.056,0,0,1-.9-8.4Zm0,10.1V59.7c-3.8-1.3-7.2-6.4-9.2-13.4A28.81,28.81,0,0,1,30.1,44.1Zm4,0a27.638,27.638,0,0,1,9,2.2c-2,6.9-5.3,11.9-9,13.3Zm0-4V34H45a56.841,56.841,0,0,1-.9,8.4A31.634,31.634,0,0,0,34.1,40.1Zm0-10.1V23.9a31.02,31.02,0,0,0,10-2.3A54.056,54.056,0,0,1,45,30ZM46.7,15.8a33.253,33.253,0,0,0-4.8-10A27.341,27.341,0,0,1,51.6,12,25.731,25.731,0,0,1,46.7,15.8Zm-29.4,0A25.089,25.089,0,0,1,12.5,12a27.341,27.341,0,0,1,9.7-6.2A29.2,29.2,0,0,0,17.3,15.8Zm0,32.4a33.253,33.253,0,0,0,4.8,10A27.341,27.341,0,0,1,12.4,52,25.73,25.73,0,0,1,17.3,48.2Zm29.4,0A25.089,25.089,0,0,1,51.5,52a27.341,27.341,0,0,1-9.7,6.2A29.2,29.2,0,0,0,46.7,48.2Zm1.1-4A64.776,64.776,0,0,0,49,34H60a28.135,28.135,0,0,1-5.7,15A33.051,33.051,0,0,0,47.8,44.2Z" transform="translate(6445 1382)"/>
      </g>
      <g id="Group_349" data-name="Group 349" class="cls-3">
        <path id="Path_175" data-name="Path 175" class="cls-4" d="M34.1,42.1v2a27.743,27.743,0,0,1,8.5,2l.6-1.8A28.863,28.863,0,0,0,34.1,42.1Z"/>
        <path id="Path_176" data-name="Path 176" class="cls-4" d="M20.9,44.3l.6,1.8a27.688,27.688,0,0,1,8.6-2v-2A28.81,28.81,0,0,0,20.9,44.3Z"/>
        <path id="Path_177" data-name="Path 177" class="cls-4" d="M19,32c0,.7.1,1.3.1,2H30V32Z"/>
        <path id="Path_178" data-name="Path 178" class="cls-4" d="M20.9,15.7c.2.1.4.1.6.2,2-6,5.1-10.4,8.6-11.6v-2C26.2,3.6,22.9,8.7,20.9,15.7Z"/>
        <path id="Path_179" data-name="Path 179" class="cls-4" d="M20,19.6a54.056,54.056,0,0,0-.9,8.4h.1c.2-2.2.4-4.3.8-6.4a31.611,31.611,0,0,0,10.1,2.3v-2A31.611,31.611,0,0,1,20,19.6Z"/>
        <path id="Path_180" data-name="Path 180" class="cls-4" d="M22.1,3.8A27.341,27.341,0,0,0,12.4,10c.4.3.7.7,1.1,1a25.607,25.607,0,0,1,6.8-4.4C20.9,5.6,21.5,4.6,22.1,3.8Z"/>
        <path id="Path_181" data-name="Path 181" class="cls-4" d="M17.3,46.2A29.3,29.3,0,0,0,12.4,50c.4.3.7.7,1.1,1a26.608,26.608,0,0,1,3.8-2.8,33.941,33.941,0,0,0,3.1,7.2c.6.3,1.2.5,1.8.8A29.2,29.2,0,0,1,17.3,46.2Z"/>
        <path id="Path_182" data-name="Path 182" class="cls-4" d="M15,32H4a13.552,13.552,0,0,0,.2,2H15a56.842,56.842,0,0,0,.9,8.4c.1-.1.2-.1.3-.2A64.777,64.777,0,0,1,15,32Z"/>
        <path id="Path_183" data-name="Path 183" class="cls-4" d="M4.1,28h.2A27.515,27.515,0,0,1,9.8,15a33.663,33.663,0,0,0,6.1,4.6l.3-1.8A33.051,33.051,0,0,1,9.7,13,28.029,28.029,0,0,0,4.1,28Z"/>
        <path id="Path_184" data-name="Path 184" class="cls-4" d="M49,32a54.8,54.8,0,0,1-1.2,10.2c.1.1.2.1.3.2A54.056,54.056,0,0,0,49,34H59.7a13.553,13.553,0,0,0,.2-2Z"/>
        <path id="Path_185" data-name="Path 185" class="cls-4" d="M54.2,13a30.35,30.35,0,0,1-6.5,4.8l.3,1.8A30.518,30.518,0,0,0,54.1,15a28.551,28.551,0,0,1,5.5,13h.2A26.509,26.509,0,0,0,54.2,13Z"/>
        <path id="Path_186" data-name="Path 186" class="cls-4" d="M46.7,46.2a33.253,33.253,0,0,1-4.8,10,14.167,14.167,0,0,0,1.8-.8,39.97,39.97,0,0,0,3.1-7.2A33.747,33.747,0,0,1,50.6,51c.4-.3.7-.7,1.1-1A29.993,29.993,0,0,0,46.7,46.2Z"/>
        <path id="Path_187" data-name="Path 187" class="cls-4" d="M56,51.1a1.38,1.38,0,0,0-.3.4h0A32.01,32.01,0,0,1,0,31v1A32,32,0,0,0,55.7,53.5h0a1.38,1.38,0,0,0,.3-.4A31.552,31.552,0,0,0,64,32V31A31.941,31.941,0,0,1,56,51.1Z"/>
        <path id="Path_188" data-name="Path 188" class="cls-4" d="M44,19.6a31.02,31.02,0,0,1-10,2.3v2a31.02,31.02,0,0,0,10-2.3,43.044,43.044,0,0,1,.8,6.4H45A56.749,56.749,0,0,0,44,19.6Z"/>
        <path id="Path_189" data-name="Path 189" class="cls-4" d="M34.1,32v2H44.9c0-.7.1-1.3.1-2Z"/>
        <path id="Path_190" data-name="Path 190" class="cls-4" d="M41.9,3.8c.6.8,1.2,1.8,1.8,2.8A25.607,25.607,0,0,1,50.5,11c.4-.3.7-.7,1.1-1A29.231,29.231,0,0,0,41.9,3.8Z"/>
        <path id="Path_191" data-name="Path 191" class="cls-4" d="M34.1,2.4v2c3.5,1.2,6.5,5.5,8.5,11.5.2-.1.4-.1.6-.2C41.2,8.8,37.9,3.7,34.1,2.4Z"/>
      </g>
    </g>
  </g>
</svg>
