<?xml version="1.0" encoding="utf-8"?>
<svg id="master-artboard" viewBox="0 0 336 235.2" version="1.1" xmlns="http://www.w3.org/2000/svg" x="0px" y="0px" style="enable-background:new 0 0 336 235.2;" width="336px" height="235.1999969482422px" xmlns:xlink="http://www.w3.org/1999/xlink">


<path class="st1" d="M277.5,192.1l-0.6-0.3l0.4-0.9l0.6,0.3L277.5,192.1z M273.3,190.2c-1.3-0.6-2.5-1.1-3.7-1.6l0.4-0.9&#10;&#9;&#9;c1.2,0.5,2.4,1.1,3.7,1.6L273.3,190.2z M266,187l-3.7-1.6l0.4-0.9l3.7,1.6L266,187z M258.6,183.8c-1.3-0.6-2.5-1.1-3.7-1.6l0.4-0.9&#10;&#9;&#9;c1.1,0.5,2.3,1,3.7,1.6L258.6,183.8z M251.3,180.5c-1.4-0.7-2.6-1.3-3.5-1.8l0.4-0.9l0.1,0.1c0.9,0.5,2,1.1,3.4,1.8L251.3,180.5z&#10;&#9;&#9; M244.3,176.5c-1.1-0.7-2.2-1.5-3.4-2.2l0.6-0.8c1.1,0.7,2.2,1.5,3.3,2.2L244.3,176.5z M237.7,172c-1.1-0.8-2.1-1.6-3.2-2.4&#10;&#9;&#9;l0.6-0.8c1,0.8,2.1,1.6,3.2,2.4L237.7,172z M231.3,167.1c-1-0.8-2.1-1.7-3.1-2.6l0.7-0.8c1,0.9,2,1.7,3.1,2.6L231.3,167.1z&#10;&#9;&#9; M225.3,161.8c-1-0.9-2-1.8-3-2.7l0.7-0.7c1,0.9,2,1.8,2.9,2.7L225.3,161.8z M219.4,156.3c-1.1-1.1-2-2-2.8-2.9l0.7-0.7&#10;&#9;&#9;c0.8,0.9,1.6,1.7,2.8,2.9L219.4,156.3z M214,150.3c-0.9-1.1-1.7-2.2-2.3-3.3l0.8-0.5c0.6,1,1.4,2.1,2.3,3.2L214,150.3z&#10;&#9;&#9; M209.8,143.4c-0.5-1.3-0.9-2.7-1.1-4l1-0.1c0.2,1.2,0.5,2.5,1,3.7L209.8,143.4z M209.7,135.5l-1-0.2c0.3-1.4,0.8-2.7,1.5-3.9&#10;&#9;&#9;l0.8,0.5C210.4,133.1,209.9,134.3,209.7,135.5z M213.6,129.1l-0.7-0.7c0.9-0.8,2-1.6,3.3-2.4l0.5,0.8&#10;&#9;&#9;C215.5,127.5,214.5,128.2,213.6,129.1z M220.2,124.7l-0.5-0.9c0.4-0.2,0.8-0.4,1.1-0.6c0.8-0.4,1.7-0.8,2.5-1.1l0.4,0.9&#10;&#9;&#9;c-0.8,0.4-1.7,0.7-2.5,1.1C220.9,124.4,220.6,124.6,220.2,124.7z M227.5,121.6l-0.3-0.9c1.2-0.4,2.5-0.9,3.8-1.3l0.3,1&#10;&#9;&#9;C229.9,120.8,228.7,121.2,227.5,121.6z M235,119.2l-0.3-1c1.3-0.4,2.6-0.7,3.9-1.1l0.3,1C237.6,118.4,236.3,118.8,235,119.2z&#10;&#9;&#9; M242.8,117.1l-0.3-1c1.3-0.3,2.6-0.7,3.9-1l0.3,1C245.3,116.4,244,116.7,242.8,117.1z M250.5,114.9l-0.3-1l0.7-0.2l3.1-0.8l0.3,1&#10;&#9;&#9;L250.5,114.9z M164.5,114.5l-0.8-0.6c0.7-1.1,1.5-2.2,2.3-3.3l0.8,0.6C166,112.3,165.2,113.4,164.5,114.5z M258.2,112.8l-0.3-1&#10;&#9;&#9;c1.3-0.4,2.6-0.7,3.8-1.1l0.3,1C260.8,112.1,259.5,112.5,258.2,112.8z M265.9,110.5l-0.3-1c1.3-0.4,2.6-0.9,3.8-1.3l0.3,0.9&#10;&#9;&#9;C268.5,109.7,267.2,110.1,265.9,110.5z M169.1,108l-0.8-0.6c0.8-1.1,1.6-2.2,2.5-3.2l0.8,0.6C170.7,105.8,169.9,106.9,169.1,108z&#10;&#9;&#9; M273.4,107.7l-0.4-0.9c1.2-0.5,2.5-1.1,3.6-1.6l0.4,0.9C275.9,106.6,274.7,107.2,273.4,107.7z M280.6,104l-0.5-0.8&#10;&#9;&#9;c1.2-0.8,2.2-1.6,3.2-2.3l0.6,0.8C282.9,102.4,281.8,103.2,280.6,104z M174,101.8l-0.8-0.7c0.9-1,1.8-2,2.7-3l0.7,0.7&#10;&#9;&#9;C175.8,99.8,174.9,100.7,174,101.8z M286.7,98.7l-0.8-0.6c0.8-1.1,1.5-2.2,1.9-3.3l0.9,0.4C288.3,96.4,287.6,97.6,286.7,98.7z&#10;&#9;&#9; M179.6,96.2l-0.6-0.8c1.1-0.8,2.2-1.6,3.3-2.4l0.6,0.8C181.8,94.6,180.7,95.4,179.6,96.2z M186.2,91.7l-0.5-0.9&#10;&#9;&#9;c1.2-0.7,2.3-1.3,3.5-2l0.5,0.9C188.5,90.4,187.3,91.1,186.2,91.7z M289.6,91.1l-1-0.1c0-0.2,0-0.5,0-0.7c0-1-0.1-2-0.4-3.1l1-0.2&#10;&#9;&#9;c0.3,1.1,0.4,2.2,0.4,3.3C289.7,90.5,289.6,90.8,289.6,91.1z M193.2,88.1l-0.4-0.9c1.2-0.5,2.5-1,3.7-1.5l0.3,0.9&#10;&#9;&#9;C195.7,87.1,194.5,87.6,193.2,88.1z M200.7,85.4l-0.3-1c1.2-0.4,2.5-0.8,3.8-1.1l0.3,1C203.2,84.6,201.9,85,200.7,85.4z&#10;&#9;&#9; M286.9,83.6c-0.6-1.1-1.3-2.2-2.2-3.2l0.8-0.6c0.9,1.1,1.7,2.2,2.3,3.4L286.9,83.6z M208.4,83.2l-0.2-1c1.3-0.3,2.6-0.6,3.9-0.9&#10;&#9;&#9;l0.2,1C211,82.6,209.7,82.9,208.4,83.2z M216.2,81.5l-0.2-1c1.3-0.3,2.6-0.5,3.9-0.8l0.2,1C218.8,81,217.5,81.2,216.2,81.5z&#10;&#9;&#9; M224,80.1l-0.2-1c1.3-0.2,2.6-0.4,4-0.6l0.2,1C226.6,79.6,225.3,79.8,224,80.1z M231.9,78.8l-0.2-1l4-0.6l0.2,1L231.9,78.8z&#10;&#9;&#9; M281.9,77.7c-1-0.8-2.1-1.6-3.2-2.2l0.5-0.9c1.2,0.7,2.3,1.4,3.4,2.3L281.9,77.7z M239.8,77.6l-0.2-1c1.3-0.2,2.6-0.4,3.9-0.6&#10;&#9;&#9;l0.2,1C242.5,77.1,241.1,77.3,239.8,77.6z M247.7,76.2l-0.2-1c1.3-0.2,2.6-0.5,3.9-0.7l0.2,1C250.4,75.7,249.1,76,247.7,76.2z&#10;&#9;&#9; M255.6,74.7l-0.2-1l3.9-0.7l0.2,1L255.6,74.7z M275.1,73.9c-0.2-0.1-0.4-0.1-0.6-0.2c-1.1-0.3-2.1-0.5-3.2-0.6l0.1-1&#10;&#9;&#9;c1.1,0.1,2.2,0.3,3.3,0.6c0.2,0.1,0.5,0.1,0.7,0.2L275.1,73.9z M263.4,73.3l-0.2-1l0.2,0c1.4-0.2,2.6-0.3,3.8-0.3l0,1&#10;&#9;&#9;c-1.2,0-2.4,0.1-3.7,0.3L263.4,73.3z" style="fill: rgb(16, 155, 248);" transform="matrix(1, 0, 0, 1, 0, 0)"/>
<path class="st1" d="M71.9,182.8l0-1c1.3,0,2.6-0.1,3.9-0.3l0.1,1C74.6,182.7,73.2,182.8,71.9,182.8z M67.9,182.6&#10;&#9;&#9;c-1.4-0.1-2.7-0.3-4-0.6l0.2-1c1.2,0.3,2.5,0.5,3.9,0.6L67.9,182.6z M79.9,181.9l-0.2-1c1.2-0.3,2.5-0.6,3.8-1l0.3,1&#10;&#9;&#9;C82.5,181.3,81.2,181.6,79.9,181.9z M60,180.6c-1.2-0.6-2.4-1.3-3.5-2.2l0.6-0.8c1,0.8,2.1,1.5,3.3,2L60,180.6z M87.7,179.6&#10;&#9;&#9;l-0.4-0.9c1.2-0.5,2.4-1,3.7-1.5l0.4,0.9C90.1,178.6,88.9,179.1,87.7,179.6z M95,176.3l-0.4-0.9c1.1-0.6,2.3-1.2,3.5-1.9l0.5,0.9&#10;&#9;&#9;C97.4,175.1,96.2,175.8,95,176.3z M53.5,175.7c-0.9-1-1.7-2.1-2.4-3.3l0.9-0.5c0.7,1.1,1.4,2.2,2.3,3.2L53.5,175.7z M102.1,172.5&#10;&#9;&#9;l-0.5-0.9c1.2-0.7,2.3-1.4,3.4-2.1l0.5,0.8C104.4,171.1,103.3,171.8,102.1,172.5z M49.4,168.7c-0.3-0.8-0.6-1.6-0.8-2.4&#10;&#9;&#9;c-0.1-0.5-0.3-1-0.4-1.5l1-0.2c0.1,0.5,0.3,1,0.4,1.4c0.2,0.8,0.5,1.6,0.8,2.3L49.4,168.7z M108.9,168.2l-0.5-0.8&#10;&#9;&#9;c1.1-0.7,2.2-1.4,3.3-2.2l0.6,0.8C111.1,166.8,110,167.5,108.9,168.2z M115.6,163.8L115,163c1.1-0.8,2.2-1.5,3.2-2.3l0.6,0.8&#10;&#9;&#9;C117.8,162.2,116.7,163,115.6,163.8z M47.4,160.8c-0.2-1.4-0.3-2.7-0.3-4l1,0c0,1.3,0.1,2.6,0.3,3.9L47.4,160.8z M122,159l-0.6-0.8&#10;&#9;&#9;c1-0.8,2.1-1.6,3.1-2.5l0.6,0.8C124.1,157.4,123.1,158.2,122,159z M128.2,153.9l-0.7-0.8c1-0.9,2-1.8,3-2.7l0.7,0.7&#10;&#9;&#9;C130.2,152.1,129.2,153,128.2,153.9z M48.3,152.9l-1-0.1c0.2-1.4,0.5-2.7,1-4l0.9,0.3C48.8,150.3,48.5,151.5,48.3,152.9z&#10;&#9;&#9; M134.1,148.4l-0.7-0.7c0.9-1,1.9-1.9,2.7-2.9l0.7,0.7C136,146.5,135,147.5,134.1,148.4z M51,145.6l-0.8-0.6&#10;&#9;&#9;c0.2-0.2,0.3-0.5,0.5-0.7c0.6-0.9,1.4-1.6,2.3-2.4l0.6,0.8c-0.8,0.7-1.5,1.4-2.1,2.2C51.3,145.2,51.1,145.4,51,145.6z M139.5,142.5&#10;&#9;&#9;l-0.8-0.6l0.4-0.5c0.6-0.9,1.3-1.8,1.9-2.7l0.8,0.6c-0.6,0.9-1.3,1.8-1.9,2.7L139.5,142.5z M56.8,140.7l-0.4-0.9&#10;&#9;&#9;c1.1-0.6,2.4-1,3.8-1.5l0.3,1C59.1,139.7,57.9,140.2,56.8,140.7z M64.3,138.3l-0.2-1c1.2-0.2,2.4-0.5,4-0.7l0.1,1&#10;&#9;&#9;C66.7,137.9,65.4,138.1,64.3,138.3z M72.2,137.1l-0.2-1l0.7-0.1c1.1-0.2,2.2-0.3,3.3-0.5l0.2,1c-1.1,0.2-2.2,0.4-3.3,0.5&#10;&#9;&#9;L72.2,137.1z M144,135.8l-0.9-0.5c0.7-1.2,1.2-2.4,1.7-3.5l0.9,0.4C145.3,133.3,144.7,134.5,144,135.8z M80.1,135.7l-0.2-1&#10;&#9;&#9;c1.4-0.3,2.7-0.5,3.9-0.8l0.2,1C82.8,135.2,81.5,135.5,80.1,135.7z M87.9,133.9l-0.3-1c1.3-0.4,2.6-0.8,3.8-1.2l0.4,0.9&#10;&#9;&#9;C90.5,133.1,89.2,133.5,87.9,133.9z M95.4,131l-0.4-0.9c1.2-0.6,2.4-1.3,3.4-2L99,129C97.9,129.7,96.7,130.4,95.4,131z&#10;&#9;&#9; M146.9,128.2l-1-0.2c0.3-1.2,0.5-2.6,0.6-3.9l1,0.1C147.4,125.6,147.2,126.9,146.9,128.2z M102.2,126.6l-0.7-0.8&#10;&#9;&#9;c1-0.9,1.9-1.8,2.7-2.8l0.8,0.6C104.2,124.6,103.3,125.6,102.2,126.6z M107.1,120.1l-0.9-0.4c0.4-0.8,0.7-1.7,0.9-2.6&#10;&#9;&#9;c0.1-0.4,0.1-0.7,0.2-1.1l1,0.1c-0.1,0.4-0.1,0.8-0.2,1.2C107.8,118.2,107.5,119.2,107.1,120.1z M107.2,112.1&#10;&#9;&#9;c-0.1-1.2-0.4-2.4-0.8-3.8l1-0.3c0.4,1.5,0.7,2.8,0.8,4L107.2,112.1z M105.3,104.4l-0.2-0.6c-0.4-0.9-0.9-1.9-1.5-2.9l0.9-0.5&#10;&#9;&#9;c0.6,1,1.1,2,1.5,3l0.2,0.7L105.3,104.4z M101.5,97.6c-0.7-1.1-1.5-2.2-2.3-3.2l0.8-0.6c0.8,1.1,1.6,2.2,2.3,3.3L101.5,97.6z&#10;&#9;&#9; M96.7,91.2c-0.8-1-1.7-2-2.6-3l0.7-0.7c0.9,1,1.8,2.1,2.6,3L96.7,91.2z M91.4,85.3c-0.9-1-1.9-1.9-2.8-2.9l0.7-0.7&#10;&#9;&#9;c0.9,0.9,1.9,1.9,2.8,2.9L91.4,85.3z M85.8,79.6L83.2,77c-0.1-0.1-0.2-0.2-0.2-0.3l0.8-0.7c0.1,0.1,0.1,0.2,0.2,0.3l2.6,2.6&#10;&#9;&#9;L85.8,79.6z M80.2,73.9c-1-0.9-2-1.9-2.8-3l0.8-0.6c0.7,1,1.7,2,2.6,2.9L80.2,73.9z M139.6,70.6v-1c1.3,0,2.6,0,4,0l0,1&#10;&#9;&#9;C142.3,70.6,140.9,70.6,139.6,70.6z M147.7,70.6l0-1c1.4,0,2.7-0.1,4-0.2l0.1,1C150.4,70.5,149.1,70.5,147.7,70.6z M135.6,70.4&#10;&#9;&#9;c-1.3-0.1-2.7-0.2-4-0.3l0.1-1c1.3,0.1,2.7,0.2,4,0.3L135.6,70.4z M155.7,69.8l-0.3-1c1.2-0.3,2.5-0.8,3.6-1.4l0.5,0.9&#10;&#9;&#9;C158.4,69,157,69.5,155.7,69.8z M127.6,69.8c-1.3-0.1-2.6-0.2-4-0.4l0.1-1c1.3,0.1,2.7,0.3,4,0.4L127.6,69.8z M119.7,68.9&#10;&#9;&#9;c-0.7-0.1-1.5-0.2-2.2-0.3c-0.6,0-1.2-0.1-1.8-0.1l0.1-1c0.6,0,1.2,0.1,1.8,0.1c0.8,0.1,1.5,0.2,2.2,0.3L119.7,68.9z M111.7,68.1&#10;&#9;&#9;c-1.3-0.1-2.7-0.3-4-0.4l0.1-1c1.3,0.2,2.7,0.3,4,0.4L111.7,68.1z M103.7,67.2c-1.3-0.2-2.7-0.3-4-0.5l0.1-1c1.3,0.2,2.6,0.4,4,0.5&#10;&#9;&#9;L103.7,67.2z M77.1,67.1l-0.9-0.3c0.6-1.7,2.8-2.1,3.8-2.1l0.1,1C79.4,65.7,77.4,66,77.1,67.1z M95.8,66.1c-1.3-0.1-2.6-0.3-4-0.4&#10;&#9;&#9;l0.1-1c1.4,0.1,2.7,0.2,4,0.4L95.8,66.1z M87.9,65.5c-1.3-0.1-2.7-0.1-4-0.1l0-1c1.3,0,2.7,0,4,0.1L87.9,65.5z M160.9,64.8&#10;&#9;&#9;c-0.1-0.6-0.3-1.2-0.8-1.9c-0.3-0.5-0.6-0.9-0.9-1.4l0.8-0.6c0.4,0.5,0.7,1,1,1.5c0.5,0.8,0.8,1.6,0.9,2.3L160.9,64.8z M156.5,58.7&#10;&#9;&#9;c-1-0.9-2-1.7-3-2.4l0.2-0.5l0.3-0.4c1.1,0.8,2.1,1.7,3.1,2.5L156.5,58.7z M150.2,53.9c-0.9-0.6-2.1-1.4-3.3-2.3l0.6-0.8&#10;&#9;&#9;c1.3,0.9,2.4,1.6,3.3,2.2L150.2,53.9z M143.6,49.4l-3.3-2.3l0.6-0.8l3.3,2.3L143.6,49.4z M137,44.8l-3.3-2.3l0.6-0.8l3.3,2.3&#10;&#9;&#9;L137,44.8z M130.4,40.3c-1.3-0.9-2.4-1.6-3.3-2.2l0.6-0.8c0.9,0.6,2.1,1.4,3.3,2.2L130.4,40.3z" style="fill: rgb(16, 155, 248);" transform="matrix(1, 0, 0, 1, 0, 0)"/>
<path d="M 90.9000015258789 96.4000015258789 L 33.79999923706055 96.4000015258789 L 33.79999923706055 25.700000762939453 L 74.5999984741211 25.700000762939453 L 90.9000015258789 41 Z" class="st2" style="fill: rgb(214, 214, 214);" transform="matrix(1, 0, 0, 1, 0, 0)"/>
<path d="M 87.69999694824219 92.9000015258789 L 37 92.9000015258789 L 37 31.100000381469727 L 73.30000305175781 31.100000381469727 L 87.69999694824219 43.5 Z" class="st3" style="fill: rgb(249, 244, 223);" transform="matrix(1, 0, 0, 1, 0, 0)"/>
<path d="M 74.599998 25.700001 L 90.900002 41 L 74.599998 41 L 74.599998 26.9" class="st4" style="fill: rgb(201, 201, 201);" transform="matrix(1, 0, 0, 1, 0, 0)"/>
<path d="M 43.099998 37 H 68.599998 V 43.1 H 43.099998 V 37 Z" class="st5" style="fill: rgb(255, 210, 46);" transform="matrix(1, 0, 0, 1, 0, 0)"/>
<path d="M 54.599998 47 H 80.099998 V 50 H 54.599998 V 47 Z" class="st6" style="fill: rgb(176, 221, 217);" transform="matrix(1, 0, 0, 1, 0, 0)"/>
<path d="M 54.599998 54.5 H 80.099998 V 57.5 H 54.599998 V 54.5 Z" class="st6" style="fill: rgb(176, 221, 217);" transform="matrix(1, 0, 0, 1, 0, 0)"/>
<path d="M 54.599998 62 H 80.099998 V 65 H 54.599998 V 62 Z" class="st6" style="fill: rgb(176, 221, 217);" transform="matrix(1, 0, 0, 1, 0, 0)"/>
<path d="M 54.599998 69.599998 H 80.099998 V 72.599998 H 54.599998 V 69.599998 Z" class="st6" style="fill: rgb(176, 221, 217);" transform="matrix(1, 0, 0, 1, 0, 0)"/>
<path d="M 54.599998 77.099998 H 80.099998 V 80.099998 H 54.599998 V 77.099998 Z" class="st6" style="fill: rgb(176, 221, 217);" transform="matrix(1, 0, 0, 1, 0, 0)"/>
<path d="M 54.599998 84.599998 H 80.099998 V 87.599998 H 54.599998 V 84.599998 Z" class="st6" style="fill: rgb(176, 221, 217);" transform="matrix(1, 0, 0, 1, 0, 0)"/>
<path d="M 49.4 48.5 A 2.9 2.9 0 0 1 46.5 51.4 A 2.9 2.9 0 0 1 43.6 48.5 A 2.9 2.9 0 0 1 46.5 45.6 A 2.9 2.9 0 0 1 49.4 48.5 Z" class="st7" style="fill: rgb(0, 188, 187);" transform="matrix(1, 0, 0, 1, 0, 0)"/>
<path d="M 49.4 56 A 2.9 2.9 0 0 1 46.5 58.9 A 2.9 2.9 0 0 1 43.6 56 A 2.9 2.9 0 0 1 46.5 53.1 A 2.9 2.9 0 0 1 49.4 56 Z" class="st8" style="fill: rgb(0, 211, 172);" transform="matrix(1, 0, 0, 1, 0, 0)"/>
<path d="M 49.4 63.599998 A 2.9 2.9 0 0 1 46.5 66.499999 A 2.9 2.9 0 0 1 43.6 63.599998 A 2.9 2.9 0 0 1 46.5 60.699998 A 2.9 2.9 0 0 1 49.4 63.599998 Z" class="st9" style="fill: rgb(207, 213, 207);" transform="matrix(1, 0, 0, 1, 0, 0)"/>
<path d="M 49.4 71.099998 A 2.9 2.9 0 0 1 46.5 73.999999 A 2.9 2.9 0 0 1 43.6 71.099998 A 2.9 2.9 0 0 1 46.5 68.199998 A 2.9 2.9 0 0 1 49.4 71.099998 Z" class="st5" style="fill: rgb(255, 210, 46);" transform="matrix(1, 0, 0, 1, 0, 0)"/>
<path d="M 49.4 78.599998 A 2.9 2.9 0 0 1 46.5 81.499999 A 2.9 2.9 0 0 1 43.6 78.599998 A 2.9 2.9 0 0 1 46.5 75.699998 A 2.9 2.9 0 0 1 49.4 78.599998 Z" class="st7" style="fill: rgb(0, 188, 187);" transform="matrix(1, 0, 0, 1, 0, 0)"/>
<path d="M 49.4 86.099998 A 2.9 2.9 0 0 1 46.5 88.999999 A 2.9 2.9 0 0 1 43.6 86.099998 A 2.9 2.9 0 0 1 46.5 83.199998 A 2.9 2.9 0 0 1 49.4 86.099998 Z" class="st9" style="fill: rgb(207, 213, 207);" transform="matrix(1, 0, 0, 1, 0, 0)"/>
<path d="M 47.7 48.5 A 1.2 1.2 0 0 1 46.5 49.7 A 1.2 1.2 0 0 1 45.3 48.5 A 1.2 1.2 0 0 1 46.5 47.3 A 1.2 1.2 0 0 1 47.7 48.5 Z" class="st1" style="fill: rgb(255, 255, 255); opacity: 0.5;" transform="matrix(1, 0, 0, 1, 0, 0)"/>
<path d="M 47.7 56 A 1.2 1.2 0 0 1 46.5 57.2 A 1.2 1.2 0 0 1 45.3 56 A 1.2 1.2 0 0 1 46.5 54.8 A 1.2 1.2 0 0 1 47.7 56 Z" class="st1" style="fill: rgb(255, 255, 255); opacity: 0.5;" transform="matrix(1, 0, 0, 1, 0, 0)"/>
<path d="M 47.7 63.599998 A 1.2 1.2 0 0 1 46.5 64.799999 A 1.2 1.2 0 0 1 45.3 63.599998 A 1.2 1.2 0 0 1 46.5 62.399998 A 1.2 1.2 0 0 1 47.7 63.599998 Z" class="st1" style="fill: rgb(255, 255, 255); opacity: 0.5;" transform="matrix(1, 0, 0, 1, 0, 0)"/>
<path class="st1" d="M47.7,71.1c0,0.6-0.5,1.2-1.2,1.2c-0.6,0-1.2-0.5-1.2-1.2c0-0.6,0.5-1.2,1.2-1.2&#10;&#9;&#9;C47.2,69.9,47.7,70.5,47.7,71.1z" style="fill: rgb(255, 255, 255); opacity: 0.5;" transform="matrix(1, 0, 0, 1, 0, 0)"/>
<path d="M 47.7 78.599998 A 1.2 1.2 0 0 1 46.5 79.799999 A 1.2 1.2 0 0 1 45.3 78.599998 A 1.2 1.2 0 0 1 46.5 77.399998 A 1.2 1.2 0 0 1 47.7 78.599998 Z" class="st1" style="fill: rgb(255, 255, 255); opacity: 0.5;" transform="matrix(1, 0, 0, 1, 0, 0)"/>
<path class="st1" d="M47.7,86.1c0,0.6-0.5,1.2-1.2,1.2c-0.6,0-1.2-0.5-1.2-1.2c0-0.6,0.5-1.2,1.2-1.2C47.2,85,47.7,85.5,47.7,86.1z&#10;&#9;&#9;" style="fill: rgb(255, 255, 255); opacity: 0.5;" transform="matrix(1, 0, 0, 1, 0, 0)"/>
<path d="M 308.79998779296875 168.89999389648438 L 251.8000030517578 168.89999389648438 L 251.8000030517578 98.19999694824219 L 292.6000061035156 98.19999694824219 L 308.79998779296875 113.5999984741211 Z" class="st2" style="fill: rgb(214, 214, 214);" transform="matrix(1, 0, 0, 1, 0, 0)"/>
<path d="M 305.70001220703125 165.39999389648438 L 254.89999389648438 165.39999389648438 L 254.89999389648438 103.5999984741211 L 291.20001220703125 103.5999984741211 L 305.70001220703125 116 Z" class="st3" style="fill: rgb(249, 244, 223);" transform="matrix(1, 0, 0, 1, 0, 0)"/>
<path d="M 292.600006 98.199997 L 308.799988 113.599998 L 292.600006 113.599998 L 292.600006 99.400002" class="st4" style="fill: rgb(201, 201, 201);" transform="matrix(1, 0, 0, 1, 0, 0)"/>
<path d="M 261 109.5 H 286.5 V 115.6 H 261 V 109.5 Z" class="st5" style="fill: rgb(255, 210, 46);" transform="matrix(1, 0, 0, 1, 0, 0)"/>
<path d="M 261 121 H 299.200001 V 143.6 H 261 V 121 Z" class="st11" style="fill: rgb(179, 218, 216);" transform="matrix(1, 0, 0, 1, 0, 0)"/>
<path d="M 261 148.5 H 299.200001 V 152.3 H 261 V 148.5 Z" class="st11" style="fill: rgb(179, 218, 216);" transform="matrix(1, 0, 0, 1, 0, 0)"/>
<path d="M 261 155.600006 H 299.200001 V 159.400006 H 261 V 155.600006 Z" class="st11" style="fill: rgb(179, 218, 216);" transform="matrix(1, 0, 0, 1, 0, 0)"/>
<path d="M 281.20001220703125 140.89999389648438 L 277.6000061035156 130.89999389648438 L 272.70001220703125 139.3000030517578 L 267.6000061035156 133.3000030517578 L 265.1000061035156 138.10000610351562 L 263.29998779296875 137.1999969482422 L 267.20001220703125 129.6999969482422 L 272.3999938964844 135.89999389648438 L 278.1000061035156 126.19999694824219 L 282 137.10000610351562 L 290.3999938964844 127.9000015258789 L 291.8999938964844 129.1999969482422 Z" class="st12" style="fill: rgb(255, 81, 50);" transform="matrix(1, 0, 0, 1, 0, 0)"/>
<path d="M 294.20001220703125 124.80000305175781 L 288.20001220703125 126.0999984741211 L 294 130.89999389648438 Z" class="st12" style="fill: rgb(255, 81, 50);" transform="matrix(1, 0, 0, 1, 0, 0)"/>




<path class="st15" d="M151.3,89.4c4.1,2.6,5.4,7.8,3,11.6l0,0c-2.4,3.9-7.7,4.9-11.8,2.3l-27.1-17.1c-4.1-2.6-5.4-7.8-3-11.6l0,0&#10;&#9;&#9;c2.4-3.8,7.7-4.9,11.8-2.3L151.3,89.4z" style="fill: rgb(245, 211, 169);" transform="matrix(1, 0, 0, 1, 0, 0)"/>
<path class="st15" d="M196.1,71l9.4,14.3c0,0,5.1,0.8,9.9,11.4c4.8,10.7,13,26.4,13,26.4s9.6,25.9,0,45l16.3,33.8l-54.9,21.3&#10;&#9;&#9;l-7.1-13.6c0,0-22.3-2.9-33-34.5c0,0-22.3-11.3-23.4-18.4c0,0-0.5-10.2,7.1-9.5l0.8-0.3V158h61.5v-40.2l7.3,5.4&#10;&#9;&#9;c0,0-5.6-13.2-5.3-18.8C197.6,104.3,179.6,82.6,196.1,71z" style="fill: rgb(245, 211, 169);" transform="matrix(1, 0, 0, 1, 0, 0)"/>
<path class="st16" d="M195.7,117.7l10.2,8.4c0,0-1.9,5.2-0.6,8.8c3.6,9.9-28.6,25.5-9.6,48.9C195.7,183.8,159.3,143.9,195.7,117.7z&#10;&#9;&#9;" style="fill: rgb(238, 185, 146);" transform="matrix(1, 0, 0, 1, 0, 0)"/>
<g transform="matrix(1, 0, 0, 1, 0, 0)">
		<path class="st17" d="M195.7,51.6c0-1.7-1.4-3.2-3.2-3.2h-55.1c-1.7,0-3.2,1.4-3.2,3.2v103.2c0,1.7,1.4,3.2,3.2,3.2h55.1&#10;&#9;&#9;&#9;c1.7,0,3.2-1.4,3.2-3.2V51.6z" style="fill: rgb(43, 90, 95);"/>
	</g><path d="M 137.600006 58.599998 H 192.300007 V 142.699997 H 137.600006 V 58.599998 Z" class="st18" style="fill: rgb(214, 214, 214);" transform="matrix(1, 0, 0, 1, 0, 0)"/><path d="M 192.300003 58.599998 L 137.600006 58.599998 L 137.600006 142.699997" class="st1" style="fill: rgb(255, 255, 255); opacity: 0.1;" transform="matrix(1, 0, 0, 1, 0, 0)"/><path class="st2" d="M166.5,53.2c0-0.9-0.7-1.6-1.6-1.6c-0.9,0-1.6,0.7-1.6,1.6c0,0.9,0.7,1.5,1.6,1.5&#10;&#9;&#9;&#9;C165.8,54.7,166.5,54,166.5,53.2z" style="fill: rgb(255, 255, 255); stroke: rgb(255, 255, 255); fill-opacity: 1;" transform="matrix(1, 0, 0, 1, 0, 0)"/><path class="st2" d="M169.3,150.8c0-2.2-1.9-4-4.3-4c-2.4,0-4.3,1.8-4.3,4c0,2.2,1.9,4,4.3,4C167.3,154.8,169.3,153,169.3,150.8z" style="fill: rgb(255, 255, 255);" transform="matrix(1, 0, 0, 1, 0, 0)"/>
<g transform="matrix(1, 0, 0, 1, 0, 0)">
		<path class="st15" d="M194.3,180.1c0.4,0.5,0.8,1,1.2,1.5C195.5,181.6,195,181.1,194.3,180.1c1.9,3,3.7,6.1,4.9,9.2&#10;&#9;&#9;&#9;c3.9-1.9,7.7-3.7,11.4-5.9c1-0.6,2-1.2,3-1.9c0.4-0.3,2.6-1.9,2-1.4c0.4-0.3,0.7-0.6,1.1-0.9c2.2-15.4,6.9-30.4,10-45.6h-20.5&#10;&#9;&#9;&#9;c-0.1,0.2-0.2,0.5-0.4,0.7c-5.3,7.9-24.9,21.1-14.7,40.8C192.1,176.8,193.2,178.4,194.3,180.1z" style="fill: rgb(245, 211, 169);"/>
	</g>
<path class="st15" d="M197.6,105.5h21.9c-1.5-3-2.9-6.1-4.1-8.8c-4.8-10.7-9.9-11.4-9.9-11.4L196.1,71&#10;&#9;&#9;c-16.5,11.6,1.5,33.3,1.5,33.3C197.6,104.7,197.6,105.1,197.6,105.5z" style="fill: rgb(245, 211, 169);" transform="matrix(1, 0, 0, 1, 0, 0)"/>
<g transform="matrix(1, 0, 0, 1, 0, 0)">
		<path class="st16" d="M198,217.8c0,0.6,0,1.1,0.1,1.6l0.4,0.4C198.3,219.1,198.1,218.5,198,217.8z" style="fill: rgb(238, 185, 146);"/>
	</g><path d="M 144.60000610351562 161.5 L 126.80000305175781 158 L 126.80000305175781 158 L 127.4000015258789 158.60000610351562 Z" class="st16" style="fill: rgb(238, 185, 146);" transform="matrix(1, 0, 0, 1, 0, 0)"/><path class="st16" d="M126.8,158c0.1,0.2,0.2,0.3,0.3,0.5l0.4,0.1L126.8,158z" style="fill: rgb(238, 185, 146);" transform="matrix(1, 0, 0, 1, 0, 0)"/><path class="st16" d="M140.5,169.8l-9.6-6.9C133.7,165.4,137.3,167.8,140.5,169.8z" style="fill: rgb(238, 185, 146);" transform="matrix(1, 0, 0, 1, 0, 0)"/><path d="M 126.69999694824219 158 L 126.80000305175781 158 L 126.80000305175781 158 Z" class="st16" style="fill: rgb(238, 185, 146);" transform="matrix(1, 0, 0, 1, 0, 0)"/><path class="st16" d="M182.7,209.5l7.1,13.6l6.4-2.5l-45-41.7C162.3,206.9,182.7,209.5,182.7,209.5z" style="fill: rgb(238, 185, 146);" transform="matrix(1, 0, 0, 1, 0, 0)"/><path class="st16" d="M140.5,169.8l10.6,9.1c-0.5-1.3-1-2.6-1.5-4C149.7,175,145.4,172.9,140.5,169.8z" style="fill: rgb(238, 185, 146);" transform="matrix(1, 0, 0, 1, 0, 0)"/><path class="st16" d="M198,217.8c-1.1-6.7,2.1-14.8,2.1-14.8c-17.6,3.4-34.9-14.9-42.3-24.9c-7.5-10-1-9.3-5.4-10&#10;&#9;&#9;&#9;c-4.4-0.8-7.8-6.6-7.8-6.6l-17.2-2.9l13.1,11.3c4.9,3,9.2,5.2,9.2,5.2c0.5,1.4,1,2.7,1.5,4l47,40.4&#10;&#9;&#9;&#9;C198.1,218.9,198,218.3,198,217.8z" style="fill: rgb(238, 185, 146);" transform="matrix(1, 0, 0, 1, 0, 0)"/><path class="st16" d="M198.1,219.4l-47-40.4l45,41.7l2-0.8C198.1,219.7,198.1,219.6,198.1,219.4z" style="fill: rgb(238, 185, 146);" transform="matrix(1, 0, 0, 1, 0, 0)"/><path d="M 130.899994 163 L 140.5 169.800003 L 127.400002 158.600006 L 127 158.5" class="st16" style="fill: rgb(238, 185, 146);" transform="matrix(1, 0, 0, 1, 0, 0)"/><path class="st16" d="M200.1,203c0,0-3.2,8.1-2.1,14.8C197.9,211,200.1,203,200.1,203z" style="fill: rgb(238, 185, 146);" transform="matrix(1, 0, 0, 1, 0, 0)"/>
<path class="st15" d="M145.4,150.8c4.1,1.5,6.2,5.8,4.8,9.7l0,0c-1.4,3.8-5.9,5.7-9.9,4.2l-8.7-3.2c-4.1-1.5-6.2-5.8-4.8-9.7l0,0&#10;&#9;&#9;c1.4-3.8,5.9-5.7,9.9-4.2L145.4,150.8z" style="fill: rgb(245, 211, 169);" transform="matrix(1, 0, 0, 1, 0, 0)"/>
<path class="st16" d="M142.2,162.5c1.8,0.5,3.9-1.1,4.7-3.7c0.8-2.6-0.1-5.2-1.9-5.7c-0.8-0.2-1.9-0.7-2.7-0.4l-1.3,4.4l-1.3,4.4&#10;&#9;&#9;C140.3,162,141.5,162.3,142.2,162.5z" style="fill: rgb(238, 185, 146);" transform="matrix(1, 0, 0, 1, 0, 0)"/>
<path d="M 213 235.1999969482422 L 256.8999938964844 218.10000610351562 L 249.8000030517578 199.8000030517578 L 183.89999389648438 225.39999389648438 L 187.6999969482422 235.1999969482422 Z" class="st17" style="fill: rgb(234, 234, 234);" transform="matrix(1, 0, 0, 1, 0, 0)"/>
<path d="M 267.70001220703125 235.1999969482422 L 260.5 216.6999969482422 L 213 235.1999969482422 Z" class="st20" style="fill: rgb(237, 144, 110);" transform="matrix(1, 0, 0, 1, 0, 0)"/>
<path class="st16" d="M197.4,73c0,0-2.4,1.4-2.9,2.9s0.8,10.1,5.6,12l5.4-2.6" style="fill: rgb(238, 185, 146);" transform="matrix(1, 0, 0, 1, 0, 0)"/>
<path d="M 267.3999938964844 50.20000076293945 L 252 50.20000076293945 L 252 50.900001525878906 L 252 84.80000305175781 L 276.8999938964844 84.80000305175781 L 276.8999938964844 58.29999923706055 Z" class="st11" style="fill: rgb(179, 218, 216);" transform="matrix(1, 0, 0, 1, 0, 0)"/>
<path d="M 267.29998779296875 58.29999923706055 L 276.79998779296875 58.29999923706055 L 267.29998779296875 50.20000076293945 Z" class="st3" style="fill: rgb(249, 244, 223);" transform="matrix(1, 0, 0, 1, 0, 0)"/>
<path d="M 299.79998779296875 50.20000076293945 L 284.3999938964844 50.20000076293945 L 284.3999938964844 50.900001525878906 L 284.3999938964844 84.80000305175781 L 309.29998779296875 84.80000305175781 L 309.29998779296875 58.29999923706055 Z" class="st18" style="fill: rgb(255, 114, 89);" transform="matrix(1, 0, 0, 1, 0, 0)"/>
<path d="M 299.79998779296875 58.29999923706055 L 309.20001220703125 58.29999923706055 L 299.79998779296875 50.20000076293945 Z" class="st3" style="fill: rgb(249, 244, 223);" transform="matrix(1, 0, 0, 1, 0, 0)"/>
<path d="M 49.20000076293945 107.5 L 33.79999923706055 107.5 L 33.79999923706055 108.19999694824219 L 33.79999923706055 142 L 58.599998474121094 142 L 58.599998474121094 115.5999984741211 Z" class="st5" style="fill: rgb(255, 210, 46);" transform="matrix(1, 0, 0, 1, 0, 0)"/>
<path d="M 49.099998474121094 115.5999984741211 L 58.5 115.5999984741211 L 49.099998474121094 107.5 Z" class="st3" style="fill: rgb(249, 244, 223);" transform="matrix(1, 0, 0, 1, 0, 0)"/>
<path d="M 81.4000015258789 127.5 L 66.0999984741211 127.5 L 66.0999984741211 128.1999969482422 L 66.0999984741211 162 L 90.9000015258789 162 L 90.9000015258789 135.60000610351562 Z" class="st21" style="fill: rgb(247, 173, 64);" transform="matrix(1, 0, 0, 1, 0, 0)"/>
<path d="M 81.4000015258789 135.60000610351562 L 90.80000305175781 135.60000610351562 L 81.4000015258789 127.5 Z" class="st3" style="fill: rgb(249, 244, 223);" transform="matrix(1, 0, 0, 1, 0, 0)"/>
<path d="M 306.100006 209.899994 L 305.899994 209.800003 L 281.899994 190.600006 L 289.899994 178.100006" class="st22" style="fill: rgb(16, 155, 248);" transform="matrix(1, 0, 0, 1, 0, 0)"/>
<path d="M 306.299988 209.699997 L 306 209.600006 L 278.600006 195.800003 L 270.600006 208.399994" class="st22" style="fill: rgb(16, 155, 248);" transform="matrix(1, 0, 0, 1, 0, 0)"/>
<g transform="matrix(1, 0, 0, 1, 0, 0)">
		<defs>
			<path d="M 281.8999938964844 190.60000610351562 L 306 209.6999969482422 L 278.6000061035156 195.8000030517578 L 276.20001220703125 190.6999969482422 Z" id="SVGID_1_"/>
		</defs>
		<clipPath id="SVGID_2_">
			<use style="overflow:visible;" xlink:href="#SVGID_1_"/>
		</clipPath>
		<path d="M 306 206 L 281.8999938964844 190.60000610351562 L 306 190.60000610351562 Z" class="st23" style="clip-path: url('#SVGID_2_'); fill: rgb(16, 155, 248);"/>
		<path d="M 306 206.3000030517578 L 281.5 190.60000610351562 L 281.8999938964844 190.60000610351562 L 306 206 Z" class="st23" style="clip-path: url('#SVGID_2_'); fill: rgb(16, 155, 248);"/>
		<path d="M 306 206.60000610351562 L 281.1000061035156 190.60000610351562 L 281.5 190.60000610351562 L 306 206.3000030517578 Z" class="st23" style="clip-path: url('#SVGID_2_'); fill: rgb(16, 155, 248);"/>
		<path d="M 306 206.8000030517578 L 280.70001220703125 190.60000610351562 L 281.1000061035156 190.60000610351562 L 306 206.60000610351562 Z" class="st24" style="clip-path: url('#SVGID_2_'); fill: rgb(16, 155, 248);"/>
		<path d="M 306 207.10000610351562 L 280.29998779296875 190.60000610351562 L 280.70001220703125 190.60000610351562 L 306 206.8000030517578 Z" class="st25" style="clip-path: url('#SVGID_2_'); fill: rgb(16, 155, 248);"/>
		<path d="M 306 207.3000030517578 L 279.8999938964844 190.60000610351562 L 280.29998779296875 190.60000610351562 L 306 207.10000610351562 Z" class="st25" style="clip-path: url('#SVGID_2_'); fill: rgb(16, 155, 248);"/>
		<path d="M 306 207.60000610351562 L 279.5 190.60000610351562 L 279.8999938964844 190.60000610351562 L 306 207.3000030517578 Z" class="st26" style="clip-path: url('#SVGID_2_'); fill: rgb(16, 155, 248);"/>
		<path d="M 306 207.89999389648438 L 279.1000061035156 190.60000610351562 L 279.5 190.60000610351562 L 306 207.60000610351562 Z" class="st27" style="clip-path: url('#SVGID_2_'); fill: rgb(16, 155, 248);"/>
		<path d="M 306 208.10000610351562 L 278.70001220703125 190.60000610351562 L 279.1000061035156 190.60000610351562 L 306 207.89999389648438 Z" class="st28" style="clip-path: url('#SVGID_2_'); fill: rgb(16, 155, 248);"/>
		<path d="M 306 208.39999389648438 L 278.20001220703125 190.60000610351562 L 278.70001220703125 190.60000610351562 L 306 208.10000610351562 Z" class="st29" style="clip-path: url('#SVGID_2_'); fill: rgb(16, 155, 248);"/>
		<path d="M 306 208.60000610351562 L 277.79998779296875 190.60000610351562 L 278.20001220703125 190.60000610351562 L 306 208.39999389648438 Z" class="st30" style="clip-path: url('#SVGID_2_'); fill: rgb(16, 155, 248);"/>
		<path d="M 306 208.89999389648438 L 277.3999938964844 190.60000610351562 L 277.79998779296875 190.60000610351562 L 306 208.60000610351562 Z" class="st30" style="clip-path: url('#SVGID_2_'); fill: rgb(16, 155, 248);"/>
		<path d="M 306 209.1999969482422 L 277 190.60000610351562 L 277.3999938964844 190.60000610351562 L 306 208.89999389648438 Z" class="st31" style="clip-path: url('#SVGID_2_'); fill: rgb(16, 155, 248);"/>
		<path d="M 306 209.39999389648438 L 276.6000061035156 190.60000610351562 L 277 190.60000610351562 L 306 209.1999969482422 Z" class="st32" style="clip-path: url('#SVGID_2_'); fill: rgb(16, 155, 248);"/>
		<path d="M 306 209.6999969482422 L 276.20001220703125 190.6999969482422 L 276.20001220703125 190.60000610351562 L 276.6000061035156 190.60000610351562 L 306 209.39999389648438 L 306 209.6999969482422 Z" class="st33" style="clip-path: url('#SVGID_2_'); fill: rgb(16, 155, 248);"/>
		<path d="M 305.6000061035156 209.6999969482422 L 276.20001220703125 190.89999389648438 L 276.20001220703125 190.6999969482422 L 306 209.6999969482422 Z" class="st34" style="clip-path: url('#SVGID_2_'); fill: rgb(16, 155, 248);"/>
		<path d="M 305.20001220703125 209.6999969482422 L 276.20001220703125 191.1999969482422 L 276.20001220703125 190.89999389648438 L 305.6000061035156 209.6999969482422 Z" class="st35" style="clip-path: url('#SVGID_2_'); fill: rgb(16, 155, 248);"/>
		<path d="M 304.79998779296875 209.6999969482422 L 276.20001220703125 191.39999389648438 L 276.20001220703125 191.1999969482422 L 305.20001220703125 209.6999969482422 Z" class="st36" style="clip-path: url('#SVGID_2_'); fill: rgb(16, 155, 248);"/>
		<path d="M 304.29998779296875 209.6999969482422 L 276.20001220703125 191.6999969482422 L 276.20001220703125 191.39999389648438 L 304.79998779296875 209.6999969482422 Z" class="st37" style="clip-path: url('#SVGID_2_'); fill: rgb(16, 155, 248);"/>
		<path d="M 303.8999938964844 209.6999969482422 L 276.20001220703125 192 L 276.20001220703125 191.6999969482422 L 304.29998779296875 209.6999969482422 Z" class="st38" style="clip-path: url('#SVGID_2_'); fill: rgb(16, 155, 248);"/>
		<path d="M 303.5 209.6999969482422 L 276.20001220703125 192.1999969482422 L 276.20001220703125 192 L 303.8999938964844 209.6999969482422 Z" class="st39" style="clip-path: url('#SVGID_2_'); fill: rgb(16, 155, 248);"/>
		<path d="M 303.1000061035156 209.6999969482422 L 276.20001220703125 192.5 L 276.20001220703125 192.1999969482422 L 303.5 209.6999969482422 Z" class="st40" style="clip-path: url('#SVGID_2_'); fill: rgb(16, 155, 248);"/>
		<path d="M 302.70001220703125 209.6999969482422 L 276.20001220703125 192.6999969482422 L 276.20001220703125 192.5 L 303.1000061035156 209.6999969482422 Z" class="st41" style="clip-path: url('#SVGID_2_'); fill: rgb(16, 155, 248);"/>
		<path d="M 302.29998779296875 209.6999969482422 L 276.20001220703125 193 L 276.20001220703125 192.6999969482422 L 302.70001220703125 209.6999969482422 Z" class="st42" style="clip-path: url('#SVGID_2_'); fill: rgb(16, 155, 248);"/>
		<path d="M 301.8999938964844 209.6999969482422 L 276.20001220703125 193.3000030517578 L 276.20001220703125 193 L 302.29998779296875 209.6999969482422 Z" class="st43" style="clip-path: url('#SVGID_2_'); fill: rgb(16, 155, 248);"/>
		<path d="M 301.5 209.6999969482422 L 276.20001220703125 193.5 L 276.20001220703125 193.3000030517578 L 301.8999938964844 209.6999969482422 Z" class="st44" style="clip-path: url('#SVGID_2_'); fill: rgb(16, 155, 248);"/>
		<path d="M 301.1000061035156 209.6999969482422 L 276.20001220703125 193.8000030517578 L 276.20001220703125 193.5 L 301.5 209.6999969482422 Z" class="st45" style="clip-path: url('#SVGID_2_'); fill: rgb(16, 155, 248);"/>
		<path d="M 300.70001220703125 209.6999969482422 L 276.20001220703125 194.10000610351562 L 276.20001220703125 193.8000030517578 L 301.1000061035156 209.6999969482422 Z" class="st46" style="clip-path: url('#SVGID_2_'); fill: rgb(16, 155, 248);"/>
		<path d="M 300.29998779296875 209.6999969482422 L 276.20001220703125 194.3000030517578 L 276.20001220703125 194.10000610351562 L 300.70001220703125 209.6999969482422 Z" class="st47" style="clip-path: url('#SVGID_2_'); fill: rgb(16, 155, 248);"/>
		<path d="M 276.20001220703125 194.3000030517578 L 300.29998779296875 209.6999969482422 L 276.20001220703125 209.6999969482422 Z" class="st47" style="clip-path: url('#SVGID_2_'); fill: rgb(16, 155, 248);"/>
	</g>
<path d="M 104.300003 17.9 L 104.5 18.1 L 126.199997 39.799999 L 116.800003 51.299999" class="st22" style="fill: rgb(16, 155, 248);" transform="matrix(1, 0, 0, 1, 0, 0)"/>
<path d="M 104.099998 18.1 L 104.300003 18.200001 L 130.100006 35 L 139.399994 23.4" class="st22" style="fill: rgb(16, 155, 248);" transform="matrix(1, 0, 0, 1, 0, 0)"/>
<g transform="matrix(1, 0, 0, 1, 0, 0)">
		<defs>
			<path d="M 126.19999694824219 39.79999923706055 L 104.4000015258789 18.100000381469727 L 130 35 L 131.8000030517578 40.400001525878906 Z" id="SVGID_3_"/>
		</defs>
		<clipPath id="SVGID_4_">
			<use style="overflow:visible;" xlink:href="#SVGID_3_"/>
		</clipPath>
		<path d="M 104.4000015258789 22.100000381469727 L 126.9000015258789 40.400001525878906 L 104.4000015258789 40.400001525878906 Z" class="st48" style="clip-path: url('#SVGID_4_'); fill: rgb(16, 155, 248);"/>
		<path d="M 104.4000015258789 21.799999237060547 L 127.30000305175781 40.400001525878906 L 126.9000015258789 40.400001525878906 L 104.4000015258789 22.100000381469727 Z" class="st48" style="clip-path: url('#SVGID_4_'); fill: rgb(16, 155, 248);"/>
		<path d="M 104.4000015258789 21.5 L 127.5999984741211 40.400001525878906 L 127.30000305175781 40.400001525878906 L 104.4000015258789 21.799999237060547 Z" class="st48" style="clip-path: url('#SVGID_4_'); fill: rgb(16, 155, 248);"/>
		<path d="M 104.4000015258789 21.200000762939453 L 128 40.400001525878906 L 127.5999984741211 40.400001525878906 L 104.4000015258789 21.5 Z" class="st49" style="clip-path: url('#SVGID_4_'); fill: rgb(16, 155, 248);"/>
		<path d="M 104.4000015258789 21 L 128.3000030517578 40.400001525878906 L 128 40.400001525878906 L 104.4000015258789 21.200000762939453 Z" class="st50" style="clip-path: url('#SVGID_4_'); fill: rgb(16, 155, 248);"/>
		<path d="M 104.4000015258789 20.700000762939453 L 128.6999969482422 40.400001525878906 L 128.3000030517578 40.400001525878906 L 104.4000015258789 21 Z" class="st50" style="clip-path: url('#SVGID_4_'); fill: rgb(16, 155, 248);"/>
		<path d="M 104.4000015258789 20.399999618530273 L 129 40.400001525878906 L 128.6999969482422 40.400001525878906 L 104.4000015258789 20.700000762939453 Z" class="st51" style="clip-path: url('#SVGID_4_'); fill: rgb(16, 155, 248);"/>
		<path d="M 104.4000015258789 20.100000381469727 L 129.39999389648438 40.400001525878906 L 129 40.400001525878906 L 104.4000015258789 20.399999618530273 Z" class="st52" style="clip-path: url('#SVGID_4_'); fill: rgb(16, 155, 248);"/>
		<path d="M 104.4000015258789 19.799999237060547 L 129.6999969482422 40.400001525878906 L 129.39999389648438 40.400001525878906 L 104.4000015258789 20.100000381469727 Z" class="st53" style="clip-path: url('#SVGID_4_'); fill: rgb(16, 155, 248);"/>
		<path d="M 104.4000015258789 19.600000381469727 L 130.10000610351562 40.400001525878906 L 129.6999969482422 40.400001525878906 L 104.4000015258789 19.799999237060547 Z" class="st54" style="clip-path: url('#SVGID_4_'); fill: rgb(16, 155, 248);"/>
		<path d="M 104.4000015258789 19.299999237060547 L 130.39999389648438 40.400001525878906 L 130.10000610351562 40.400001525878906 L 104.4000015258789 19.600000381469727 Z" class="st55" style="clip-path: url('#SVGID_4_'); fill: rgb(16, 155, 248);"/>
		<path d="M 104.4000015258789 19 L 130.8000030517578 40.400001525878906 L 130.39999389648438 40.400001525878906 L 104.4000015258789 19.299999237060547 Z" class="st55" style="clip-path: url('#SVGID_4_'); fill: rgb(16, 155, 248);"/>
		<path d="M 104.4000015258789 18.700000762939453 L 131.10000610351562 40.400001525878906 L 130.8000030517578 40.400001525878906 L 104.4000015258789 19 Z" class="st56" style="clip-path: url('#SVGID_4_'); fill: rgb(16, 155, 248);"/>
		<path d="M 104.4000015258789 18.399999618530273 L 131.5 40.400001525878906 L 131.10000610351562 40.400001525878906 L 104.4000015258789 18.700000762939453 Z" class="st57" style="clip-path: url('#SVGID_4_'); fill: rgb(16, 155, 248);"/>
		<path d="M 104.4000015258789 18.100000381469727 L 131.8000030517578 40.400001525878906 L 131.5 40.400001525878906 L 104.4000015258789 18.399999618530273 L 104.4000015258789 18.100000381469727 Z" class="st58" style="clip-path: url('#SVGID_4_'); fill: rgb(16, 155, 248);"/>
		<path d="M 104.80000305175781 18.100000381469727 L 131.8000030517578 40.099998474121094 L 131.8000030517578 40.400001525878906 L 104.4000015258789 18.100000381469727 Z" class="st59" style="clip-path: url('#SVGID_4_'); fill: rgb(16, 155, 248);"/>
		<path d="M 105.0999984741211 18.100000381469727 L 131.8000030517578 39.79999923706055 L 131.8000030517578 40.099998474121094 L 104.80000305175781 18.100000381469727 Z" class="st60" style="clip-path: url('#SVGID_4_'); fill: rgb(16, 155, 248);"/>
		<path d="M 105.4000015258789 18.100000381469727 L 131.8000030517578 39.599998474121094 L 131.8000030517578 39.79999923706055 L 105.0999984741211 18.100000381469727 Z" class="st61" style="clip-path: url('#SVGID_4_'); fill: rgb(16, 155, 248);"/>
		<path d="M 105.80000305175781 18.100000381469727 L 131.8000030517578 39.29999923706055 L 131.8000030517578 39.599998474121094 L 105.4000015258789 18.100000381469727 Z" class="st62" style="clip-path: url('#SVGID_4_'); fill: rgb(16, 155, 248);"/>
		<path d="M 106.0999984741211 18.100000381469727 L 131.8000030517578 39 L 131.8000030517578 39.29999923706055 L 105.80000305175781 18.100000381469727 Z" class="st63" style="clip-path: url('#SVGID_4_'); fill: rgb(16, 155, 248);"/>
		<path d="M 106.5 18.100000381469727 L 131.8000030517578 38.70000076293945 L 131.8000030517578 39 L 106.0999984741211 18.100000381469727 Z" class="st64" style="clip-path: url('#SVGID_4_'); fill: rgb(16, 155, 248);"/>
		<path d="M 106.80000305175781 18.100000381469727 L 131.8000030517578 38.400001525878906 L 131.8000030517578 38.70000076293945 L 106.5 18.100000381469727 Z" class="st65" style="clip-path: url('#SVGID_4_'); fill: rgb(16, 155, 248);"/>
		<path d="M 107.19999694824219 18.100000381469727 L 131.8000030517578 38.099998474121094 L 131.8000030517578 38.400001525878906 L 106.80000305175781 18.100000381469727 Z" class="st66" style="clip-path: url('#SVGID_4_'); fill: rgb(16, 155, 248);"/>
		<path d="M 107.5 18.100000381469727 L 131.8000030517578 37.900001525878906 L 131.8000030517578 38.099998474121094 L 107.19999694824219 18.100000381469727 Z" class="st67" style="clip-path: url('#SVGID_4_'); fill: rgb(16, 155, 248);"/>
		<path d="M 107.9000015258789 18.100000381469727 L 131.8000030517578 37.599998474121094 L 131.8000030517578 37.900001525878906 L 107.5 18.100000381469727 Z" class="st68" style="clip-path: url('#SVGID_4_'); fill: rgb(16, 155, 248);"/>
		<path d="M 108.19999694824219 18.100000381469727 L 131.8000030517578 37.29999923706055 L 131.8000030517578 37.599998474121094 L 107.9000015258789 18.100000381469727 Z" class="st69" style="clip-path: url('#SVGID_4_'); fill: rgb(16, 155, 248);"/>
		<path d="M 108.5999984741211 18.100000381469727 L 131.8000030517578 37 L 131.8000030517578 37.29999923706055 L 108.19999694824219 18.100000381469727 Z" class="st70" style="clip-path: url('#SVGID_4_'); fill: rgb(16, 155, 248);"/>
		<path d="M 108.9000015258789 18.100000381469727 L 131.8000030517578 36.70000076293945 L 131.8000030517578 37 L 108.5999984741211 18.100000381469727 Z" class="st71" style="clip-path: url('#SVGID_4_'); fill: rgb(16, 155, 248);"/>
		<path d="M 109.30000305175781 18.100000381469727 L 131.8000030517578 36.400001525878906 L 131.8000030517578 36.70000076293945 L 108.9000015258789 18.100000381469727 Z" class="st72" style="clip-path: url('#SVGID_4_'); fill: rgb(16, 155, 248);"/>
		<path d="M 131.8000030517578 36.400001525878906 L 109.30000305175781 18.100000381469727 L 131.8000030517578 18.100000381469727 Z" class="st72" style="clip-path: url('#SVGID_4_'); fill: rgb(16, 155, 248);"/>
	</g>


<g transform="matrix(1, 0, 0, 1, 0, 0)">
		<path d="M 140.600006 69.599998 H 189.100006 V 136.699997 H 140.600006 V 69.599998 Z" class="st11" style="fill: rgb(179, 218, 216);"/>
	</g><path d="M 140.600006 63 H 189.100006 V 71.1 H 140.600006 V 63 Z" class="st0" style="fill: rgb(12, 84, 111);" transform="matrix(1, 0, 0, 1, 0, 0)"/><path d="M 140.600006 128.600006 H 189.100006 V 137.900006 H 140.600006 V 128.600006 Z" class="st0" style="fill: rgb(12, 84, 111);" transform="matrix(1, 0, 0, 1, 0, 0)"/><g transform="matrix(1, 0, 0, 1, 0, 0)">
			<path d="M 151.600006 130.600006 H 175.500006 V 135.700006 H 151.600006 V 130.600006 Z" class="st73" style="fill: rgb(254, 255, 255);"/>
		</g><g transform="matrix(1, 0, 0, 1, 0, 0)">
			<path d="M 145.199997 130.600006 H 150.699997 V 135.700006 H 145.199997 V 130.600006 Z" class="st74" style="fill: rgb(250, 155, 92);"/>
		</g><g transform="matrix(1, 0, 0, 1, 0, 0)">
			<path d="M 176.800003 130.600006 H 185.100003 V 135.700006 H 176.800003 V 130.600006 Z" class="st74" style="fill: rgb(250, 155, 92);"/>
		</g><g transform="matrix(1, 0, 0, 1, 0, 0)">
			<path class="st18" d="M149,80.1h1.8c0.6,0,1.5,0.4,1.9,0.8l0.7,0.8c0.8-0.8,1.3-2,1.3-3.2c0-2.6-2.1-4.8-4.8-4.8&#10;&#9;&#9;&#9;&#9;c-2.6,0-4.8,2.1-4.8,4.8c0,1.2,0.5,2.4,1.3,3.2l0.7-0.8C147.6,80.5,148.4,80.1,149,80.1z M149.1,75.2c0.5-0.2,1.3-0.2,1.8,0&#10;&#9;&#9;&#9;&#9;c0.5,0.2,0.8,0.9,0.8,1.5l-0.2,1.6c-0.1,0.6-0.6,1.1-1.2,1.1h-0.6c-0.6,0-1.2-0.5-1.2-1.1l-0.2-1.6&#10;&#9;&#9;&#9;&#9;C148.2,76.1,148.6,75.4,149.1,75.2z" style="fill: rgb(255, 114, 89);"/>
		</g><path class="st73" d="M153.4,81.7l-0.7-0.8c-0.4-0.4-1.3-0.8-1.9-0.8H149c-0.6,0-1.5,0.4-1.9,0.8l-0.7,0.8c0.9,1,2.1,1.6,3.5,1.6&#10;&#9;&#9;&#9;&#9;C151.3,83.3,152.6,82.7,153.4,81.7z" style="fill: rgb(254, 255, 255);" transform="matrix(1, 0, 0, 1, 0, 0)"/><path class="st73" d="M148.4,78.2c0.1,0.6,0.6,1.1,1.2,1.1h0.6c0.6,0,1.2-0.5,1.2-1.1l0.2-1.6c0.1-0.6-0.3-1.3-0.8-1.5&#10;&#9;&#9;&#9;&#9;c-0.5-0.2-1.3-0.2-1.8,0c-0.5,0.2-0.9,0.9-0.8,1.5L148.4,78.2z" style="fill: rgb(254, 255, 255);" transform="matrix(1, 0, 0, 1, 0, 0)"/><g transform="matrix(1, 0, 0, 1, 0, 0)">
			<path class="st5" d="M179.4,94.5h1.8c0.6,0,1.5,0.4,1.9,0.8l0.7,0.8c0.8-0.8,1.3-2,1.3-3.2c0-2.6-2.1-4.8-4.8-4.8&#10;&#9;&#9;&#9;&#9;c-2.6,0-4.8,2.1-4.8,4.8c0,1.2,0.5,2.4,1.3,3.2l0.8-0.8C178,94.9,178.8,94.5,179.4,94.5z M179.4,89.6c0.5-0.2,1.3-0.2,1.8,0&#10;&#9;&#9;&#9;&#9;c0.5,0.2,0.8,0.9,0.8,1.5l-0.2,1.6c-0.1,0.6-0.6,1.1-1.2,1.1H180c-0.6,0-1.2-0.5-1.2-1.1l-0.2-1.6&#10;&#9;&#9;&#9;&#9;C178.6,90.5,178.9,89.8,179.4,89.6z" style="fill: rgb(255, 210, 46);"/>
		</g><path class="st73" d="M183.8,96.1l-0.7-0.8c-0.4-0.4-1.3-0.8-1.9-0.8h-1.8c-0.6,0-1.5,0.4-1.9,0.8l-0.8,0.8&#10;&#9;&#9;&#9;&#9;c0.9,1,2.1,1.6,3.5,1.6C181.7,97.7,183,97.1,183.8,96.1z" style="fill: rgb(254, 255, 255);" transform="matrix(1, 0, 0, 1, 0, 0)"/><path class="st73" d="M178.8,92.7c0.1,0.6,0.6,1.1,1.2,1.1h0.6c0.6,0,1.2-0.5,1.2-1.1l0.2-1.6c0.1-0.6-0.3-1.3-0.8-1.5&#10;&#9;&#9;&#9;&#9;c-0.5-0.2-1.3-0.2-1.8,0c-0.5,0.2-0.9,0.9-0.8,1.5L178.8,92.7z" style="fill: rgb(254, 255, 255);" transform="matrix(1, 0, 0, 1, 0, 0)"/><path d="M 158.5 74.199997 H 184.9 V 85.299997 H 158.5 V 74.199997 Z" class="st73" style="fill: rgb(254, 255, 255);" transform="matrix(1, 0, 0, 1, 0, 0)"/><path d="M 145.300003 88.5 H 171.700003 V 97.7 H 145.300003 V 88.5 Z" class="st73" style="fill: rgb(254, 255, 255);" transform="matrix(1, 0, 0, 1, 0, 0)"/><path d="M 157 76.5999984741211 L 157.6999969482422 75.69999694824219 L 158.5 74.80000305175781 L 158.5 76.5999984741211 L 158.5 78.30000305175781 L 157.6999969482422 77.5 Z" class="st73" style="fill: rgb(254, 255, 255);" transform="matrix(1, 0, 0, 1, 0, 0)"/><g transform="matrix(1, 0, 0, 1, 0, 0)">
			<path class="st18" d="M149,106.6h1.8c0.6,0,1.5,0.4,1.9,0.8l0.7,0.8c0.8-0.8,1.3-2,1.3-3.2c0-2.6-2.1-4.8-4.8-4.8&#10;&#9;&#9;&#9;&#9;c-2.6,0-4.8,2.1-4.8,4.8c0,1.2,0.5,2.4,1.3,3.2l0.7-0.8C147.6,107,148.4,106.6,149,106.6z M149.1,101.7c0.5-0.2,1.3-0.2,1.8,0&#10;&#9;&#9;&#9;&#9;c0.5,0.2,0.8,0.9,0.8,1.5l-0.2,1.6c-0.1,0.6-0.6,1.1-1.2,1.1h-0.6c-0.6,0-1.2-0.5-1.2-1.1l-0.2-1.6&#10;&#9;&#9;&#9;&#9;C148.2,102.6,148.6,101.9,149.1,101.7z" style="fill: rgb(255, 114, 89);"/>
		</g><path class="st73" d="M153.4,108.2l-0.7-0.8c-0.4-0.4-1.3-0.8-1.9-0.8H149c-0.6,0-1.5,0.4-1.9,0.8l-0.7,0.8&#10;&#9;&#9;&#9;&#9;c0.9,1,2.1,1.6,3.5,1.6C151.3,109.8,152.6,109.2,153.4,108.2z" style="fill: rgb(254, 255, 255);" transform="matrix(1, 0, 0, 1, 0, 0)"/><path class="st73" d="M148.4,104.8c0.1,0.6,0.6,1.1,1.2,1.1h0.6c0.6,0,1.2-0.5,1.2-1.1l0.2-1.6c0.1-0.6-0.3-1.3-0.8-1.5&#10;&#9;&#9;&#9;&#9;c-0.5-0.2-1.3-0.2-1.8,0c-0.5,0.2-0.9,0.9-0.8,1.5L148.4,104.8z" style="fill: rgb(254, 255, 255);" transform="matrix(1, 0, 0, 1, 0, 0)"/><path d="M 158.5 100.699997 H 184.9 V 113.999997 H 158.5 V 100.699997 Z" class="st73" style="fill: rgb(254, 255, 255);" transform="matrix(1, 0, 0, 1, 0, 0)"/><path d="M 157 103.0999984741211 L 157.6999969482422 102.19999694824219 L 158.5 101.30000305175781 L 158.5 103.0999984741211 L 158.5 104.9000015258789 L 157.6999969482422 104 Z" class="st73" style="fill: rgb(254, 255, 255);" transform="matrix(1, 0, 0, 1, 0, 0)"/><path d="M 173.3000030517578 91 L 172.5 91.9000015258789 L 171.6999969482422 92.80000305175781 L 171.6999969482422 91 L 171.6999969482422 89.30000305175781 L 172.5 90.19999694824219 Z" class="st73" style="fill: rgb(254, 255, 255);" transform="matrix(1, 0, 0, 1, 0, 0)"/><g transform="matrix(1, 0, 0, 1, 0, 0)">
			<path class="st5" d="M179.4,122.7h1.8c0.6,0,1.5,0.4,1.9,0.8l0.7,0.8c0.8-0.8,1.3-2,1.3-3.2c0-2.6-2.1-4.8-4.8-4.8&#10;&#9;&#9;&#9;&#9;c-2.6,0-4.8,2.1-4.8,4.8c0,1.2,0.5,2.4,1.3,3.2l0.8-0.8C178,123,178.8,122.7,179.4,122.7z M179.4,117.7c0.5-0.2,1.3-0.2,1.8,0&#10;&#9;&#9;&#9;&#9;c0.5,0.2,0.8,0.9,0.8,1.5l-0.2,1.6c-0.1,0.6-0.6,1.1-1.2,1.1H180c-0.6,0-1.2-0.5-1.2-1.1l-0.2-1.6&#10;&#9;&#9;&#9;&#9;C178.6,118.6,178.9,117.9,179.4,117.7z" style="fill: rgb(255, 210, 46);"/>
		</g><path class="st73" d="M183.8,124.3l-0.7-0.8c-0.4-0.4-1.3-0.8-1.9-0.8h-1.8c-0.6,0-1.5,0.4-1.9,0.8l-0.8,0.8&#10;&#9;&#9;&#9;&#9;c0.9,1,2.1,1.6,3.5,1.6C181.7,125.8,183,125.2,183.8,124.3z" style="fill: rgb(254, 255, 255);" transform="matrix(1, 0, 0, 1, 0, 0)"/><path class="st73" d="M178.8,120.8c0.1,0.6,0.6,1.1,1.2,1.1h0.6c0.6,0,1.2-0.5,1.2-1.1l0.2-1.6c0.1-0.6-0.3-1.3-0.8-1.5&#10;&#9;&#9;&#9;&#9;c-0.5-0.2-1.3-0.2-1.8,0c-0.5,0.2-0.9,0.9-0.8,1.5L178.8,120.8z" style="fill: rgb(254, 255, 255);" transform="matrix(1, 0, 0, 1, 0, 0)"/><path d="M 145.300003 116.599998 H 171.700003 V 125.799998 H 145.300003 V 116.599998 Z" class="st73" style="fill: rgb(254, 255, 255);" transform="matrix(1, 0, 0, 1, 0, 0)"/><path d="M 173.3000030517578 119.19999694824219 L 172.5 120.0999984741211 L 171.6999969482422 120.9000015258789 L 171.6999969482422 119.19999694824219 L 171.6999969482422 117.4000015258789 L 172.5 118.30000305175781 Z" class="st73" style="fill: rgb(254, 255, 255);" transform="matrix(1, 0, 0, 1, 0, 0)"/>
<path class="st15" d="M137,104.8c4.1,2.6,5.4,7.8,3,11.6l0,0c-2.4,3.9-7.7,4.9-11.8,2.3l-4.9-2.7c-4.1-2.6-5.4-7.8-3-11.6l0,0&#10;&#9;&#9;c2.4-3.8,7.7-4.9,11.8-2.3L137,104.8z" style="fill: rgb(245, 211, 169);" transform="matrix(1, 0, 0, 1, 0, 0)"/>
<path class="st16" d="M131.8,118c2.1,1.2,5.2-0.2,6.8-3c1.6-2.9,1.2-6.2-1-7.4c-0.9-0.5-2.3-1.4-3.2-1.3l-2.7,4.8l-2.7,4.8&#10;&#9;&#9;C129.4,116.8,130.9,117.5,131.8,118z" style="fill: rgb(238, 185, 146);" transform="matrix(1, 0, 0, 1, 0, 0)"/>
<path class="st15" d="M142.1,129.7c4.1,2.6,5.4,7.8,3,11.6l0,0c-2.4,3.9-7.7,4.9-11.8,2.3l-8.7-5.5c-4.1-2.6-5.4-7.8-3-11.6l0,0&#10;&#9;&#9;c2.4-3.8,7.7-4.9,11.8-2.3L142.1,129.7z" style="fill: rgb(245, 211, 169);" transform="matrix(1, 0, 0, 1, 0, 0)"/>
<path class="st16" d="M136.4,142.5c2.1,1.2,5.2-0.1,6.8-2.9c1.6-2.8,1.1-6.1-1-7.3c-0.9-0.5-2.3-1.4-3.2-1.3l-2.7,4.7l-2.7,4.7&#10;&#9;&#9;C134.1,141.3,135.5,142,136.4,142.5z" style="fill: rgb(238, 185, 146);" transform="matrix(1, 0, 0, 1, 0, 0)"/>
<path d="M 210 56.900002 H 216 V 62.900002 H 210 V 56.900002 Z" transform="matrix(0.7073000073432922, 0.7068999409675598, -0.7068999409675598, 0.7073000073432922, 104.69400024414062, -133.02090454101562)" class="st5" style="fill: rgb(255, 210, 46);"/>
<path d="M 19.4 70.699997 H 25.4 V 76.699997 H 19.4 V 70.699997 Z" transform="matrix(0.7071999907493591, 0.7070000171661377, -0.7070000171661377, 0.7071999907493591, 58.69960021972656, 5.702899932861328)" class="st75" style="fill: rgb(248, 137, 112);"/>
<path d="M 118.800003 186 H 124.800003 V 192 H 118.800003 V 186 Z" transform="matrix(0.7071999907493591, 0.7070000171661377, -0.7070000171661377, 0.7071999907493591, 169.2711944580078, -30.76169967651367)" class="st75" style="fill: rgb(248, 137, 112);"/>
<path d="M 312.600006 190.199997 H 318.600006 V 196.199997 H 312.600006 V 190.199997 Z" transform="matrix(0.7071000337600708, 0.7071000337600708, -0.7071000337600708, 0.7071000337600708, 229.07730102539062, -166.55670166015625)" class="st5" style="fill: rgb(255, 210, 46);"/>
<path d="M 28.9 159.800003 H 34.9 V 165.800003 H 28.9 V 159.800003 Z" transform="matrix(0.7071999907493591, 0.7070000171661377, -0.7070000171661377, 0.7071999907493591, 124.43479919433594, 25.102399826049812)" class="st75" style="fill: rgb(248, 137, 112);"/>
<path d="M 108.5 141.800003 H 112.1 V 145.400003 H 108.5 V 141.800003 Z" transform="matrix(0.7071000337600708, 0.7071000337600708, -0.7071000337600708, 0.7071000337600708, 133.8719024658203, -35.95500183105469)" class="st17" style="fill: rgb(16, 155, 248);"/>
<path d="M 81 112.300003 H 84.6 V 115.900003 H 81 V 112.300003 Z" transform="matrix(0.7067999839782715, 0.7074000239372253, -0.7074000239372253, 0.7067999839782715, 104.95539855957031, -25.093599319458008)" class="st17" style="fill: rgb(16, 155, 248);"/>
<path d="M 54 16.1 H 57.6 V 19.7 H 54 V 16.1 Z" transform="matrix(0.7070000171661377, 0.7071999907493591, -0.7071999907493591, 0.7070000171661377, 28.99880027770996, -34.23080062866211)" class="st17" style="fill: rgb(16, 155, 248);"/>
<path d="M 156.699997 29.1 H 160.299997 V 32.7 H 156.699997 V 29.1 Z" transform="matrix(0.7070000171661377, 0.7071999907493591, -0.7071999907493591, 0.7070000171661377, 68.25700378417969, -103.05909729003906)" class="st17" style="fill: rgb(16, 155, 248);"/>
<path d="M 235.100006 44.200001 H 238.700006 V 47.800001 H 235.100006 V 44.200001 Z" transform="matrix(0.7070000171661377, 0.7071999907493591, -0.7071999907493591, 0.7070000171661377, 101.96189880371094, -154.04110717773438)" class="st17" style="fill: rgb(16, 155, 248);"/>
<path d="M 232.600006 99.5 H 236.200006 V 103.1 H 232.600006 V 99.5 Z" transform="matrix(0.7070000171661377, 0.7071999907493591, -0.7071999907493591, 0.7070000171661377, 140.32650756835938, -136.0496063232422)" class="st17" style="fill: rgb(16, 155, 248);"/>
<path d="M 313.799988 92.699997 H 317.399988 V 96.299997 H 313.799988 V 92.699997 Z" transform="matrix(0.7070000171661377, 0.7071999907493591, -0.7071999907493591, 0.7070000171661377, 159.3332977294922, -195.50140380859375)" class="st17" style="fill: rgb(16, 155, 248);"/>
<path d="M 286.100006 218.699997 H 289.700006 V 222.299997 H 286.100006 V 218.699997 Z" transform="matrix(0.7071000337600708, 0.7071000337600708, -0.7071000337600708, 0.7071000337600708, 240.2303009033203, -138.976806640625)" class="st17" style="fill: rgb(16, 155, 248);"/>
<path d="M 156.699997 218.899994 H 160.299997 V 222.499994 H 156.699997 V 218.899994 Z" transform="matrix(0.7071000337600708, 0.7071000337600708, -0.7071000337600708, 0.7071000337600708, 202.46859741210938, -47.44089889526367)" class="st17" style="fill: rgb(16, 155, 248);"/>
<path d="M 16.4 193.300003 H 20 V 196.900003 H 16.4 V 193.300003 Z" transform="matrix(0.7071000337600708, 0.7071000337600708, -0.7071000337600708, 0.7071000337600708, 143.28460693359375, 44.273700714111335)" class="st17" style="fill: rgb(16, 155, 248);"/>
<path d="M 16.4 108.699997 H 20 V 112.299997 H 16.4 V 108.699997 Z" transform="matrix(0.7067999839782715, 0.7074000239372253, -0.7074000239372253, 0.7067999839782715, 83.51599884033203, 19.527700424194343)" class="st17" style="fill: rgb(16, 155, 248);"/>
<path d="M 178.60202026367188 150.17388916015625" style="fill: rgb(255, 255, 255); fill-opacity: 1; stroke: rgb(0, 0, 0); stroke-opacity: 1; stroke-width: 0; paint-order: fill;"/><g transform="matrix(0.36646372079849243, 0, 0, 0.36646372079849243, -290.46560247512025, 137.57935151600032)"><g transform="matrix(1, 0, 0, 1, 0, 0)">
	<path d="M 952.2000122070312 140.6999969482422 L 900.7000122070312 181.10000610351562 L 1027.9000244140625 181.10000610351562 L 976.5 140.6999969482422 L 964.2999877929688 150.1999969482422 Z" class="st26" style="fill: rgb(214, 214, 214); opacity: 1;"/>
	<path d="M 948.7000122070312 138 L 897.5 97.80000305175781 L 897.5 178.1999969482422 Z" class="st26" style="fill: rgb(214, 214, 214); opacity: 1;"/>
	<path d="M 979.9000244140625 138 L 1031.0999755859375 178.1999969482422 L 1031.0999755859375 97.80000305175781 Z" class="st26" style="fill: rgb(214, 214, 214); opacity: 1;"/>
	
<path class="st26" d="M 900.2 94.5 L 964.3000000000001 144.9 L 1028.4 94.5 L 900.2 94.5 Z" style="fill: rgb(214, 214, 214); opacity: 1;"/><path d="M 1016.01611328125 141.0322723388672" style="fill: rgb(51, 51, 51); fill-opacity: 1; stroke: rgb(0, 0, 0); stroke-opacity: 1; stroke-width: 0; paint-order: fill;"/><path d="M 1019.2483520507812 138.87742614746094" style="fill: rgb(214, 214, 214); fill-opacity: 1; stroke: rgb(0, 0, 0); stroke-opacity: 1; stroke-width: 0; paint-order: fill;"/></g></g><path d="M 297.0525207519531 107.92654418945312 L 297.0525207519531 107.5317153930664" style="fill: rgb(214, 214, 214); fill-opacity: 1; stroke: rgb(0, 0, 0); stroke-opacity: 1; stroke-width: 0; paint-order: fill;"/><path d="M 80.68292999267578 37.645912170410156 L 80.68292999267578 37.645912170410156" style="fill: rgb(201, 201, 201); fill-opacity: 1; stroke: rgb(0, 0, 0); stroke-opacity: 1; stroke-width: 0; paint-order: fill;"/><path d="M 257.56903076171875 167.546630859375 L 257.56903076171875 167.546630859375" style="fill: rgb(201, 201, 201); fill-opacity: 1; stroke: rgb(0, 0, 0); stroke-opacity: 1; stroke-width: 0; paint-order: fill;"/></svg>