<svg xmlns="http://www.w3.org/2000/svg" xmlns:xlink="http://www.w3.org/1999/xlink" viewBox="7316 1349 139 139">
  <defs>
    <style>
      .cls-1 {
        fill: #fff;
      }

      .cls-2 {
        fill: #fbcb99;
        stroke: #f57c00;
      }

      .cls-2, .cls-3 {
        stroke-linecap: round;
        stroke-linejoin: round;
        stroke-miterlimit: 10;
        stroke-width: 2px;
      }

      .cls-3 {
        fill: #b9e7fc;
        stroke: #4fc3f7;
      }

      .cls-4 {
        filter: url(#Path_193);
      }

      .cls-5 {
        filter: url(#Path_192);
      }

      .cls-6 {
        filter: url(#Ellipse_22);
      }
    </style>
    <filter id="Ellipse_22" x="7316" y="1349" width="139" height="139" filterUnits="userSpaceOnUse">
      <feOffset dy="3" input="SourceAlpha"/>
      <feGaussianBlur stdDeviation="3" result="blur"/>
      <feFlood flood-opacity="0.161"/>
      <feComposite operator="in" in2="blur"/>
      <feComposite in="SourceGraphic"/>
    </filter>
    <filter id="Path_192" x="7345.976" y="1380" width="67.503" height="67.127" filterUnits="userSpaceOnUse">
      <feOffset dy="3" input="SourceAlpha"/>
      <feGaussianBlur stdDeviation="3" result="blur-2"/>
      <feFlood flood-opacity="0.161"/>
      <feComposite operator="in" in2="blur-2"/>
      <feComposite in="SourceGraphic"/>
    </filter>
    <filter id="Path_193" x="7369.579" y="1405.5" width="56.644" height="51.623" filterUnits="userSpaceOnUse">
      <feOffset dy="3" input="SourceAlpha"/>
      <feGaussianBlur stdDeviation="3" result="blur-3"/>
      <feFlood flood-opacity="0.161"/>
      <feComposite operator="in" in2="blur-3"/>
      <feComposite in="SourceGraphic"/>
    </filter>
  </defs>
  <g id="Group_371" data-name="Group 371" transform="translate(6197)">
    <g class="cls-6" transform="matrix(1, 0, 0, 1, -6197, 0)">
      <circle id="Ellipse_22-2" data-name="Ellipse 22" class="cls-1" cx="60.5" cy="60.5" r="60.5" transform="translate(7325 1355)"/>
    </g>
    <g id="Group_370" data-name="Group 370" transform="translate(1157.979 1386)">
      <g class="cls-5" transform="matrix(1, 0, 0, 1, -7354.98, -1386)">
        <path id="Path_192-2" data-name="Path 192" class="cls-2" d="M24.6,29.6a3.116,3.116,0,0,1,3.1-3.1H48.5V5a4.012,4.012,0,0,0-4-4H7.5a4.012,4.012,0,0,0-4,4V37L1.1,45.5a2.017,2.017,0,0,0,3.1,2.2L13.5,41H24.6Z" transform="translate(7354.98 1386)"/>
      </g>
      <g class="cls-4" transform="matrix(1, 0, 0, 1, -7354.98, -1386)">
        <path id="Path_193-2" data-name="Path 193" class="cls-3" d="M56.5,26.5H27.7a3.116,3.116,0,0,0-3.1,3.1V51.4a3.116,3.116,0,0,0,3.1,3.1H52.6l5.6,3.3a1.964,1.964,0,0,0,2.9-2.3l-1.5-5.1V29.6A3.116,3.116,0,0,0,56.5,26.5Z" transform="translate(7354.98 1386)"/>
      </g>
      <g id="Group_351" data-name="Group 351">
        <circle id="Ellipse_18" data-name="Ellipse 18" class="cls-1" cx="2" cy="2" r="2" transform="translate(31.4 38.3)"/>
        <circle id="Ellipse_19" data-name="Ellipse 19" class="cls-1" cx="2" cy="2" r="2" transform="translate(40.4 38.3)"/>
        <circle id="Ellipse_20" data-name="Ellipse 20" class="cls-1" cx="2" cy="2" r="2" transform="translate(49.4 38.3)"/>
      </g>
    </g>
  </g>
</svg>
