<svg xmlns="http://www.w3.org/2000/svg" xmlns:xlink="http://www.w3.org/1999/xlink" viewBox="6709.498 732.996 99.872 101.237">
  <defs>
    <style>
      .cls-1 {
        fill: url(#linear-gradient);
      }
    </style>
    <linearGradient id="linear-gradient" x1="1" y1="0.5" x2="0" y2="0.5" gradientUnits="objectBoundingBox">
      <stop offset="0" stop-color="#109bf8"/>
      <stop offset="1" stop-color="#86d7d8"/>
    </linearGradient>
  </defs>
  <path id="Path_203" data-name="Path 203" class="cls-1" d="M49.936,0C22.194,0,0,22.5,0,50.618s22.194,50.618,49.936,50.618,49.936-22.5,49.936-50.618S77.678,0,49.936,0ZM73.794,49.494h0L42.723,70.3c-.555,0-.555.562-1.11.562H40.5c-.555-.562-1.11-1.125-1.11-1.687V27.559c0-.562.555-1.687,1.11-1.687.555-.562,1.11-.562,2.219,0l31.071,20.81c.555.562,1.11,1.125,1.11,1.687A1.2,1.2,0,0,1,73.794,49.494Z" transform="translate(6709.498 732.996)"/>
</svg>
