<?xml version="1.0" encoding="utf-8"?>
<svg id="master-artboard" viewBox="0 0 1400 980" version="1.1" xmlns="http://www.w3.org/2000/svg" x="0px" y="0px" style="enable-background:new 0 0 1400 980;" width="1400px" height="980px">


<g id="XMLID_5_" transform="matrix(1, 0, 0, 1, 0, 0)">
		<g>
			
			<g>
				<path d="M 339.300003 191.699997 A 142.699997 142.699997 0 0 1 196.600006 334.399994 A 142.699997 142.699997 0 0 1 53.900009 191.699997 A 142.699997 142.699997 0 0 1 196.600006 49 A 142.699997 142.699997 0 0 1 339.300003 191.699997 Z" class="st2" style="fill: none; stroke: rgb(16, 155, 248); stroke-width: 12; stroke-miterlimit: 10;"/>
				<g>
					<path d="M 323.300003 191.699997 A 126.699997 126.699997 0 0 1 196.600006 318.399994 A 126.699997 126.699997 0 0 1 69.900009 191.699997 A 126.699997 126.699997 0 0 1 196.600006 65 A 126.699997 126.699997 0 0 1 323.300003 191.699997 Z" class="st3" style="fill: none; stroke: rgb(16, 155, 248); stroke-width: 3.5519; stroke-miterlimit: 10; stroke-dasharray: 4.796, 4.796;"/>
				</g>
			</g>
			
			
			
		</g>
	</g>
<g transform="matrix(1, 0, 0, 1, 0, 0)">
		<path d="M 1324.099953 185.5 A 126.900002 126.900002 0 0 1 1197.199951 312.400002 A 126.900002 126.900002 0 0 1 1070.29995 185.5 A 126.900002 126.900002 0 0 1 1197.199951 58.599998 A 126.900002 126.900002 0 0 1 1324.099953 185.5 Z" class="st6" style="fill: rgb(16, 155, 248);"/>
		<path d="M 1311.29995 185.5 A 114.099998 114.099998 0 0 1 1197.199951 299.599998 A 114.099998 114.099998 0 0 1 1083.099953 185.5 A 114.099998 114.099998 0 0 1 1197.199951 71.400002 A 114.099998 114.099998 0 0 1 1311.29995 185.5 Z" class="st7" style="fill: rgb(255, 255, 255); stroke: rgb(214, 214, 214); stroke-width: 1.1079; stroke-miterlimit: 10;"/>
		<path d="M 1250.099953 185.5 A 52.900002 52.900002 0 0 1 1197.199951 238.400002 A 52.900002 52.900002 0 0 1 1144.29995 185.5 A 52.900002 52.900002 0 0 1 1197.199951 132.599998 A 52.900002 52.900002 0 0 1 1250.099953 185.5 Z" class="st6" style="fill: rgb(16, 155, 248);"/>
		<g>
			<g>
				<g>
					<path d="M 1194.5 79.5 H 1199.9 V 95.1 H 1194.5 V 79.5 Z" class="st8" style="fill: rgb(214, 214, 214);"/>
				</g>
				<g>
					<path d="M 1194.5 275.799988 H 1199.9 V 291.399988 H 1194.5 V 275.799988 Z" class="st8" style="fill: rgb(214, 214, 214);"/>
				</g>
			</g>
			<g>
				<g>
					
						<path d="M 1140.300049 97.800003 H 1155.900049 V 103.200003 H 1140.300049 V 97.800003 Z" transform="matrix(0.5 0.866 -0.866 0.5 661.0633 -944.0439)" class="st8" style="fill: rgb(214, 214, 214);"/>
				</g>
				<g>
					
						<path d="M 1238.400024 267.799988 H 1254.000025 V 273.199988 H 1238.400024 V 267.799988 Z" transform="matrix(0.5 0.866 -0.866 0.5 857.3763 -944.0678)" class="st8" style="fill: rgb(214, 214, 214);"/>
				</g>
			</g>
			<g>
				<g>
					
						<path d="M 1104.400024 133.699997 H 1120.000025 V 139.099997 H 1104.400024 V 133.699997 Z" transform="matrix(0.866 0.5 -0.5 0.866 217.2058 -537.8173)" class="st8" style="fill: rgb(214, 214, 214);"/>
				</g>
				<g>
					
						<path d="M 1274.400024 231.800003 H 1290.000025 V 237.200003 H 1274.400024 V 231.800003 Z" transform="matrix(0.866 0.5 -0.5 0.866 289.073 -609.692)" class="st8" style="fill: rgb(214, 214, 214);"/>
				</g>
			</g>
			<g>
				<g>
					<path d="M 1091.199951 182.800003 H 1106.799952 V 188.200003 H 1091.199951 V 182.800003 Z" class="st8" style="fill: rgb(214, 214, 214);"/>
				</g>
				<g>
					<path d="M 1287.5 182.800003 H 1303.1 V 188.200003 H 1287.5 V 182.800003 Z" class="st8" style="fill: rgb(214, 214, 214);"/>
				</g>
			</g>
			<g>
				<g>
					
						<path d="M 1109.5 226.699997 H 1114.9 V 242.299997 H 1109.5 V 226.699997 Z" transform="matrix(0.4999 0.8661 -0.8661 0.4999 759.3403 -845.9699)" class="st8" style="fill: rgb(214, 214, 214);"/>
				</g>
				<g>
					
						<path d="M 1279.5 128.600006 H 1284.9 V 144.200006 H 1279.5 V 128.600006 Z" transform="matrix(0.4999 0.8661 -0.8661 0.4999 759.3115 -1042.225)" class="st8" style="fill: rgb(214, 214, 214);"/>
				</g>
			</g>
			<g>
				<g>
					
						<path d="M 1145.400024 262.600006 H 1150.800025 V 278.200006 H 1145.400024 V 262.600006 Z" transform="matrix(0.8661 0.4999 -0.4999 0.8661 288.9865 -537.7632)" class="st8" style="fill: rgb(214, 214, 214);"/>
				</g>
				<g>
					
						<path d="M 1243.599976 92.699997 H 1248.999976 V 108.299997 H 1243.599976 V 92.699997 Z" transform="matrix(0.8661 0.4999 -0.4999 0.8661 217.16 -609.5848)" class="st8" style="fill: rgb(214, 214, 214);"/>
				</g>
			</g>
		</g>
		<path class="st8" d="M1197.5,101.2l4.8,84.2l-5.1,0l-5.1,0l4.8-84.2C1196.9,100.8,1197.5,100.8,1197.5,101.2z" style="fill: rgb(214, 214, 214);"/>
		<path d="M 1268.199951171875 185.5 L 1198.800048828125 190.60000610351562 L 1197.199951171875 185.5 L 1198.800048828125 180.39999389648438 Z" class="st8" style="fill: rgb(214, 214, 214);"/>
		<path d="M 1205.099951 185.5 A 7.9 7.9 0 0 1 1197.199951 193.4 A 7.9 7.9 0 0 1 1189.299951 185.5 A 7.9 7.9 0 0 1 1197.199951 177.6 A 7.9 7.9 0 0 1 1205.099951 185.5 Z" class="st8" style="fill: rgb(200, 200, 200);"/>
	<path d="M 1226.7159423828125 184.35826110839844" style="fill: rgb(214, 214, 214); fill-opacity: 1; stroke: rgb(0, 0, 0); stroke-opacity: 1; stroke-width: 0; paint-order: fill;"/><path d="M 1131.5955810546875 341.36407470703125" style="fill: rgb(16, 155, 248); fill-opacity: 1; stroke: rgb(0, 0, 0); stroke-opacity: 1; stroke-width: 0; paint-order: fill;"/></g>
<g transform="matrix(1, 0, 0, 1, 0, 0)">
		<path class="st9" d="M1122.7,774V539.1c0-6.2,5-11.1,11.1-11.1h137c6.2,0,11.1,5,11.1,11.1V774c0,6.2-5,11.1-11.1,11.1h-137&#10;&#9;&#9;&#9;C1127.7,785.1,1122.7,780.1,1122.7,774z" style="fill: rgb(43, 90, 95);"/>
		<path d="M 1135.199951171875 552.9000244140625 L 1135.199951171875 754.7999877929688 L 1135.699951171875 754.7999877929688 L 1250.800048828125 552.9000244140625 Z" class="st10" style="fill: rgb(255, 255, 255);"/>
		<path d="M 1269.4000244140625 552.9000244140625 L 1250.800048828125 552.9000244140625 L 1135.699951171875 754.7999877929688 L 1269.4000244140625 754.7999877929688 Z" class="st8" style="fill: rgb(218, 218, 218);"/>
		<path class="st11" d="M1208.9,775.3h-13.2c-1.9,0-3.4-2.6-3.4-5.7l0,0c0-3.2,1.5-5.7,3.4-5.7h13.2c1.9,0,3.4,2.6,3.4,5.7l0,0&#10;&#9;&#9;&#9;C1212.3,772.7,1210.8,775.3,1208.9,775.3z" style="fill: rgb(255, 255, 255);"/>
	</g>
<g transform="matrix(1, 0, 0, 1, 0, 0)">
		<path class="st5" d="M374,886.9H65.3c-3.9,0-7.1-3.2-7.1-7.1v-89.2c0-3.9,3.2-7.1,7.1-7.1H374c3.9,0,7.1,3.2,7.1,7.1v89.2&#10;&#9;&#9;&#9;C381.1,883.7,378,886.9,374,886.9z" style="fill: rgb(43, 90, 95);"/>
		<g>
			<g>
				<path d="M 78.099998 814.599976 H 90.499998 V 826.999975 H 78.099998 V 814.599976 Z" class="st0" style="fill: rgb(255, 255, 255);"/>
				<path d="M 96.800003 814.599976 H 109.200003 V 826.999975 H 96.800003 V 814.599976 Z" class="st0" style="fill: rgb(255, 255, 255);"/>
				<path d="M 115.5 814.599976 H 127.9 V 826.999975 H 115.5 V 814.599976 Z" class="st0" style="fill: rgb(255, 255, 255);"/>
				<path d="M 134.199997 814.599976 H 146.599997 V 826.999975 H 134.199997 V 814.599976 Z" class="st0" style="fill: rgb(255, 255, 255);"/>
				<path d="M 152.899994 814.599976 H 165.299994 V 826.999975 H 152.899994 V 814.599976 Z" class="st0" style="fill: rgb(255, 255, 255);"/>
				<path d="M 171.600006 814.599976 H 184.000006 V 826.999975 H 171.600006 V 814.599976 Z" class="st0" style="fill: rgb(255, 255, 255);"/>
				<path d="M 190.300003 814.599976 H 202.700003 V 826.999975 H 190.300003 V 814.599976 Z" class="st0" style="fill: rgb(255, 255, 255);"/>
				<path d="M 209 814.599976 H 221.4 V 826.999975 H 209 V 814.599976 Z" class="st0" style="fill: rgb(255, 255, 255);"/>
				<path d="M 227.699997 814.599976 H 240.099997 V 826.999975 H 227.699997 V 814.599976 Z" class="st0" style="fill: rgb(255, 255, 255);"/>
				<path d="M 246.399994 814.599976 H 258.799994 V 826.999975 H 246.399994 V 814.599976 Z" class="st0" style="fill: rgb(255, 255, 255);"/>
				<path d="M 321.200012 814.599976 H 333.600012 V 826.999975 H 321.200012 V 814.599976 Z" class="st0" style="fill: rgb(255, 255, 255);"/>
				<path d="M 339.899994 814.599976 H 352.299994 V 826.999975 H 339.899994 V 814.599976 Z" class="st0" style="fill: rgb(255, 255, 255);"/>
			</g>
			<path d="M 78.099998 833.900024 H 90.499998 V 846.300024 H 78.099998 V 833.900024 Z" class="st0" style="fill: rgb(255, 255, 255);"/>
			<path d="M 96.800003 833.900024 H 109.200003 V 846.300024 H 96.800003 V 833.900024 Z" class="st0" style="fill: rgb(255, 255, 255);"/>
			<path d="M 115.5 833.900024 H 127.9 V 846.300024 H 115.5 V 833.900024 Z" class="st0" style="fill: rgb(255, 255, 255);"/>
			<path d="M 134.199997 833.900024 H 146.599997 V 846.300024 H 134.199997 V 833.900024 Z" class="st0" style="fill: rgb(255, 255, 255);"/>
			<path d="M 78.099998 853.200012 H 90.499998 V 865.600012 H 78.099998 V 853.200012 Z" class="st0" style="fill: rgb(255, 255, 255);"/>
			<path d="M 96.800003 853.200012 H 109.200003 V 865.600012 H 96.800003 V 853.200012 Z" class="st0" style="fill: rgb(255, 255, 255);"/>
			<path d="M 115.5 853.200012 H 127.9 V 865.600012 H 115.5 V 853.200012 Z" class="st0" style="fill: rgb(255, 255, 255);"/>
			<path d="M 134.199997 853.200012 H 146.599997 V 865.600012 H 134.199997 V 853.200012 Z" class="st0" style="fill: rgb(255, 255, 255);"/>
			<path d="M 152.899994 833.900024 H 165.299994 V 846.300024 H 152.899994 V 833.900024 Z" class="st0" style="fill: rgb(255, 255, 255);"/>
			<path d="M 171.600006 833.900024 H 184.000006 V 846.300024 H 171.600006 V 833.900024 Z" class="st0" style="fill: rgb(255, 255, 255);"/>
			<path d="M 190.300003 833.900024 H 202.700003 V 846.300024 H 190.300003 V 833.900024 Z" class="st0" style="fill: rgb(255, 255, 255);"/>
			<path d="M 209 833.900024 H 221.4 V 846.300024 H 209 V 833.900024 Z" class="st0" style="fill: rgb(255, 255, 255);"/>
			<path d="M 227.699997 833.900024 H 240.099997 V 846.300024 H 227.699997 V 833.900024 Z" class="st0" style="fill: rgb(255, 255, 255);"/>
			<path d="M 246.399994 833.900024 H 258.799994 V 846.300024 H 246.399994 V 833.900024 Z" class="st0" style="fill: rgb(255, 255, 255);"/>
			<path d="M 283.799988 833.900024 H 296.199987 V 846.300024 H 283.799988 V 833.900024 Z" class="st0" style="fill: rgb(255, 255, 255);"/>
			<path d="M 321.200012 833.900024 H 333.600012 V 846.300024 H 321.200012 V 833.900024 Z" class="st0" style="fill: rgb(255, 255, 255);"/>
			<path d="M 339.899994 833.900024 H 352.299994 V 846.300024 H 339.899994 V 833.900024 Z" class="st0" style="fill: rgb(255, 255, 255);"/>
			<path d="M 246.399994 853.200012 H 258.799994 V 865.600012 H 246.399994 V 853.200012 Z" class="st0" style="fill: rgb(255, 255, 255);"/>
			<path d="M 152.899994 853.200012 H 240.099991 V 865.600012 H 152.899994 V 853.200012 Z" class="st0" style="fill: rgb(255, 255, 255);"/>
			<path d="M 265.100006 853.200012 H 277.500006 V 865.600012 H 265.100006 V 853.200012 Z" class="st0" style="fill: rgb(255, 255, 255);"/>
			<path d="M 283.799988 853.200012 H 296.199987 V 865.600012 H 283.799988 V 853.200012 Z" class="st0" style="fill: rgb(255, 255, 255);"/>
			<path d="M 302.5 853.200012 H 314.9 V 865.600012 H 302.5 V 853.200012 Z" class="st0" style="fill: rgb(255, 255, 255);"/>
			<path d="M 321.200012 853.200012 H 333.600012 V 865.600012 H 321.200012 V 853.200012 Z" class="st0" style="fill: rgb(255, 255, 255);"/>
			<path d="M 339.899994 853.200012 H 352.299994 V 865.600012 H 339.899994 V 853.200012 Z" class="st0" style="fill: rgb(255, 255, 255);"/>
			<path d="M 78.099998 799.700012 H 109.199999 V 808.200012 H 78.099998 V 799.700012 Z" class="st0" style="fill: rgb(255, 255, 255);"/>
			<path d="M 115.5 799.700012 H 146.6 V 808.200012 H 115.5 V 799.700012 Z" class="st0" style="fill: rgb(255, 255, 255);"/>
			<path d="M 152.899994 799.700012 H 183.999994 V 808.200012 H 152.899994 V 799.700012 Z" class="st0" style="fill: rgb(255, 255, 255);"/>
			<path d="M 190.300003 799.700012 H 221.400003 V 808.200012 H 190.300003 V 799.700012 Z" class="st0" style="fill: rgb(255, 255, 255);"/>
			<path d="M 227.699997 799.700012 H 258.799997 V 808.200012 H 227.699997 V 799.700012 Z" class="st0" style="fill: rgb(255, 255, 255);"/>
			<path d="M 265.100006 799.700012 H 296.200006 V 808.200012 H 265.100006 V 799.700012 Z" class="st0" style="fill: rgb(255, 255, 255);"/>
			<path d="M 302.5 799.700012 H 333.6 V 808.200012 H 302.5 V 799.700012 Z" class="st0" style="fill: rgb(255, 255, 255);"/>
			<path d="M 339.899994 799.700012 H 352.699994 V 808.200012 H 339.899994 V 799.700012 Z" class="st0" style="fill: rgb(255, 255, 255);"/>
			<path d="M 358 814.599976 H 370.4 V 826.999975 H 358 V 814.599976 Z" class="st0" style="fill: rgb(255, 255, 255);"/>
			<path d="M 358 833.900024 H 370.4 V 846.300024 H 358 V 833.900024 Z" class="st0" style="fill: rgb(255, 255, 255);"/>
			<path d="M 358 853.200012 H 370.4 V 865.600012 H 358 V 853.200012 Z" class="st0" style="fill: rgb(255, 255, 255);"/>
			<path d="M 358 799.700012 H 370.8 V 808.200012 H 358 V 799.700012 Z" class="st0" style="fill: rgb(255, 255, 255);"/>
		</g>
	</g>
<path d="M 728.799975 227.800003 A 7.7 7.7 0 0 1 721.099976 235.500003 A 7.7 7.7 0 0 1 713.399976 227.800003 A 7.7 7.7 0 0 1 721.099976 220.100003 A 7.7 7.7 0 0 1 728.799975 227.800003 Z" class="st12" style="fill: rgb(255, 255, 255); stroke: rgb(16, 155, 248); stroke-width: 3; stroke-miterlimit: 10; fill-opacity: 0;" transform="matrix(1, 0, 0, 1, 0, 0)"/><path d="M 446.300006 437.799988 A 7.7 7.7 0 0 1 438.600006 445.499988 A 7.7 7.7 0 0 1 430.900006 437.799988 A 7.7 7.7 0 0 1 438.600006 430.099988 A 7.7 7.7 0 0 1 446.300006 437.799988 Z" class="st12" style="fill: rgb(255, 255, 255); stroke: rgb(16, 155, 248); stroke-width: 3; stroke-miterlimit: 10; fill-opacity: 0;" transform="matrix(1, 0, 0, 1, 0, 0)"/><path d="M 672.999988 64.400002 A 7.7 7.7 0 0 1 665.299988 72.100001 A 7.7 7.7 0 0 1 657.599988 64.400002 A 7.7 7.7 0 0 1 665.299988 56.700002 A 7.7 7.7 0 0 1 672.999988 64.400002 Z" class="st12" style="fill: rgb(255, 255, 255); stroke: rgb(16, 155, 248); stroke-width: 3; stroke-miterlimit: 10; fill-opacity: 0;" transform="matrix(1, 0, 0, 1, 0, 0)"/><path d="M 1220.399951 35.200001 A 7.7 7.7 0 0 1 1212.699951 42.900001 A 7.7 7.7 0 0 1 1204.999951 35.200001 A 7.7 7.7 0 0 1 1212.699951 27.500001 A 7.7 7.7 0 0 1 1220.399951 35.200001 Z" class="st12" style="fill: rgb(255, 255, 255); stroke: rgb(16, 155, 248); stroke-width: 3; stroke-miterlimit: 10; fill-opacity: 0;" transform="matrix(1, 0, 0, 1, 0, 0)"/><path d="M 1130.5 22.4 L 1130.5 38.599998" class="st12" style="fill: rgb(16, 155, 248); stroke: rgb(16, 155, 248); stroke-width: 3; stroke-miterlimit: 10;" transform="matrix(1, 0, 0, 1, 0, 0)"/><path d="M 1122.400024 30.5 L 1138.599976 30.5" class="st12" style="fill: rgb(16, 155, 248); stroke: rgb(16, 155, 248); stroke-width: 3; stroke-miterlimit: 10;" transform="matrix(1, 0, 0, 1, 0, 0)"/><path d="M 1357.5 372.799988 L 1357.5 356.600006" class="st12" style="fill: rgb(16, 155, 248); stroke: rgb(16, 155, 248); stroke-width: 3; stroke-miterlimit: 10;" transform="matrix(1, 0, 0, 1, 0, 0)"/><path d="M 1365.5 364.700012 L 1349.400024 364.700012" class="st12" style="fill: rgb(16, 155, 248); stroke: rgb(16, 155, 248); stroke-width: 3; stroke-miterlimit: 10;" transform="matrix(1, 0, 0, 1, 0, 0)"/><path d="M 1320.699951 563 L 1320.699951 546.799988" class="st12" style="fill: rgb(16, 155, 248); stroke: rgb(16, 155, 248); stroke-width: 3; stroke-miterlimit: 10;" transform="matrix(1, 0, 0, 1, 0, 0)"/><path d="M 1328.800049 554.900024 L 1312.599976 554.900024" class="st12" style="fill: rgb(16, 155, 248); stroke: rgb(16, 155, 248); stroke-width: 3; stroke-miterlimit: 10;" transform="matrix(1, 0, 0, 1, 0, 0)"/><path d="M 1313.300049 663.599976 L 1313.300049 647.400024" class="st12" style="fill: rgb(16, 155, 248); stroke: rgb(16, 155, 248); stroke-width: 3; stroke-miterlimit: 10;" transform="matrix(1, 0, 0, 1, 0, 0)"/><path d="M 1321.400024 655.5 L 1305.199951 655.5" class="st12" style="fill: rgb(16, 155, 248); stroke: rgb(16, 155, 248); stroke-width: 3; stroke-miterlimit: 10;" transform="matrix(1, 0, 0, 1, 0, 0)"/><path d="M 449.200012 857.5 L 475.200012 857.5" class="st12" style="fill: rgb(16, 155, 248); stroke: rgb(16, 155, 248); stroke-width: 3; stroke-miterlimit: 10;" transform="matrix(1, 0, 0, 1, 0, 0)"/><path d="M 464.5 848.900024 L 481.600006 848.900024" class="st12" style="fill: rgb(16, 155, 248); stroke: rgb(16, 155, 248); stroke-width: 3; stroke-miterlimit: 10;" transform="matrix(1, 0, 0, 1, 0, 0)"/><path d="M 1020.299988 63.799999 L 1046.300049 63.799999" class="st12" style="fill: rgb(16, 155, 248); stroke: rgb(16, 155, 248); stroke-width: 3; stroke-miterlimit: 10;" transform="matrix(1, 0, 0, 1, 0, 0)"/><path d="M 1035.5 55.200001 L 1052.599976 55.200001" class="st12" style="fill: rgb(16, 155, 248); stroke: rgb(16, 155, 248); stroke-width: 3; stroke-miterlimit: 10;" transform="matrix(1, 0, 0, 1, 0, 0)"/><path d="M 757.599976 62.700001 L 700.599976 62.700001" class="st12" style="fill: rgb(16, 155, 248); stroke: rgb(16, 155, 248); stroke-width: 3; stroke-miterlimit: 10;" transform="matrix(1, 0, 0, 1, 0, 0)"/><path d="M 743 70.300003 L 725.900024 70.300003" class="st12" style="fill: rgb(16, 155, 248); stroke: rgb(16, 155, 248); stroke-width: 3; stroke-miterlimit: 10;" transform="matrix(1, 0, 0, 1, 0, 0)"/><path d="M 1322.5 438.899994 L 1379.400024 438.899994" class="st12" style="fill: rgb(16, 155, 248); stroke: rgb(16, 155, 248); stroke-width: 3; stroke-miterlimit: 10;" transform="matrix(1, 0, 0, 1, 0, 0)"/><path d="M 1337.099976 431.299988 L 1354.199951 431.299988" class="st12" style="fill: rgb(16, 155, 248); stroke: rgb(16, 155, 248); stroke-width: 3; stroke-miterlimit: 10;" transform="matrix(1, 0, 0, 1, 0, 0)"/><path d="M 495.5 526.599976 L 438.600006 526.599976" class="st12" style="fill: rgb(16, 155, 248); stroke: rgb(16, 155, 248); stroke-width: 3; stroke-miterlimit: 10;" transform="matrix(1, 0, 0, 1, 0, 0)"/><path d="M 481 534.299988 L 463.899994 534.299988" class="st12" style="fill: rgb(255, 255, 255); stroke: rgb(16, 155, 248); stroke-width: 3; stroke-miterlimit: 10;" transform="matrix(1, 0, 0, 1, 0, 0)"/><path d="M 400.399994 899.400024 L 429 899.400024" class="st13" style="fill: rgb(16, 155, 248); stroke: rgb(16, 155, 248); stroke-width: 5.012; stroke-linecap: round; stroke-linejoin: round; stroke-miterlimit: 10;" transform="matrix(1, 0, 0, 1, 0, 0)"/><path d="M 418.899994 98.599998 L 361.600006 98.599998" transform="matrix(1, 0, 0, 1, 0, 0)"/><path d="M361.6,96.3h57.3c1.3,0,2.3,1,2.3,2.3c0,1.3-1,2.3-2.3,2.3h-57.3c-1.3,0-2.3-1-2.3-2.3C359.3,97.3,360.3,96.3,361.6,96.3z&#10;&#9;&#9;&#9;" transform="matrix(1, 0, 0, 1, 0, 0)" style="fill: rgb(16, 155, 248);"/><path d="M 404.200012 29 L 346.899994 29" transform="matrix(1, 0, 0, 1, 0, 0)"/><path d="M346.9,26.7h57.3c1.3,0,2.3,1,2.3,2.3c0,1.3-1,2.3-2.3,2.3h-57.3c-1.3,0-2.3-1-2.3-2.3C344.6,27.8,345.6,26.7,346.9,26.7z&#10;&#9;&#9;&#9;" transform="matrix(1, 0, 0, 1, 0, 0)" style="fill: rgb(16, 155, 248);"/><path d="M 362.299988 72.599998 L 333.700012 72.599998" transform="matrix(1, 0, 0, 1, 0, 0)"/><path d="M333.7,70.3h28.6c1.3,0,2.3,1,2.3,2.3c0,1.3-1.1,2.3-2.3,2.3h-28.6c-1.3,0-2.3-1-2.3-2.3&#10;&#9;&#9;&#9;C331.4,71.3,332.4,70.3,333.7,70.3z" transform="matrix(1, 0, 0, 1, 0, 0)" style="fill: rgb(16, 155, 248);"/><path d="M 428.600006 72.599998 L 376.700012 72.599998" transform="matrix(1, 0, 0, 1, 0, 0)"/><path d="M376.7,70.3h51.9c1.3,0,2.3,1,2.3,2.3c0,1.3-1.1,2.3-2.3,2.3h-51.9c-1.3,0-2.3-1-2.3-2.3C374.3,71.3,375.4,70.3,376.7,70.3&#10;&#9;&#9;z" transform="matrix(1, 0, 0, 1, 0, 0)" style="fill: rgb(16, 155, 248);"/><path d="M461.2,897.6h28.6c1.3,0,2.3,1,2.3,2.3c0,1.3-1.1,2.3-2.3,2.3h-28.6c-1.3,0-2.3-1-2.3-2.3&#10;&#9;&#9;C458.8,898.6,459.9,897.6,461.2,897.6z" transform="matrix(1, 0, 0, 1, 0, 0)" style="fill: rgb(16, 155, 248);"/><path d="M405.2,920.3h51.9c1.3,0,2.3,1,2.3,2.3c0,1.3-1,2.3-2.3,2.3h-51.9c-1.3,0-2.3-1-2.3-2.3&#10;&#9;&#9;C402.9,921.3,403.9,920.3,405.2,920.3z" transform="matrix(1, 0, 0, 1, 0, 0)" style="fill: rgb(16, 155, 248);"/><path d="M 894.799988 511.899994 L 958.200012 511.899994" class="st12" style="fill: rgb(16, 155, 248); stroke: rgb(16, 155, 248); stroke-width: 3; stroke-miterlimit: 10;" transform="matrix(1, 0, 0, 1, 0, 0)"/><path d="M 932 503.299988 L 973.799988 503.299988" class="st12" style="fill: rgb(255, 255, 255); stroke: rgb(16, 155, 248); stroke-width: 3; stroke-miterlimit: 10;" transform="matrix(1, 0, 0, 1, 0, 0)"/><path d="M 883.599976 471.899994 L 980.799988 471.899994" class="st12" style="fill: rgb(16, 155, 248); stroke: rgb(16, 155, 248); stroke-width: 3; stroke-miterlimit: 10;" transform="matrix(1, 0, 0, 1, 0, 0)"/><path d="M 893.599976 49.200001 L 893.599976 58.400002" class="st14" style="fill: none; stroke: rgb(16, 155, 248); stroke-width: 3; stroke-linecap: round; stroke-linejoin: round; stroke-miterlimit: 10;" transform="matrix(1, 0, 0, 1, 0, 0)"/><path d="M 893.599976 69.199997 L 893.599976 78.400002" class="st14" style="fill: none; stroke: rgb(16, 155, 248); stroke-width: 3; stroke-linecap: round; stroke-linejoin: round; stroke-miterlimit: 10;" transform="matrix(1, 0, 0, 1, 0, 0)"/><path d="M 908.200012 63.799999 L 899 63.799999" class="st14" style="fill: none; stroke: rgb(16, 155, 248); stroke-width: 3; stroke-linecap: round; stroke-linejoin: round; stroke-miterlimit: 10;" transform="matrix(1, 0, 0, 1, 0, 0)"/><path d="M 888.099976 63.799999 L 879 63.799999" class="st14" style="fill: none; stroke: rgb(16, 155, 248); stroke-width: 3; stroke-linecap: round; stroke-linejoin: round; stroke-miterlimit: 10;" transform="matrix(1, 0, 0, 1, 0, 0)"/><path d="M 109.300003 372 L 109.300003 381.100006" class="st14" style="fill: none; stroke: rgb(16, 155, 248); stroke-width: 3; stroke-linecap: round; stroke-linejoin: round; stroke-miterlimit: 10;" transform="matrix(1, 0, 0, 1, 0, 0)"/><path d="M 109.300003 392 L 109.300003 401.200012" class="st14" style="fill: none; stroke: rgb(16, 155, 248); stroke-width: 3; stroke-linecap: round; stroke-linejoin: round; stroke-miterlimit: 10;" transform="matrix(1, 0, 0, 1, 0, 0)"/><path d="M 123.900002 386.600006 L 114.699997 386.600006" class="st14" style="fill: none; stroke: rgb(16, 155, 248); stroke-width: 3; stroke-linecap: round; stroke-linejoin: round; stroke-miterlimit: 10;" transform="matrix(1, 0, 0, 1, 0, 0)"/><path d="M 103.800003 386.600006 L 94.699997 386.600006" class="st14" style="fill: none; stroke: rgb(16, 155, 248); stroke-width: 3; stroke-linecap: round; stroke-linejoin: round; stroke-miterlimit: 10;" transform="matrix(1, 0, 0, 1, 0, 0)"/><path d="M 660.700012 222.199997 L 660.700012 231.399994" class="st14" style="fill: none; stroke: rgb(16, 155, 248); stroke-width: 3; stroke-linecap: round; stroke-linejoin: round; stroke-miterlimit: 10;" transform="matrix(1, 0, 0, 1, 0, 0)"/><path d="M 660.700012 242.199997 L 660.700012 251.399994" class="st14" style="fill: none; stroke: rgb(16, 155, 248); stroke-width: 3; stroke-linecap: round; stroke-linejoin: round; stroke-miterlimit: 10;" transform="matrix(1, 0, 0, 1, 0, 0)"/><path d="M 675.299988 236.800003 L 666.200012 236.800003" class="st14" style="fill: none; stroke: rgb(16, 155, 248); stroke-width: 3; stroke-linecap: round; stroke-linejoin: round; stroke-miterlimit: 10;" transform="matrix(1, 0, 0, 1, 0, 0)"/><path d="M 655.299988 236.800003 L 646.200012 236.800003" class="st14" style="fill: none; stroke: rgb(16, 155, 248); stroke-width: 3; stroke-linecap: round; stroke-linejoin: round; stroke-miterlimit: 10;" transform="matrix(1, 0, 0, 1, 0, 0)"/>
<g transform="matrix(1, 0, 0, 1, 0, 0)">
		<g>
			<g>
				<path d="M 198.60000610351562 768.0999755859375 L 194.60000610351562 768.0999755859375 L 194.60000610351562 637.4000244140625 L 333.3999938964844 637.4000244140625 L 333.3999938964844 641.4000244140625 L 198.60000610351562 641.4000244140625 Z" class="st15" style="fill: rgb(16, 155, 248);"/>
			</g>
			<g>
				<path d="M 304 467.20001220703125 L 304 471.20001220703125 L 193.5 471.20001220703125 L 193.5 352.8999938964844 L 197.5 352.8999938964844 L 197.5 467.20001220703125 Z" class="st15" style="fill: rgb(16, 155, 248);"/>
			</g>
			<g>
				<path d="M 1092.9000244140625 477.79998779296875 L 1092.9000244140625 473.79998779296875 L 1203.300048828125 473.79998779296875 L 1203.300048828125 515.2999877929688 L 1199.300048828125 515.2999877929688 L 1199.300048828125 477.79998779296875 Z" class="st15" style="fill: rgb(16, 155, 248);"/>
			</g>
			<g>
				<path d="M 1199.5 328 L 1203.5 328 L 1203.5 438.3999938964844 L 1085.0999755859375 438.3999938964844 L 1085.0999755859375 434.3999938964844 L 1199.5 434.3999938964844 Z" class="st15" style="fill: rgb(16, 155, 248);"/>
			</g>
		</g>
	</g>
<g transform="matrix(1, 0, 0, 1, 0, 0)">
		<path class="st6" d="M694.6,113C487.1,113,319,281.2,319,488.7c0,207.5,168.2,375.7,375.7,375.7s375.7-168.2,375.7-375.7&#10;&#9;&#9;&#9;C1070.3,281.2,902.1,113,694.6,113z M694.6,805.1c-174.8,0-316.4-141.7-316.4-316.4c0-174.8,141.7-316.4,316.4-316.4&#10;&#9;&#9;&#9;s316.4,141.7,316.4,316.4C1011.1,663.4,869.4,805.1,694.6,805.1z" style="fill: rgb(16, 155, 248);"/>
		<g>
			<path d="M 1040.799988 488.5 A 346.200012 346.200012 0 0 1 694.599976 834.700012 A 346.200012 346.200012 0 0 1 348.399963 488.5 A 346.200012 346.200012 0 0 1 694.599976 142.299988 A 346.200012 346.200012 0 0 1 1040.799988 488.5 Z" class="st16" style="fill: none; stroke: rgb(255, 255, 255); stroke-width: 2; stroke-miterlimit: 10; stroke-dasharray: 11.954, 11.954;"/>
		</g>
		<path class="st6" d="M1104.5,864.3H694.6v-59.2h409.9c16.4,0,29.6,13.3,29.6,29.6l0,0C1134.1,851.1,1120.9,864.3,1104.5,864.3z" style="fill: rgb(16, 155, 248);"/>
		<path d="M 694.599976 834.700012 L 1107.199951 834.700012" class="st17" style="fill: none; stroke: rgb(255, 255, 255); stroke-width: 2; stroke-miterlimit: 10; stroke-dasharray: 12;"/>
	<path d="M 145.86680603027344 328.1325988769531 L 145.86680603027344 328.1325988769531" style="fill: rgb(16, 155, 248); fill-opacity: 1; stroke: rgb(0, 0, 0); stroke-opacity: 1; stroke-width: 0; paint-order: fill;"/></g>
<g transform="matrix(1, 0, 0, 1, 0, 0)">
		<path d="M 856.9000244140625 315.20001220703125 L 856.9000244140625 693 L 568.2000122070312 693 L 568.2000122070312 315.20001220703125 L 768.5 315.20001220703125 L 768.5 398.3999938964844 L 788.2999877929688 379.5 L 808 398.3999938964844 L 808 315.20001220703125 Z" class="st18" style="opacity: 0.1; fill: rgb(29, 29, 27);"/>
		<path d="M 559.799988 308.899994 H 848.599976 V 686.699982 H 559.799988 V 308.899994 Z" class="st7" style="fill: rgb(255, 255, 255); stroke: rgb(214, 214, 214); stroke-width: 1.1079; stroke-miterlimit: 10;"/>
		<g id="XMLID_3_">
			<g>
				<path d="M 838.0999755859375 297.70001220703125 L 838.0999755859375 675.5 L 549.2999877929688 675.5 L 549.2999877929688 297.70001220703125 L 749.5999755859375 297.70001220703125 L 749.5999755859375 380.8999938964844 L 769.4000244140625 362 L 789.0999755859375 380.8999938964844 L 789.0999755859375 297.70001220703125 Z" class="st18" style="opacity: 0.1; fill: rgb(29, 29, 27);"/>
				<path d="M 543.099976 293.299988 H 831.899963 V 671.099976 H 543.099976 V 293.299988 Z" class="st7" style="fill: rgb(255, 255, 255); stroke: rgb(214, 214, 214); stroke-width: 1.1079; stroke-miterlimit: 10;"/>
				<path d="M 599.2999877929688 293.29998779296875 L 599.2999877929688 376.5 L 579.5 357.6000061035156 L 559.7999877929688 376.5 L 559.7999877929688 293.29998779296875 Z" class="st9" style="fill: rgb(244, 100, 95);"/>
			<path d="M 797.7139892578125 684.93701171875" style="fill: rgb(255, 255, 255); fill-opacity: 1; stroke: rgb(214, 214, 214); stroke-opacity: 1; stroke-width: 1.1079; paint-order: fill;"/><path d="M 735.2398681640625 602.1353759765625" style="fill: rgb(244, 100, 95); fill-opacity: 1; stroke: rgb(0, 0, 0); stroke-opacity: 1; stroke-width: 0; paint-order: fill;"/></g>
			<g>
				<g>
					<path d="M 595.400024 407.399994 H 782.900024 V 411.999994 H 595.400024 V 407.399994 Z" class="st19" style="fill: rgb(214, 214, 214);"/>
				</g>
				<g>
					<path d="M 617.5 337.100006 H 768.5 V 353.300007 H 617.5 V 337.100006 Z" class="st19" style="fill: rgb(214, 214, 214);"/>
				</g>
				<g>
					<path d="M 595.400024 433.799988 H 782.900024 V 438.399988 H 595.400024 V 433.799988 Z" class="st19" style="fill: rgb(214, 214, 214);"/>
				</g>
				<g>
					<path d="M 595.400024 460.200012 H 782.900024 V 464.800012 H 595.400024 V 460.200012 Z" class="st19" style="fill: rgb(214, 214, 214);"/>
				</g>
				<g>
					<path d="M 595.400024 513 H 782.900024 V 517.6 H 595.400024 V 513 Z" class="st19" style="fill: rgb(214, 214, 214);"/>
				</g>
				<g>
					<path d="M 595.400024 539.400024 H 782.900024 V 544.000024 H 595.400024 V 539.400024 Z" class="st19" style="fill: rgb(214, 214, 214);"/>
				</g>
			</g>
		</g>
	</g><path class="st9" d="M738.5,604.7c1.1,4,8.3,7.4,8.3,11.8s-7.2,7.7-8.3,11.8c-1.1,4.2,3.4,10.7,1.3,14.3c-2.1,3.7-10.1,3-13.1,6&#10;&#9;&#9;&#9;c-0.5,0.5-1,1.2-1.3,2c-0.8,1.8-1.2,4.1-1.8,6.1c-0.6,2.1-1.4,4-2.9,4.9c-3.6,2.1-10.2-2.4-14.3-1.3c-1.3,0.3-2.5,1.3-3.7,2.5v0&#10;&#9;&#9;&#9;c-1,1-2.1,2.2-3.2,3.2c-1.5,1.5-3.1,2.7-4.9,2.7s-3.4-1.2-4.9-2.7c-1.1-1-2.1-2.2-3.2-3.2v0c-1.2-1.2-2.4-2.1-3.7-2.5&#10;&#9;&#9;&#9;c-4.2-1.1-10.7,3.4-14.3,1.3c-1.5-0.9-2.3-2.8-2.9-4.9c-0.6-2.1-1-4.3-1.8-6.1c-0.3-0.8-0.8-1.5-1.3-2c-3-3-10.9-2.3-13.1-6&#10;&#9;&#9;&#9;c-2.1-3.6,2.4-10.2,1.3-14.3c-1.1-4-8.3-7.4-8.3-11.8s7.2-7.7,8.3-11.8c1.1-4.2-3.4-10.7-1.3-14.3c2.1-3.7,10.1-3,13.1-6&#10;&#9;&#9;&#9;c3-3,2.3-10.9,6-13.1c3.6-2.1,10.2,2.4,14.3,1.3c4-1.1,7.4-8.3,11.8-8.3c4.4,0,7.7,7.2,11.8,8.3c4.2,1.1,10.7-3.4,14.3-1.3&#10;&#9;&#9;&#9;c3.7,2.1,3,10.1,6,13.1c3,3,10.9,2.3,13.1,6C741.9,594,737.4,600.6,738.5,604.7z M733.2,616.5c0-21.3-17.2-38.5-38.5-38.5&#10;&#9;&#9;&#9;s-38.5,17.2-38.5,38.5c0,21.3,17.2,38.5,38.5,38.5S733.2,637.8,733.2,616.5z" style="fill: rgb(244, 100, 95);" transform="matrix(1, 0, 0, 1, 0, 0)"/><path d="M 733.099976 616.5 A 38.5 38.5 0 0 1 694.599976 655 A 38.5 38.5 0 0 1 656.099976 616.5 A 38.5 38.5 0 0 1 694.599976 578 A 38.5 38.5 0 0 1 733.099976 616.5 Z" class="st0" style="fill: rgb(255, 255, 255);" transform="matrix(1, 0, 0, 1, 0, 0)"/><path class="st19" d="M725.4,650.6c-0.8,1.8-1.2,4.1-1.8,6.1c-0.6,2.1-1.4,4-2.9,4.9c-3.6,2.1-10.2-2.4-14.3-1.3&#10;&#9;&#9;&#9;&#9;c-1.3,0.3-2.5,1.3-3.7,2.5v0c-1,1-2.1,2.2-3.2,3.2l36.7,77.4l8.6-16.9l18.5,4.1L725.4,650.6z" style="fill: rgb(244, 100, 95);" transform="matrix(1, 0, 0, 1, 0, 0)"/><path class="st19" d="M686.6,662.8c-1.2-1.2-2.4-2.1-3.7-2.5c-4.2-1.1-10.7,3.4-14.3,1.3c-1.5-0.9-2.3-2.8-2.9-4.9&#10;&#9;&#9;&#9;&#9;c-0.6-2.1-1-4.3-1.8-6.1L626,730.6l18.5-4.1l8.6,16.9l36.7-77.4C688.7,665,687.6,663.8,686.6,662.8L686.6,662.8z" style="fill: rgb(244, 100, 95);" transform="matrix(1, 0, 0, 1, 0, 0)"/><text transform="matrix(1, 0, 0, 1, 679.0092163085938, 633.9494018554688)" class="st20 st21 st22" style="white-space: pre; fill: rgb(244, 100, 95); font-family: CooperHewitt-Medium; font-size: 52.063px;">1</text><path class="st20" d="M694.6,651.1c-19.1,0-34.6-15.5-34.6-34.6c0-19.1,15.5-34.6,34.6-34.6c19.1,0,34.6,15.5,34.6,34.6&#10;&#9;&#9;&#9;&#9;C729.2,635.6,713.7,651.1,694.6,651.1z M694.6,584.9c-17.4,0-31.6,14.2-31.6,31.6c0,17.4,14.2,31.6,31.6,31.6&#10;&#9;&#9;&#9;&#9;c17.4,0,31.6-14.2,31.6-31.6C726.2,599.1,712.1,584.9,694.6,584.9z" style="fill: rgb(244, 100, 95);" transform="matrix(1, 0, 0, 1, 0, 0)"/>
<g transform="matrix(1, 0, 0, 1, 0, 0)">
		<path d="M 64.199997 496.899994 H 117.699997 V 550.399994 H 64.199997 V 496.899994 Z" class="st23" style="fill: rgb(247, 173, 64);"/>
		<path d="M 64.199997 563.799988 H 117.699997 V 617.299988 H 64.199997 V 563.799988 Z" class="st24" style="fill: rgb(255, 210, 46);"/>
		<path d="M 1163.5 879.5 H 1217 V 933 H 1163.5 V 879.5 Z" class="st25" style="fill: rgb(179, 218, 216);"/>
	</g><path d="M 128.300003 504.399994 H 252.400002 V 515.899994 H 128.300003 V 504.399994 Z" class="st23" style="fill: rgb(247, 173, 64);" transform="matrix(1, 0, 0, 1, 0, 0)"/><path d="M 128.300003 533.799988 H 286.600006 V 545.299988 H 128.300003 V 533.799988 Z" class="st23" style="fill: rgb(247, 173, 64);" transform="matrix(1, 0, 0, 1, 0, 0)"/><path d="M 128.300003 570 H 286.600006 V 581.5 H 128.300003 V 570 Z" class="st24" style="fill: rgb(255, 210, 46);" transform="matrix(1, 0, 0, 1, 0, 0)"/><path d="M 128.300003 599.5 H 243.600006 V 611 H 128.300003 V 599.5 Z" class="st24" style="fill: rgb(255, 210, 46);" transform="matrix(1, 0, 0, 1, 0, 0)"/><path d="M 1226 884.700012 H 1362.600006 V 896.200012 H 1226 V 884.700012 Z" class="st25" style="fill: rgb(179, 218, 216);" transform="matrix(1, 0, 0, 1, 0, 0)"/><path d="M 1227.599976 913.900024 H 1342.299973 V 925.400024 H 1227.599976 V 913.900024 Z" class="st25" style="fill: rgb(179, 218, 216);" transform="matrix(1, 0, 0, 1, 0, 0)"/>
<g transform="matrix(1.4178357124328613, 0, 0, 1.4178357124328613, -1172.7453264202443, -5.540392875671415)"><g transform="matrix(1, 0, 0, 1, 0, 0)">
	<path d="M 952.2000122070312 140.6999969482422 L 900.7000122070312 181.10000610351562 L 1027.9000244140625 181.10000610351562 L 976.5 140.6999969482422 L 964.2999877929688 150.1999969482422 Z" class="st26" style="fill: rgb(214, 214, 214); opacity: 1;"/>
	<path d="M 948.7000122070312 138 L 897.5 97.80000305175781 L 897.5 178.1999969482422 Z" class="st26" style="fill: rgb(214, 214, 214); opacity: 1;"/>
	<path d="M 979.9000244140625 138 L 1031.0999755859375 178.1999969482422 L 1031.0999755859375 97.80000305175781 Z" class="st26" style="fill: rgb(214, 214, 214); opacity: 1;"/>
	
<path class="st26" d="M 900.2 94.5 L 964.3000000000001 144.9 L 1028.4 94.5 L 900.2 94.5 Z" style="fill: rgb(214, 214, 214); opacity: 1;"/><path d="M 1047.3223876953125 133.12728881835938" style="fill: rgb(214, 214, 214); fill-opacity: 1; stroke: rgb(0, 0, 0); stroke-opacity: 1; stroke-width: 0; paint-order: fill;"/></g></g><path d="M 197.12904357910156 157.10394287109375 L 197.12904357910156 157.10394287109375 L 193.5884246826172 169.49609375" style="fill: rgb(255, 255, 255); fill-opacity: 1; stroke: rgb(0, 0, 0); stroke-opacity: 1; stroke-width: 0; paint-order: fill;"/><path d="M 214.8321075439453 155.33363342285156 L 214.8321075439453 155.33363342285156" style="fill: rgb(255, 255, 255); fill-opacity: 1; stroke: rgb(0, 0, 0); stroke-opacity: 1; stroke-width: 0; paint-order: fill;"/><path d="M 239.9859619140625 155.7075653076172" style="fill: rgb(255, 255, 255); fill-opacity: 1; stroke: rgb(0, 0, 0); stroke-opacity: 1; stroke-width: 0; paint-order: fill;"/><path d="M 203.31307983398438 155.7075653076172" style="fill: rgb(255, 255, 255); fill-opacity: 1; stroke: rgb(0, 0, 0); stroke-opacity: 1; stroke-width: 0; paint-order: fill;"/><path d="M 183.83059692382812 156.8535919189453" style="fill: rgb(255, 255, 255); fill-opacity: 1; stroke: rgb(0, 0, 0); stroke-opacity: 1; stroke-width: 0; paint-order: fill;"/><path d="M 735.2398681640625 641.9904174804688" style="fill: rgb(255, 255, 255); fill-opacity: 1; stroke: rgb(0, 0, 0); stroke-opacity: 1; stroke-width: 0; paint-order: fill;"/><path d="M 86.47210693359375 701.5211791992188" style="fill: rgb(255, 210, 46); fill-opacity: 1; stroke: rgb(0, 0, 0); stroke-opacity: 1; stroke-width: 0; paint-order: fill;"/><path d="M 1294.3724365234375 975.0874633789062" style="fill: rgb(98, 191, 190); fill-opacity: 1; stroke: rgb(0, 0, 0); stroke-opacity: 1; stroke-width: 0; paint-order: fill;"/></svg>