<?xml version="1.0" encoding="utf-8"?>
<svg id="master-artboard" viewBox="0 0 335.986 235.19" version="1.1" xmlns="http://www.w3.org/2000/svg" x="0px" y="0px" width="335.9859924316406px" height="235.19000244140625px" enable-background="new 0 0 335.986 235.19">


<path fill="#2B5A5F" d="M313.592,210.2c0,0.176-0.144,0.32-0.319,0.32h-63.48c-0.176,0-0.319-0.145-0.319-0.32v-74.697&#10;&#9;&#9;c0-0.176,0.144-0.318,0.319-0.318h63.48c0.176,0,0.319,0.143,0.319,0.318V210.2z" transform="matrix(1, 0, 0, 1, 0, 0)"/>
<g transform="matrix(1, 0, 0, 1, 0, 0)">
		<path d="M 309.3970031738281 139.46400451660156 L 253.66700744628906 139.46400451660156 L 253.66700744628906 190.31500244140625 L 270.97198486328125 207.61599731445312 L 309.3970031738281 207.61599731445312 Z" fill="#F1F3F8"/>
	</g>
<g transform="matrix(1, 0, 0, 1, 0, 0)">
		<path fill="none" d="M281.763,127.88c-1.523,0-2.76,1.234-2.76,2.758c0,1.52,1.236,2.762,2.76,2.762&#10;&#9;&#9;&#9;c1.521,0,2.759-1.242,2.759-2.762C284.521,129.114,283.283,127.88,281.763,127.88z"/>
	</g><path fill="#E76065" d="M298.038,136.386h-8.704v-5.791h-0.005c-0.025-4.16-3.402-7.531-7.566-7.531&#10;&#9;&#9;&#9;c-4.182,0-7.57,3.396-7.57,7.574c0,0.113,0.027,0.217,0.031,0.326v5.422h-9.87c-2.802,0-5.095,1.861-5.095,4.141v2.443&#10;&#9;&#9;&#9;c0,0.936,0.762,1.697,1.697,1.697h3.397h33.685h3.4c0.934,0,1.697-0.762,1.697-1.697v-2.443&#10;&#9;&#9;&#9;C303.136,138.247,300.842,136.386,298.038,136.386z M281.763,127.88c1.521,0,2.759,1.234,2.759,2.758&#10;&#9;&#9;&#9;c0,1.52-1.238,2.762-2.759,2.762c-1.523,0-2.76-1.242-2.76-2.762C279.003,129.114,280.239,127.88,281.763,127.88z" transform="matrix(1, 0, 0, 1, 0, 0)"/>
<g transform="matrix(1, 0, 0, 1, 0, 0)">
		<g>
			<path fill="#E76065" d="M88.706,157.235c0,0.992-0.812,1.807-1.807,1.807h-8.876c-0.995,0-1.808-0.814-1.808-1.807v-11.584&#10;&#9;&#9;&#9;&#9;c0-0.996,0.812-1.809,1.808-1.809h8.876c0.995,0,1.807,0.812,1.807,1.809V157.235z"/>
		</g>
	</g><g transform="matrix(1, 0, 0, 1, 0, 0)">
			<path fill="#E76065" d="M88.706,179.507c0,0.99-0.812,1.807-1.807,1.807h-8.876c-0.995,0-1.808-0.816-1.808-1.807v-11.588&#10;&#9;&#9;&#9;&#9;c0-0.994,0.812-1.805,1.808-1.805h8.876c0.995,0,1.807,0.811,1.807,1.805V179.507z"/>
		</g><g transform="matrix(1, 0, 0, 1, 0, 0)">
			<path fill="#E76065" d="M88.706,201.778c0,0.99-0.812,1.805-1.807,1.805h-8.876c-0.995,0-1.808-0.814-1.808-1.805V190.19&#10;&#9;&#9;&#9;&#9;c0-0.994,0.812-1.807,1.808-1.807h8.876c0.995,0,1.807,0.812,1.807,1.807V201.778z"/>
		</g><path d="M 84.491997 188.384003 H 85.485997 V 203.583003 H 84.491997 V 188.384003 Z" fill="#709F47" transform="matrix(1, 0, 0, 1, 0, 0)"/><path d="M 84.491997 166.113998 H 85.485997 V 181.312999 H 84.491997 V 166.113998 Z" fill="#709F47" transform="matrix(1, 0, 0, 1, 0, 0)"/><path d="M 84.491997 143.843002 H 85.485997 V 159.042003 H 84.491997 V 143.843002 Z" fill="#709F47" transform="matrix(1, 0, 0, 1, 0, 0)"/><path fill="#FFFFFF" d="M82.688,136.169H38.146v75.088h44.541c0.992,0,1.805-0.812,1.805-1.807v-71.475&#10;&#9;&#9;&#9;C84.492,136.983,83.68,136.169,82.688,136.169z" transform="matrix(1, 0, 0, 1, 0, 0)" style="stroke: rgb(200, 200, 200);"/><path fill="#2B5A5F" d="M38.146,136.169H25.208c-0.996,0-1.809,0.814-1.809,1.807v71.475c0,0.994,0.812,1.807,1.809,1.807h12.938&#10;&#9;&#9;&#9;V136.169z" transform="matrix(1, 0, 0, 1, 0, 0)"/><path d="M 37.549 136.169006 H 38.147 V 211.257004 H 37.549 V 136.169006 Z" transform="matrix(1, 0, 0, 1, 0, 0)"/>
<path d="M 251.110001 16.011 H 311.765999 V 93.581999 H 251.110001 V 16.011 Z" fill="#FFFFFF" transform="matrix(1, 0, 0, 1, 0, 0)" style="stroke: rgb(200, 200, 200);"/>
<path d="M 251.110001 16.011 H 311.765999 V 25.219999 H 251.110001 V 16.011 Z" fill="#2B5A5F" transform="matrix(1, 0, 0, 1, 0, 0)"/>
<path d="M 261.655005 20.398001 A 2.094 2.094 0 0 1 259.561005 22.492001 A 2.094 2.094 0 0 1 257.467005 20.398001 A 2.094 2.094 0 0 1 259.561005 18.304001 A 2.094 2.094 0 0 1 261.655005 20.398001 Z" fill="#ADFDF4" transform="matrix(1, 0, 0, 1, 0, 0)"/>
<path d="M 269.200011 20.398001 A 2.095 2.095 0 0 1 267.105011 22.493001 A 2.095 2.095 0 0 1 265.010011 20.398001 A 2.095 2.095 0 0 1 267.105011 18.303001 A 2.095 2.095 0 0 1 269.200011 20.398001 Z" fill="#ADFDF4" transform="matrix(1, 0, 0, 1, 0, 0)"/>
<path d="M 276.743987 20.398001 A 2.095 2.095 0 0 1 274.648987 22.493001 A 2.095 2.095 0 0 1 272.553987 20.398001 A 2.095 2.095 0 0 1 274.648987 18.303001 A 2.095 2.095 0 0 1 276.743987 20.398001 Z" fill="#ADFDF4" transform="matrix(1, 0, 0, 1, 0, 0)"/>
<path d="M 305.713988 20.398001 A 2.095 2.095 0 0 1 303.618988 22.493001 A 2.095 2.095 0 0 1 301.523988 20.398001 A 2.095 2.095 0 0 1 303.618988 18.303001 A 2.095 2.095 0 0 1 305.713988 20.398001 Z" fill="#ADFDF4" transform="matrix(1, 0, 0, 1, 0, 0)"/>
<path d="M 25.645 16.011 H 86.300999 V 93.581999 H 25.645 V 16.011 Z" fill="#FFFFFF" transform="matrix(1, 0, 0, 1, 0, 0)" style="stroke: rgb(200, 200, 200);"/>
<path d="M 25.645 16.011 H 86.300999 V 25.219999 H 25.645 V 16.011 Z" fill="#2B5A5F" transform="matrix(1, 0, 0, 1, 0, 0)"/>
<path d="M 36.189001 20.398001 A 2.094 2.094 0 0 1 34.095001 22.492001 A 2.094 2.094 0 0 1 32.001001 20.398001 A 2.094 2.094 0 0 1 34.095001 18.304001 A 2.094 2.094 0 0 1 36.189001 20.398001 Z" fill="#ADFDF4" transform="matrix(1, 0, 0, 1, 0, 0)"/>
<path d="M 43.734999 20.398001 A 2.095 2.095 0 0 1 41.639999 22.493001 A 2.095 2.095 0 0 1 39.544999 20.398001 A 2.095 2.095 0 0 1 41.639999 18.303001 A 2.095 2.095 0 0 1 43.734999 20.398001 Z" fill="#ADFDF4" transform="matrix(1, 0, 0, 1, 0, 0)"/>
<path d="M 51.277999 20.398001 A 2.095 2.095 0 0 1 49.182999 22.493001 A 2.095 2.095 0 0 1 47.087999 20.398001 A 2.095 2.095 0 0 1 49.182999 18.303001 A 2.095 2.095 0 0 1 51.277999 20.398001 Z" fill="#ADFDF4" transform="matrix(1, 0, 0, 1, 0, 0)"/>
<path d="M 80.248 20.398001 A 2.095 2.095 0 0 1 78.153 22.493001 A 2.095 2.095 0 0 1 76.058 20.398001 A 2.095 2.095 0 0 1 78.153 18.303001 A 2.095 2.095 0 0 1 80.248 20.398001 Z" fill="#ADFDF4" transform="matrix(1, 0, 0, 1, 0, 0)"/>
<path fill="#FFFFFF" d="M66.19,112.501c-0.864-0.865-1.339-2.013-1.34-3.236c0-1.223,0.476-2.372,1.341-3.236&#10;&#9;&#9;c0.863-0.863,2.014-1.34,3.235-1.34h16.263c1.961,0,3.557,1.596,3.557,3.555c0,0.951-0.37,1.845-1.042,2.517&#10;&#9;&#9;c-0.672,0.67-1.564,1.042-2.515,1.042L69.413,111.8c-1.403,0.002-2.544-1.142-2.546-2.544c0-0.682,0.265-1.32,0.745-1.803&#10;&#9;&#9;c0.482-0.48,1.121-0.745,1.8-0.745l4.046-0.001c0.299,0,0.54,0.244,0.542,0.542c-0.002,0.3-0.243,0.542-0.541,0.541l-4.045-0.001&#10;&#9;&#9;c-0.392,0.001-0.759,0.153-1.036,0.43c-0.276,0.276-0.429,0.645-0.429,1.037c0,0.807,0.657,1.464,1.465,1.465l16.275-0.001&#10;&#9;&#9;c0.661,0,1.282-0.258,1.75-0.726c0.468-0.467,0.725-1.088,0.724-1.748c0.002-0.662-0.256-1.284-0.724-1.75&#10;&#9;&#9;c-0.468-0.467-1.089-0.725-1.75-0.725H69.428c-0.935,0-1.812,0.362-2.472,1.022c-0.66,0.661-1.023,1.539-1.023,2.471&#10;&#9;&#9;c-0.001,0.935,0.363,1.811,1.023,2.471s1.537,1.025,2.471,1.023l4.032,0.002c0.299,0,0.54,0.242,0.539,0.541&#10;&#9;&#9;c0,0.299-0.24,0.541-0.54,0.541h-4.031C68.206,113.843,67.056,113.366,66.19,112.501z" transform="matrix(1, 0, 0, 1, 0, 0)" style="fill: rgb(128, 216, 221);"/>
<path fill="#FFFFFF" d="M232.608,226.638c-0.864-0.865-1.339-2.014-1.34-3.236c0-1.223,0.476-2.373,1.341-3.236&#10;&#9;&#9;c0.863-0.863,2.014-1.34,3.235-1.34h16.263c1.961,0,3.557,1.596,3.557,3.555c0,0.951-0.37,1.844-1.042,2.516&#10;&#9;&#9;s-1.564,1.041-2.515,1.041h-16.276c-1.403,0-2.544-1.143-2.546-2.545c0-0.682,0.265-1.32,0.745-1.803&#10;&#9;&#9;c0.482-0.48,1.121-0.746,1.8-0.746h4.046c0.299,0,0.54,0.244,0.542,0.541c-0.002,0.301-0.243,0.543-0.541,0.541h-4.045&#10;&#9;&#9;c-0.392,0-0.759,0.152-1.036,0.43c-0.276,0.275-0.429,0.645-0.429,1.037c0,0.807,0.657,1.463,1.465,1.465l16.275-0.002&#10;&#9;&#9;c0.661,0,1.282-0.258,1.75-0.725s0.725-1.088,0.724-1.748c0.002-0.662-0.256-1.285-0.724-1.75c-0.468-0.467-1.089-0.725-1.75-0.725&#10;&#9;&#9;h-16.262c-0.935,0-1.812,0.361-2.472,1.021c-0.66,0.662-1.023,1.539-1.023,2.471c-0.001,0.936,0.363,1.812,1.023,2.473&#10;&#9;&#9;s1.537,1.023,2.471,1.023h4.032c0.299,0,0.54,0.244,0.539,0.543c0,0.297-0.24,0.539-0.54,0.539h-4.031&#10;&#9;&#9;C234.624,227.978,233.474,227.503,232.608,226.638z" transform="matrix(1, 0, 0, 1, 0, 0)" style="fill: rgb(128, 216, 221);"/>
<path fill="#FFFFFF" d="M103.098,217.991c0.864,0.865,1.339,2.014,1.34,3.236c0,1.223-0.476,2.373-1.341,3.236&#10;&#9;&#9;c-0.863,0.863-2.014,1.34-3.235,1.34H83.599c-1.961,0-3.557-1.596-3.557-3.555c0-0.951,0.37-1.844,1.042-2.516&#10;&#9;&#9;s1.564-1.041,2.515-1.041h16.276c1.403,0,2.544,1.143,2.546,2.545c0,0.682-0.265,1.32-0.745,1.803&#10;&#9;&#9;c-0.482,0.48-1.121,0.746-1.8,0.746H95.83c-0.299,0-0.54-0.244-0.542-0.541c0.002-0.301,0.243-0.543,0.541-0.541h4.045&#10;&#9;&#9;c0.392,0,0.759-0.152,1.036-0.43c0.276-0.275,0.429-0.645,0.429-1.037c0-0.807-0.657-1.463-1.465-1.465l-16.275,0.002&#10;&#9;&#9;c-0.661,0-1.282,0.258-1.75,0.725s-0.725,1.088-0.724,1.748c-0.002,0.662,0.256,1.285,0.724,1.75&#10;&#9;&#9;c0.468,0.467,1.089,0.725,1.75,0.725H99.86c0.935,0,1.812-0.361,2.472-1.021c0.66-0.662,1.023-1.539,1.023-2.471&#10;&#9;&#9;c0.001-0.936-0.363-1.812-1.023-2.473s-1.537-1.023-2.471-1.023h-4.032c-0.299,0-0.54-0.244-0.539-0.543&#10;&#9;&#9;c0-0.297,0.24-0.539,0.54-0.539h4.031C101.082,216.651,102.232,217.126,103.098,217.991z" transform="matrix(1, 0, 0, 1, 0, 0)" style="fill: rgb(128, 216, 221);"/>
<path fill="#FFFFFF" d="M82.084,120.302c0-1.225,0.477-2.371,1.341-3.238c0.864-0.863,2.015-1.34,3.236-1.338&#10;&#9;&#9;c1.222,0,2.371,0.475,3.235,1.34l11.5,11.5c1.387,1.387,1.387,3.643,0.001,5.027c-0.673,0.674-1.566,1.043-2.517,1.043&#10;&#9;&#9;c-0.949,0-1.842-0.371-2.514-1.043l-11.509-11.508c-0.993-0.994-0.991-2.607-0.001-3.602c0.482-0.482,1.121-0.746,1.802-0.746&#10;&#9;&#9;s1.319,0.266,1.8,0.746l2.861,2.859c0.212,0.211,0.21,0.555,0,0.766c-0.213,0.211-0.555,0.211-0.765,0l-2.859-2.859&#10;&#9;&#9;c-0.278-0.277-0.645-0.43-1.037-0.43c-0.391,0-0.759,0.152-1.035,0.43c-0.571,0.57-0.571,1.5-0.001,2.07l11.51,11.51&#10;&#9;&#9;c0.468,0.467,1.088,0.725,1.75,0.725c0.66,0,1.281-0.258,1.748-0.725c0.469-0.469,0.728-1.09,0.726-1.75&#10;&#9;&#9;c0-0.66-0.257-1.281-0.726-1.748l-11.499-11.5c-0.661-0.66-1.537-1.025-2.471-1.025c-0.935,0.002-1.812,0.365-2.471,1.023&#10;&#9;&#9;c-0.661,0.662-1.024,1.539-1.024,2.473s0.363,1.811,1.024,2.471l2.851,2.85c0.212,0.213,0.21,0.555-0.002,0.766&#10;&#9;&#9;c-0.211,0.211-0.553,0.211-0.765,0l-2.851-2.85C82.561,122.675,82.084,121.524,82.084,120.302z" transform="matrix(1, 0, 0, 1, 0, 0)" style="fill: rgb(128, 216, 221);"/>
<path fill="#FFFFFF" d="M305.714,109.572c0-1.225,0.477-2.371,1.341-3.238c0.864-0.863,2.015-1.34,3.236-1.339&#10;&#9;&#9;c1.222,0,2.371,0.476,3.235,1.341l11.5,11.5c1.387,1.387,1.387,3.643,0.001,5.027c-0.673,0.674-1.566,1.043-2.517,1.043&#10;&#9;&#9;c-0.949,0-1.842-0.371-2.514-1.043l-11.509-11.508c-0.993-0.994-0.991-2.608-0.001-3.601c0.482-0.482,1.121-0.747,1.802-0.747&#10;&#9;&#9;s1.319,0.266,1.8,0.746l2.861,2.86c0.212,0.211,0.21,0.554,0,0.765c-0.213,0.211-0.555,0.211-0.765,0l-2.859-2.86&#10;&#9;&#9;c-0.278-0.276-0.645-0.429-1.037-0.429c-0.391,0-0.759,0.152-1.035,0.43c-0.571,0.57-0.571,1.5-0.001,2.07l11.51,11.509&#10;&#9;&#9;c0.468,0.467,1.088,0.725,1.75,0.725c0.66,0,1.281-0.258,1.748-0.725c0.469-0.469,0.728-1.09,0.726-1.75&#10;&#9;&#9;c0-0.66-0.257-1.281-0.726-1.748l-11.499-11.5c-0.661-0.661-1.537-1.025-2.471-1.025c-0.935,0.001-1.812,0.365-2.471,1.023&#10;&#9;&#9;c-0.661,0.661-1.024,1.538-1.024,2.472s0.363,1.811,1.024,2.471l2.851,2.85c0.212,0.213,0.21,0.555-0.002,0.766&#10;&#9;&#9;c-0.211,0.211-0.553,0.211-0.765,0l-2.851-2.85C306.19,111.944,305.714,110.793,305.714,109.572z" transform="matrix(1, 0, 0, 1, 0, 0)" style="fill: rgb(128, 216, 221);"/>
<path fill="#FFFFFF" d="M240.204,124.392c-1.223,0-2.37-0.477-3.235-1.342c-0.864-0.863-1.341-2.014-1.341-3.236&#10;&#9;&#9;c0-1.221,0.477-2.371,1.341-3.234l11.499-11.5c1.387-1.386,3.644-1.387,5.029-0.001c0.672,0.673,1.042,1.566,1.042,2.517&#10;&#9;&#9;c0,0.949-0.37,1.842-1.042,2.514l-11.51,11.508c-0.991,0.994-2.606,0.992-3.6,0.002c-0.482-0.482-0.746-1.121-0.748-1.803&#10;&#9;&#9;c0.002-0.68,0.266-1.318,0.746-1.799l2.86-2.861c0.211-0.211,0.554-0.209,0.767,0c0.21,0.213,0.211,0.555,0,0.766l-2.861,2.859&#10;&#9;&#9;c-0.276,0.277-0.428,0.645-0.429,1.035c0,0.391,0.152,0.76,0.431,1.037c0.57,0.57,1.499,0.57,2.071,0l11.508-11.509&#10;&#9;&#9;c0.468-0.468,0.724-1.089,0.724-1.751c0.001-0.66-0.256-1.281-0.724-1.747c-0.467-0.47-1.089-0.728-1.749-0.726&#10;&#9;&#9;c-0.661,0-1.282,0.258-1.75,0.725l-11.499,11.499c-0.661,0.662-1.024,1.537-1.024,2.471c0,0.936,0.364,1.812,1.023,2.471&#10;&#9;&#9;c0.66,0.662,1.537,1.025,2.471,1.025s1.812-0.363,2.471-1.023l2.853-2.852c0.211-0.211,0.554-0.209,0.765,0.002&#10;&#9;&#9;c0.21,0.211,0.212,0.553,0,0.764l-2.851,2.852C242.578,123.915,241.429,124.392,240.204,124.392z" transform="matrix(1, 0, 0, 1, 0, 0)" style="fill: rgb(128, 216, 221);"/>
<path fill="#FFFFFF" d="M13.638,132.567c-1.223,0-2.37-0.477-3.235-1.34c-0.864-0.865-1.341-2.014-1.341-3.236&#10;&#9;&#9;s0.477-2.373,1.341-3.236l11.499-11.5c1.387-1.385,3.644-1.387,5.029,0c0.672,0.672,1.042,1.566,1.042,2.516&#10;&#9;&#9;s-0.37,1.842-1.042,2.514l-11.51,11.51c-0.991,0.992-2.606,0.99-3.6,0c-0.482-0.482-0.746-1.121-0.748-1.801&#10;&#9;&#9;c0.002-0.682,0.266-1.32,0.746-1.801l2.86-2.861c0.211-0.211,0.554-0.209,0.767,0c0.21,0.213,0.211,0.555,0,0.766l-2.861,2.859&#10;&#9;&#9;c-0.276,0.277-0.428,0.645-0.429,1.037c0,0.391,0.152,0.758,0.431,1.035c0.57,0.57,1.499,0.57,2.071,0l11.508-11.508&#10;&#9;&#9;c0.468-0.469,0.724-1.09,0.724-1.752c0.001-0.66-0.256-1.281-0.724-1.746c-0.467-0.471-1.089-0.729-1.749-0.727&#10;&#9;&#9;c-0.661,0-1.282,0.258-1.75,0.725l-11.499,11.5c-0.661,0.66-1.024,1.537-1.024,2.471s0.364,1.811,1.023,2.471&#10;&#9;&#9;c0.66,0.66,1.537,1.023,2.471,1.023s1.812-0.363,2.471-1.023l2.853-2.852c0.211-0.211,0.554-0.209,0.765,0.004&#10;&#9;&#9;c0.21,0.209,0.212,0.551,0,0.764l-2.851,2.85C16.012,132.091,14.862,132.567,13.638,132.567z" transform="matrix(1, 0, 0, 1, 0, 0)" style="fill: rgb(128, 216, 221);"/>
<path fill="#FFFFFF" d="M256.252,117.962c-0.866-0.865-1.34-2.014-1.342-3.238c0.001-1.221,0.478-2.371,1.342-3.234&#10;&#9;&#9;c0.864-0.865,2.013-1.34,3.235-1.34h16.264c1.961,0,3.557,1.596,3.556,3.555c0.001,0.951-0.37,1.844-1.042,2.516&#10;&#9;&#9;c-0.671,0.672-1.564,1.041-2.515,1.041h-16.276c-1.404,0-2.544-1.143-2.547-2.545c0-0.684,0.265-1.322,0.746-1.803&#10;&#9;&#9;c0.481-0.482,1.121-0.746,1.801-0.746h4.045c0.3,0,0.541,0.242,0.541,0.541c0,0.301-0.242,0.541-0.541,0.541h-4.043&#10;&#9;&#9;c-0.393,0-0.759,0.152-1.037,0.43c-0.275,0.275-0.429,0.645-0.428,1.035c-0.001,0.809,0.656,1.465,1.463,1.465h16.276&#10;&#9;&#9;c0.662,0,1.282-0.258,1.75-0.725s0.725-1.088,0.724-1.75c0.001-0.662-0.255-1.283-0.724-1.75c-0.467-0.467-1.088-0.725-1.749-0.723&#10;&#9;&#9;h-16.263c-0.935,0-1.812,0.361-2.472,1.021c-0.66,0.662-1.023,1.539-1.023,2.471c0,0.936,0.363,1.812,1.023,2.473&#10;&#9;&#9;s1.537,1.023,2.471,1.023h4.031c0.301,0,0.541,0.242,0.54,0.541c0,0.299-0.241,0.541-0.54,0.541h-4.031&#10;&#9;&#9;C258.267,119.302,257.116,118.825,256.252,117.962z" transform="matrix(1, 0, 0, 1, 0, 0)" style="fill: rgb(128, 216, 221);"/>


<path d="M 119.567001 72.089996 H 216.005005 V 196.422997 H 119.567001 V 72.089996 Z" fill="#B7E8F3" transform="matrix(1, 0, 0, 1, 0, 0)"/>
<path fill="#2B5A5F" d="M219.145,56.272H116.433c-2.303,0-4.188,1.884-4.188,4.188v148.002c0,2.305,1.885,4.188,4.188,4.188&#10;&#9;&#9;h102.712c2.304,0,4.188-1.883,4.188-4.188V60.459C223.332,58.156,221.448,56.272,219.145,56.272z M216.006,196.423h-96.438V72.09&#10;&#9;&#9;h96.438V196.423z" transform="matrix(1, 0, 0, 1, 0, 0)"/>
<path fill="#C1EAE8" d="M160.385,64.864c0,0.852-0.688,1.545-1.542,1.545c-0.852,0-1.546-0.693-1.546-1.545&#10;&#9;&#9;s0.694-1.549,1.546-1.549C159.696,63.315,160.385,64.012,160.385,64.864z" transform="matrix(1, 0, 0, 1, 0, 0)"/>
<path fill="#C1EAE8" d="M178.28,65.508c0,0.312-0.254,0.565-0.564,0.565h-13.473c-0.312,0-0.565-0.254-0.565-0.565v-1.283&#10;&#9;&#9;c0-0.312,0.254-0.565,0.565-0.565h13.473c0.311,0,0.564,0.254,0.564,0.565V65.508z" transform="matrix(1, 0, 0, 1, 0, 0)"/>
<path fill="#C1EAE8" d="M171.356,204.493c0,1.967-1.599,3.566-3.566,3.566c-1.972,0-3.568-1.6-3.568-3.566&#10;&#9;&#9;c0-1.971,1.597-3.57,3.568-3.57C169.758,200.923,171.356,202.522,171.356,204.493z" transform="matrix(1, 0, 0, 1, 0, 0)"/>
<g transform="matrix(1, 0, 0, 1, 0, 0)">
		<path fill="#2B5A5F" d="M155.723,93.655c0,0.157-0.076,0.286-0.171,0.286h-23.454c-0.097,0-0.172-0.129-0.172-0.286v-5.199&#10;&#9;&#9;&#9;c0-0.156,0.075-0.283,0.172-0.283h23.454c0.095,0,0.171,0.127,0.171,0.283V93.655z"/>
	</g>
<g transform="matrix(1, 0, 0, 1, 0, 0)">
		<path fill="#2B5A5F" d="M204.759,185.638c0,0.158-0.058,0.287-0.13,0.287H186.91c-0.073,0-0.13-0.129-0.13-0.287v-5.199&#10;&#9;&#9;&#9;c0-0.156,0.057-0.283,0.13-0.283h17.719c0.072,0,0.13,0.127,0.13,0.283V185.638z"/>
	</g>
<g transform="matrix(1, 0, 0, 1, 0, 0)">
		<path fill="#FBFBFB" d="M204.759,93.655c0,0.157-0.126,0.286-0.28,0.286h-38.427c-0.157,0-0.282-0.129-0.282-0.286v-5.199&#10;&#9;&#9;&#9;c0-0.156,0.125-0.283,0.282-0.283h38.427c0.154,0,0.28,0.127,0.28,0.283V93.655z"/>
	</g>
<g transform="matrix(1, 0, 0, 1, 0, 0)">
		<path fill="#FBFBFB" d="M204.759,107.213c0,0.157-0.235,0.286-0.523,0.286h-71.786c-0.289,0-0.523-0.129-0.523-0.286v-5.199&#10;&#9;&#9;&#9;c0-0.157,0.234-0.283,0.523-0.283h71.786c0.288,0,0.523,0.126,0.523,0.283V107.213z"/>
	</g>
<g transform="matrix(1, 0, 0, 1, 0, 0)">
		<path fill="#FBFBFB" d="M204.759,172.595c0,0.158-0.235,0.287-0.523,0.287h-71.786c-0.289,0-0.523-0.129-0.523-0.287v-5.199&#10;&#9;&#9;&#9;c0-0.156,0.234-0.283,0.523-0.283h71.786c0.288,0,0.523,0.127,0.523,0.283V172.595z"/>
	</g>
<g transform="matrix(1, 0, 0, 1, 0, 0)">
		<path fill="#B7E8F3" d="M288.731,193.229c0-0.152,0.044-0.277,0.098-0.277h13.382c0.055,0,0.098,0.125,0.098,0.277v5.047&#10;&#9;&#9;&#9;c0,0.152-0.043,0.275-0.098,0.275h-13.382c-0.054,0-0.098-0.123-0.098-0.275V193.229z"/>
	</g>
<g transform="matrix(1, 0, 0, 1, 0, 0)">
		<path fill="#B7E8F3" d="M260.755,152.476c0-0.568,0.135-1.033,0.299-1.033h40.957c0.166,0,0.298,0.465,0.298,1.033v18.871&#10;&#9;&#9;&#9;c0,0.57-0.132,1.029-0.298,1.029h-40.957c-0.164,0-0.299-0.459-0.299-1.029V152.476z"/>
	</g>
<g transform="matrix(1, 0, 0, 1, 0, 0)">
		<path fill="#B7E8F3" d="M260.755,193.229c0-0.152,0.072-0.277,0.16-0.277h21.924c0.09,0,0.161,0.125,0.161,0.277v5.047&#10;&#9;&#9;&#9;c0,0.152-0.071,0.275-0.161,0.275h-21.924c-0.088,0-0.16-0.123-0.16-0.275V193.229z"/>
	</g>
<g transform="matrix(1, 0, 0, 1, 0, 0)">
		<path fill="#B7E8F3" d="M260.755,180.069c0-0.152,0.135-0.277,0.299-0.277h40.957c0.164,0,0.298,0.125,0.298,0.277v5.047&#10;&#9;&#9;&#9;c0,0.152-0.134,0.275-0.298,0.275h-40.957c-0.164,0-0.299-0.123-0.299-0.275V180.069z"/>
	</g>
<g transform="matrix(1, 0, 0, 1, 0, 0)">
		<path fill="#B7E8F3" d="M44.239,150.827c0-0.568,0.102-1.033,0.229-1.033h31.52c0.127,0,0.229,0.465,0.229,1.033v18.871&#10;&#9;&#9;&#9;c0,0.57-0.102,1.029-0.229,1.029h-31.52c-0.127,0-0.229-0.459-0.229-1.029V150.827z"/>
	</g>
<g transform="matrix(1, 0, 0, 1, 0, 0)">
		<path fill="#B7E8F3" d="M44.239,178.421c0-0.152,0.102-0.277,0.229-0.277h31.52c0.126,0,0.229,0.125,0.229,0.277v5.047&#10;&#9;&#9;&#9;c0,0.154-0.103,0.275-0.229,0.275h-31.52c-0.127,0-0.229-0.121-0.229-0.275V178.421z"/>
	</g>
<g transform="matrix(1, 0, 0, 1, 0, 0)">
		<path fill="#FBFBFB" d="M178.28,185.444c0,0.158-0.149,0.287-0.333,0.287h-45.688c-0.185,0-0.333-0.129-0.333-0.287v-5.199&#10;&#9;&#9;&#9;c0-0.156,0.148-0.283,0.333-0.283h45.688c0.184,0,0.333,0.127,0.333,0.283V185.444z"/>
	</g>
<path d="M 271.0409851074219 207.61599731445312 L 271.0409851074219 190.31500244140625 L 253.66700744628906 190.31500244140625 L 270.97198486328125 207.61599731445312 Z" fill="#FFFFFF" transform="matrix(1, 0, 0, 1, 0, 0)"/>
<path d="M 147.779007 116.528 H 188.610008 V 149.898998 H 147.779007 V 116.528 Z" fill="#FBFBFB" transform="matrix(1, 0, 0, 1, 0, 0)"/>
<g transform="matrix(1, 0, 0, 1, 0, 0)">
		<path fill="#2B5A5F" d="M190.996,130.741l-2.342-1.803c-0.076-0.059-0.145-0.084-0.215-0.111v-11.682&#10;&#9;&#9;&#9;c0-0.34-0.277-0.617-0.617-0.617H172.5c-0.041-0.045-0.068-0.088-0.131-0.135l-3.789-2.92c-0.438-0.336-1.15-0.336-1.586,0&#10;&#9;&#9;&#9;l-3.789,2.92c-0.062,0.047-0.09,0.09-0.131,0.135h-15.295c-0.338,0-0.617,0.277-0.617,0.617v11.668&#10;&#9;&#9;&#9;c-0.076,0.027-0.156,0.059-0.242,0.125l-2.34,1.803c-0.436,0.336-0.793,1.061-0.793,1.609v26.562c0,0.551,0.451,1,1,1h46&#10;&#9;&#9;&#9;c0.551,0,1-0.449,1-1v-26.562C191.787,131.802,191.432,131.077,190.996,130.741z M150.463,119.798c0-0.34,0.277-0.617,0.615-0.617&#10;&#9;&#9;&#9;h33.445c0.34,0,0.617,0.277,0.617,0.617v16.52c0,0.34-0.244,0.75-0.543,0.91l-16.254,8.746c-0.299,0.16-0.787,0.16-1.086,0&#10;&#9;&#9;&#9;l-16.252-8.746c-0.299-0.16-0.543-0.57-0.543-0.91V119.798z"/>
	</g><g transform="matrix(1, 0, 0, 1, 0, 0)">
			<path d="M 154.145004 124.466003 H 163.747005 V 134.066004 H 154.145004 V 124.466003 Z" fill="#E76065"/>
		</g><g transform="matrix(1, 0, 0, 1, 0, 0)">
				<path d="M 166.522995 124.466003 H 182.774996 V 126.236003 H 166.522995 V 124.466003 Z" fill="#E76065"/>
			</g><path d="M 166.522995 128.065002 H 182.774996 V 129.835002 H 166.522995 V 128.065002 Z" fill="#E76065" transform="matrix(1, 0, 0, 1, 0, 0)"/><path d="M 166.522995 131.664993 H 173.161995 V 133.435993 H 166.522995 V 131.664993 Z" fill="#E76065" transform="matrix(1, 0, 0, 1, 0, 0)"/>
<g transform="matrix(1, 0, 0, 1, 0, 0)">
		<path d="M 273.5690002441406 63.55400085449219 L 265.0010070800781 54.79499816894531 L 265.0010070800781 60.8390007019043 L 264.95599365234375 60.8390007019043 L 264.95599365234375 66.27200317382812 L 265.0010070800781 66.27200317382812 L 265.0010070800781 72.31400299072266 Z" fill="#2B5A5F"/>
	</g><g transform="matrix(1, 0, 0, 1, 0, 0)">
			<path d="M 291.57598876953125 53.10499954223633 L 286.5050048828125 53.10499954223633 L 282.10400390625 60.0369987487793 L 277.70001220703125 53.10499954223633 L 272.6289978027344 53.10499954223633 L 279.57000732421875 64.02899932861328 L 272.6239929199219 74.96399688720703 L 272.7279968261719 75.03199768066406 L 277.6510009765625 75.03199768066406 L 282.10400390625 68.0199966430664 L 286.5559997558594 75.03199768066406 L 291.4779968261719 75.03199768066406 L 291.58099365234375 74.96399688720703 L 284.63800048828125 64.02899932861328 Z" fill="#E76065"/>
		</g><path d="M 274.3280029296875 35.81700134277344 L 265.0010070800781 45.145999908447266 L 265.0010070800781 53.10499954223633 L 268.5639953613281 53.10499954223633 L 268.5639953613281 48.474998474121094 L 276.3190002441406 48.474998474121094 L 276.3190002441406 40.816001892089844 L 295.6409912109375 40.816001892089844 L 295.6409912109375 78.81600189208984 L 268.5639953613281 78.81600189208984 L 268.5639953613281 75.03199768066406 L 265.0010070800781 75.03199768066406 L 265.0010070800781 83.81700134277344 L 299.2040100097656 83.81700134277344 L 299.2040100097656 35.81700134277344 Z" fill="#2B5A5F" transform="matrix(1, 0, 0, 1, 0, 0)"/>
<g transform="matrix(1, 0, 0, 1, 0, 0)">
		<path fill="#2B5A5F" d="M54.664,60.5c0-7.869,6.381-14.25,14.25-14.25V35.752H35.096v48h33.818V74.75&#10;&#9;&#9;&#9;C61.045,74.75,54.664,68.371,54.664,60.5z M48.67,73.209h-7.691v-7.691h7.691V73.209z M48.67,63.598h-7.691v-7.691h7.691V63.598z&#10;&#9;&#9;&#9; M48.67,53.987h-7.691v-7.691h7.691V53.987z"/>
	</g><path fill="#E76065" d="M68.914,48.542c-6.627,0-12,5.373-12,12s5.373,12,12,12s12-5.373,12-12S75.541,48.542,68.914,48.542z&#10;&#9;&#9;&#9; M68.744,66.458l-1.035,1.035c-0.527,0.527-1.23,0.68-1.57,0.339l-6.645-6.644c-0.338-0.341-0.188-1.044,0.34-1.57l1.848-1.848&#10;&#9;&#9;&#9;c0.527-0.526,1.23-0.679,1.57-0.339l3.518,3.517l7.615-7.488c0.531-0.523,1.387-0.517,1.91,0.016l1.83,1.861&#10;&#9;&#9;&#9;c0.523,0.533,0.518,1.388-0.016,1.91L68.744,66.458z" transform="matrix(1, 0, 0, 1, 0, 0)"/>
<path fill="#FFFFFF" d="M240.204,124.392c-1.223,0-2.37-0.477-3.235-1.342c-0.864-0.863-1.341-2.014-1.341-3.236&#10;&#9;&#9;c0-1.221,0.477-2.371,1.341-3.234l11.499-11.5c1.387-1.386,3.644-1.387,5.029-0.001c0.672,0.673,1.042,1.566,1.042,2.517&#10;&#9;&#9;c0,0.949-0.37,1.842-1.042,2.514l-11.51,11.508c-0.991,0.994-2.606,0.992-3.6,0.002c-0.482-0.482-0.746-1.121-0.748-1.803&#10;&#9;&#9;c0.002-0.68,0.266-1.318,0.746-1.799l2.86-2.861c0.211-0.211,0.554-0.209,0.767,0c0.21,0.213,0.211,0.555,0,0.766l-2.861,2.859&#10;&#9;&#9;c-0.276,0.277-0.428,0.645-0.429,1.035c0,0.391,0.152,0.76,0.431,1.037c0.57,0.57,1.499,0.57,2.071,0l11.508-11.509&#10;&#9;&#9;c0.468-0.468,0.724-1.089,0.724-1.751c0.001-0.66-0.256-1.281-0.724-1.747c-0.467-0.47-1.089-0.728-1.749-0.726&#10;&#9;&#9;c-0.661,0-1.282,0.258-1.75,0.725l-11.499,11.499c-0.661,0.662-1.024,1.537-1.024,2.471c0,0.936,0.364,1.812,1.023,2.471&#10;&#9;&#9;c0.66,0.662,1.537,1.025,2.471,1.025s1.812-0.363,2.471-1.023l2.853-2.852c0.211-0.211,0.554-0.209,0.765,0.002&#10;&#9;&#9;c0.21,0.211,0.212,0.553,0,0.764l-2.851,2.852C242.578,123.915,241.429,124.392,240.204,124.392z" style="fill: rgb(128, 216, 221);" transform="matrix(1, 0, 0, 1, -120.78457456774365, -94.29646090702649)"/><path fill="#FFFFFF" d="M256.252,117.962c-0.866-0.865-1.34-2.014-1.342-3.238c0.001-1.221,0.478-2.371,1.342-3.234&#10;&#9;&#9;c0.864-0.865,2.013-1.34,3.235-1.34h16.264c1.961,0,3.557,1.596,3.556,3.555c0.001,0.951-0.37,1.844-1.042,2.516&#10;&#9;&#9;c-0.671,0.672-1.564,1.041-2.515,1.041h-16.276c-1.404,0-2.544-1.143-2.547-2.545c0-0.684,0.265-1.322,0.746-1.803&#10;&#9;&#9;c0.481-0.482,1.121-0.746,1.801-0.746h4.045c0.3,0,0.541,0.242,0.541,0.541c0,0.301-0.242,0.541-0.541,0.541h-4.043&#10;&#9;&#9;c-0.393,0-0.759,0.152-1.037,0.43c-0.275,0.275-0.429,0.645-0.428,1.035c-0.001,0.809,0.656,1.465,1.463,1.465h16.276&#10;&#9;&#9;c0.662,0,1.282-0.258,1.75-0.725s0.725-1.088,0.724-1.75c0.001-0.662-0.255-1.283-0.724-1.75c-0.467-0.467-1.088-0.725-1.749-0.723&#10;&#9;&#9;h-16.263c-0.935,0-1.812,0.361-2.472,1.021c-0.66,0.662-1.023,1.539-1.023,2.471c0,0.936,0.363,1.812,1.023,2.473&#10;&#9;&#9;s1.537,1.023,2.471,1.023h4.031c0.301,0,0.541,0.242,0.54,0.541c0,0.299-0.241,0.541-0.54,0.541h-4.031&#10;&#9;&#9;C258.267,119.302,257.116,118.825,256.252,117.962z" style="fill: rgb(128, 216, 221);" transform="matrix(1, 0, 0, 1, -114.41443864444042, -93.02243483389329)"/><path fill="#FFFFFF" d="M103.098,217.991c0.864,0.865,1.339,2.014,1.34,3.236c0,1.223-0.476,2.373-1.341,3.236&#10;&#9;&#9;c-0.863,0.863-2.014,1.34-3.235,1.34H83.599c-1.961,0-3.557-1.596-3.557-3.555c0-0.951,0.37-1.844,1.042-2.516&#10;&#9;&#9;s1.564-1.041,2.515-1.041h16.276c1.403,0,2.544,1.143,2.546,2.545c0,0.682-0.265,1.32-0.745,1.803&#10;&#9;&#9;c-0.482,0.48-1.121,0.746-1.8,0.746H95.83c-0.299,0-0.54-0.244-0.542-0.541c0.002-0.301,0.243-0.543,0.541-0.541h4.045&#10;&#9;&#9;c0.392,0,0.759-0.152,1.036-0.43c0.276-0.275,0.429-0.645,0.429-1.037c0-0.807-0.657-1.463-1.465-1.465l-16.275,0.002&#10;&#9;&#9;c-0.661,0-1.282,0.258-1.75,0.725s-0.725,1.088-0.724,1.748c-0.002,0.662,0.256,1.285,0.724,1.75&#10;&#9;&#9;c0.468,0.467,1.089,0.725,1.75,0.725H99.86c0.935,0,1.812-0.361,2.472-1.021c0.66-0.662,1.023-1.539,1.023-2.471&#10;&#9;&#9;c0.001-0.936-0.363-1.812-1.023-2.473s-1.537-1.023-2.471-1.023h-4.032c-0.299,0-0.54-0.244-0.539-0.543&#10;&#9;&#9;c0-0.297,0.24-0.539,0.54-0.539h4.031C101.082,216.651,102.232,217.126,103.098,217.991z" style="fill: rgb(128, 216, 221);" transform="matrix(1, 0, 0, 1, 118.78369765159731, -182.6217101486493)"/></svg>